<svg width="152" height="88" fill="none" xmlns="http://www.w3.org/2000/svg"><path d="M15.416 64.847h0l.006.003c4.677 2.685 9.995 4.021 15.941 4.021 5.861 0 11.095-1.337 15.687-4.022 4.675-2.684 8.312-6.453 10.907-11.296 2.595-4.844 3.886-10.37 3.886-16.565 0-6.193-1.29-11.677-3.886-16.437-2.51-4.844-6.105-8.613-10.78-11.297-4.591-2.686-9.825-4.022-15.686-4.022-5.946 0-11.305 1.336-16.064 4.018-4.675 2.597-8.355 6.279-11.035 11.035h0l-.004.006C1.792 25.05.5 30.494.5 36.605c0 6.279 1.29 11.889 3.885 16.818h0l.005.009c2.679 4.839 6.356 8.647 11.026 11.415zm25.486-53.601h0l.007.005c3.215 2.143 5.797 5.499 7.726 10.11 1.923 4.6 2.895 10.312 2.895 17.158 0 8.707-1.565 15.49-4.642 20.4-3.045 4.77-7.68 7.166-13.994 7.166-4.49 0-8.423-1.286-11.818-3.853-3.404-2.574-6.032-6.153-7.875-10.759-1.843-4.609-2.77-9.86-2.77-15.761 0-8.352 1.771-15.048 5.27-20.129l.001-.003c3.48-5.138 8.26-7.69 14.385-7.69 3.982 0 7.582 1.118 10.815 3.356zm40.327 4.171v0h.012l27.04-.638c1.096 0 1.978-.12 2.531-.444.689-.354 1.163-1.156 1.51-2.194l.004-.014.004-.014 2.551-9.44h.001l.002-.01c.064-.255.065-.596-.196-.857-.214-.214-.507-.267-.75-.274-.511-.09-1.04 0-1.359.478l-.037.055-.021.064c-.383 1.149-1.099 1.978-2.166 2.514-.496.227-1.368.473-2.655.726-1.281.252-2.937.505-4.973.76h-.001c-3.992.51-11.855 1.402-23.592 2.678h-.001a6.68 6.68 0 00-1.002.174c-.248.068-.517.17-.7.352l.353.353-.353-.353a.825.825 0 00-.174.28c-.033.081-.06.174-.085.271a7.723 7.723 0 00-.136.743l-4.08 22.69v.006a1.88 1.88 0 00.346 1.54l.021.03.026.024c.365.366.841.53 1.374.53 9.733 0 17.103 1.736 22.174 5.145h0l.008.005c5.13 3.31 7.681 8 7.681 14.124 0 5.372-2.269 10.485-6.88 15.347l-.003.004c-4.608 4.942-12.57 9.927-23.947 14.937l-.011.005-.011.005c-.24.12-.47.31-.57.608-.1.298-.029.59.09.828l.01.017.01.017c.3.5.733.88 1.321.88h.227l.09-.037c13.877-5.704 23.89-11.257 29.992-16.67 6.204-5.344 9.357-11.383 9.357-18.11 0-6.903-3.119-12.248-9.296-15.99-5.978-3.756-15.248-5.67-27.73-5.81l2.572-13.958.005-.028.002-.027c.037-.517.188-.826.385-1.01.197-.184.515-.312 1.03-.312zm48.952 6.409l-10.761-4.612 10.65-4.564L134.634 2l4.612 10.761 10.602 4.453-10.714 4.5-4.5 10.715-4.453-10.603z" stroke="#A4C700" stroke-opacity=".5"/></svg>