<svg width="152" height="85" fill="none" xmlns="http://www.w3.org/2000/svg"><path d="M15.288 62.12h0l.006.003c4.636 2.662 9.909 3.987 15.804 3.987 5.81 0 11-1.325 15.552-3.988 4.635-2.66 8.241-6.397 10.813-11.198 2.573-4.803 3.853-10.282 3.853-16.423 0-6.14-1.279-11.576-3.852-16.296-2.488-4.802-6.053-8.539-10.687-11.2-4.553-2.662-9.742-3.987-15.553-3.987C25.33 3.018 20.017 4.342 15.3 7c-4.635 2.576-8.283 6.225-10.94 10.94h0l-.004.007C1.78 22.668.5 28.063.5 34.12c0 6.225 1.28 11.787 3.851 16.673h0l.005.01c2.656 4.797 6.302 8.572 10.932 11.316zM40.551 8.987h0l.007.005c3.186 2.124 5.745 5.45 7.657 10.02 1.906 4.558 2.87 10.221 2.87 17.006 0 8.631-1.552 15.355-4.602 20.22-3.017 4.727-7.61 7.102-13.868 7.102-4.45 0-8.347-1.275-11.712-3.82-3.373-2.55-5.978-6.097-7.804-10.662-1.828-4.568-2.747-9.773-2.747-15.622 0-8.279 1.756-14.915 5.223-19.95l.003-.003c3.449-5.092 8.185-7.621 14.255-7.621 3.947 0 7.514 1.107 10.718 3.325zm68.898 31.976c-3.241-3.08-7.539-4.776-12.85-5.127 4.87-3.072 8.462-6.024 10.747-8.86 2.586-3.104 3.907-6.374 3.907-9.8 0-4.372-1.76-7.892-5.256-10.515-3.475-2.692-7.802-4.023-12.949-4.023-2.05 0-3.898.17-5.54.517h0-.006c-1.539.343-3.494.896-5.862 1.657l-.008.003-.008.003c-2.115.76-3.513 1.108-4.257 1.108-.477 0-.863-.13-1.183-.379-.284-.296-.467-.774-.467-1.524 0-.188.068-.661.229-1.472a.637.637 0 00.012-.54c-.104-.235-.315-.338-.439-.384-.262-.098-.638-.127-1.06-.127-.18 0-.356.01-.501.047a.761.761 0 00-.274.124.574.574 0 00-.224.364l-4.902 19.104a.626.626 0 00-.067.183.667.667 0 00.023.343c.058.174.177.314.28.416l.083.084.112.037c.3.1.607.152.917.152.229 0 .464-.02.66-.099a.788.788 0 00.316-.223.665.665 0 00.15-.342c1.504-5.41 3.612-9.206 6.279-11.468C79.985 7.952 83.446 6.8 87.737 6.8c4.715 0 8.235 1.28 10.642 3.768 2.427 2.507 3.654 5.749 3.654 9.769 0 2.936-.814 5.531-2.436 7.803h0l-.007.01c-1.537 2.264-4.35 4.852-8.487 7.76-2.256.175-4.355.557-6.294 1.147-1.965.598-3.607 1.287-4.917 2.073l-.01.006-.01.007a.967.967 0 00-.438.65c-.044.27.031.528.141.748.114.228.272.43.486.572.218.145.464.21.72.21h.118l.106-.052.246-.123a.05.05 0 01.003-.002c2.184-1.05 5.094-1.593 8.759-1.593 4.862 0 8.5 1.52 10.998 4.5l.005.006.005.005c2.613 2.94 3.92 6.446 3.92 10.544 0 5.474-2.568 10.705-7.812 15.698l-.003.003c-5.129 4.964-13.664 8.816-25.686 11.506l-.024.006-.025.008a.886.886 0 00-.575.621c-.072.251-.06.537-.013.82l.007.04.012.036c.098.292.241.573.47.764a.973.973 0 00.878.197c13.942-3.127 24.559-7.49 31.806-13.116 7.231-5.53 10.944-11.52 10.944-17.974 0-4.862-1.83-8.958-5.471-12.254zm20.732-19.137l-10.761-4.612 10.65-4.564L134.634 2l4.612 10.761 10.602 4.453-10.714 4.5-4.5 10.715-4.453-10.603z" stroke="#A4C700" stroke-opacity=".5"/></svg>