<svg width="152" height="76" fill="none" xmlns="http://www.w3.org/2000/svg"><path d="M14.152 71.233l.006.004c4.28 2.457 9.148 3.68 14.589 3.68 5.363 0 10.153-1.223 14.357-3.681 4.279-2.457 7.608-5.907 9.983-10.34 2.375-4.434 3.556-9.491 3.556-15.158 0-5.665-1.18-10.684-3.556-15.041-2.297-4.433-5.588-7.884-9.867-10.34-4.203-2.459-8.994-3.682-14.357-3.682-5.44 0-10.344 1.223-14.7 3.678-4.279 2.377-7.648 5.747-10.101 10.1h0l-.003.006C1.682 34.817.5 39.797.5 45.388c0 5.744 1.18 10.878 3.555 15.389h0l.005.009c2.452 4.428 5.817 7.914 10.092 10.447zM37.439 22.25h0l.007.005c2.93 1.953 5.284 5.012 7.044 9.22 1.755 4.196 2.643 9.411 2.643 15.663 0 7.952-1.43 14.142-4.236 18.619-2.773 4.346-6.995 6.529-12.751 6.529-4.094 0-7.679-1.173-10.774-3.513-3.104-2.347-5.5-5.61-7.182-9.813-1.683-4.206-2.53-8.999-2.53-14.387 0-7.627 1.619-13.736 4.81-18.37l.001-.003c3.173-4.683 7.527-7.008 13.11-7.008 3.63 0 6.911 1.019 9.858 3.059zm64.963 49.817l.004-.002c3.875-1.976 6.934-4.594 9.163-7.857 2.23-3.267 3.351-6.823 3.351-10.658 0-4.312-1.362-7.972-4.096-10.947-2.767-3.012-6.886-4.476-12.26-4.476-3.561 0-6.857.674-9.88 2.026-3.028 1.354-5.58 3.348-7.65 5.976l-.031.04-.023.046a.807.807 0 00-.017.671c.074.186.204.349.344.489.287.287.64.496 1.053.496.23 0 .491-.057.695-.255 2.072-1.918 3.967-3.237 5.683-3.983l.008-.004.008-.004c1.717-.82 3.585-1.233 5.614-1.233 3.678 0 6.435 1.267 8.346 3.767 1.934 2.53 2.929 5.985 2.929 10.422 0 4.661-1.107 8.35-3.273 11.114-2.148 2.665-5.106 4.008-8.935 4.008-3.593 0-6.815-1.304-9.682-3.944-2.809-2.734-5.023-6.315-6.634-10.76-1.535-4.53-2.303-9.331-2.303-14.408 0-5.915 1.19-11.559 3.57-16.935l.002-.003c2.377-5.443 5.941-10.12 10.701-14.036 4.746-3.904 10.613-6.555 17.617-7.94l.031-.006.03-.01a.848.848 0 00.549-.55c.079-.235.063-.49.016-.722-.049-.246-.152-.517-.382-.7-.242-.195-.528-.217-.78-.161-8.452 1.099-15.75 3.804-21.882 8.127-6.124 4.24-10.766 9.47-13.915 15.688-3.145 6.133-4.718 12.662-4.718 19.58 0 5.734 1.021 10.896 3.075 15.477l.003.006c2.131 4.58 5.062 8.15 8.799 10.695 3.737 2.544 7.916 3.817 12.522 3.817 4.427 0 8.545-.95 12.348-2.85zm27.779-50.241l-10.761-4.612 10.65-4.564L134.634 2l4.612 10.761 10.602 4.453-10.714 4.5-4.5 10.715-4.453-10.603z" stroke="#A4C700" stroke-opacity=".5"/></svg>