<svg width="152" height="65" fill="none" xmlns="http://www.w3.org/2000/svg"><path d="M130.333 21.826l-10.762-4.612 10.65-4.564L134.786 2l4.612 10.761L150 17.214l-10.714 4.5-4.5 10.715-4.453-10.603zM67.918 60.504l.043-.037c8.197-6.885 14.581-12.656 19.158-17.315h0c4.66-4.74 8.073-9.012 10.258-12.817 2.179-3.793 3.256-7.521 3.256-11.193 0-4.004-1.119-7.108-3.305-9.372l-.006-.006-.006-.007c-2.096-2.328-5.144-3.525-9.225-3.525-3.944 0-7.256 1.241-9.967 3.714-2.712 2.475-4.853 6.212-6.394 11.26a.68.68 0 01-.109.29.73.73 0 01-.285.247c-.186.093-.403.114-.592.114-.303 0-.602-.05-.897-.149l-.063-.02-.056-.038a1.372 1.372 0 01-.385-.354.653.653 0 01-.114-.362c0-.102.025-.194.066-.273L74.073 2.04l.014-.052.023-.048c.137-.273.392-.386.612-.423a1.88 1.88 0 01.664.032c.253.043.504.105.69.217.096.058.229.16.302.332.07.16.06.32.015.453-.068.36-.105.804-.105 1.335 0 .668.158 1.077.386 1.318.223.236.593.397 1.205.397.733 0 1.937-.263 3.653-.834 1.898-.66 3.598-1.158 5.097-1.492h.006c1.599-.337 3.398-.504 5.393-.504 5.339 0 9.651 1.42 12.88 4.309 3.314 2.89 4.968 6.68 4.968 11.324 0 3.638-1.144 7.177-3.405 10.61-2.244 3.408-5.392 6.925-9.432 10.553l-.002.002-.334-.372c-3.937 3.609-10.252 9.022-18.947 16.24l-9.838 5.067zm0 0l-.035.046a1.535 1.535 0 00-.311.73c-.035.273.02.536.14.778l.021.04.027.037c.34.454.817.692 1.384.692h42.569c.469 0 .878-.186 1.146-.58.283-.38.453-.796.461-1.24l1.596-12.52.004-.031v-.032a.665.665 0 00-.154-.428.785.785 0 00-.314-.22 1.707 1.707 0 00-.598-.098 1.832 1.832 0 00-.623-.024c-.22.037-.475.15-.612.423l-.025.051-.013.055c-.638 2.63-1.733 4.38-3.224 5.353-1.533.917-4.337 1.567-8.505 1.894-4.167.245-11.698.368-22.603.368-.052 0-.098-.001-.14-.004l-10.191 4.71zm-53.024.038h0l.006.004c4.513 2.59 9.644 3.88 15.382 3.88 5.655 0 10.706-1.29 15.137-3.881 4.511-2.59 8.021-6.227 10.525-10.9 2.504-4.676 3.75-10.008 3.75-15.985 0-5.974-1.245-11.266-3.75-15.86-2.421-4.674-5.89-8.311-10.402-10.901-4.431-2.592-9.482-3.882-15.137-3.882-5.737 0-10.908 1.29-15.5 3.878-4.512 2.506-8.063 6.06-10.65 10.649h0l-.003.006C1.746 22.144.5 27.395.5 33.29c0 6.058 1.245 11.471 3.748 16.227h0l.006.01c2.584 4.669 6.133 8.343 10.64 11.014zM39.47 8.85h0l.008.005c3.097 2.064 5.585 5.297 7.444 9.742 1.853 4.432 2.79 9.94 2.79 16.54 0 8.395-1.508 14.933-4.474 19.663-2.932 4.596-7.397 6.904-13.48 6.904-4.326 0-8.115-1.24-11.386-3.713-3.28-2.48-5.813-5.928-7.589-10.368-1.777-4.442-2.67-9.504-2.67-15.193 0-8.052 1.707-14.506 5.078-19.402l.002-.003c3.354-4.95 7.957-7.408 13.858-7.408 3.837 0 7.305 1.077 10.42 3.233z" stroke="#A4C700" stroke-opacity=".5"/></svg>