<svg width="152" height="81" fill="none" xmlns="http://www.w3.org/2000/svg"><path d="M14.535 58.069h0l.006.003c4.4 2.526 9.404 3.783 14.998 3.783 5.514 0 10.438-1.257 14.76-3.784 4.398-2.526 7.82-6.072 10.262-10.629 2.442-4.558 3.657-9.757 3.657-15.584 0-5.825-1.214-10.984-3.656-15.464-2.362-4.557-5.745-8.104-10.144-10.63-4.32-2.527-9.245-3.784-14.76-3.784-5.593 0-10.634 1.257-15.113 3.78-4.398 2.445-7.861 5.909-10.383 10.384h0l-.004.006C1.715 20.63.5 25.75.5 31.498c0 5.906 1.214 11.184 3.655 15.821h0l.005.01c2.52 4.552 5.98 8.135 10.375 10.74zM38.487 7.687h0l.007.005c3.016 2.01 5.44 5.16 7.25 9.49 1.806 4.318 2.72 9.683 2.72 16.115 0 8.18-1.47 14.55-4.36 19.158-2.854 4.474-7.201 6.722-13.127 6.722-4.213 0-7.903-1.207-11.09-3.616-3.194-2.416-5.66-5.774-7.391-10.1-1.731-4.327-2.602-9.259-2.602-14.802 0-7.847 1.664-14.133 4.948-18.902l.002-.004c3.266-4.82 7.748-7.215 13.496-7.215 3.736 0 7.114 1.05 10.147 3.15zm75.453 46.334v0h-.012l-9.32.227V2.84c0-.435-.185-.811-.562-1.051-.338-.215-.781-.288-1.257-.288-.439 0-.889.082-1.193.386l-.032.033-.026.037-38.007 55.151c-.156.21-.267.448-.3.71-.033.267.02.526.14.764l.02.04.027.037c.334.445.802.68 1.36.68 15.231 0 25.735.075 31.515.226v19.059c0 .345.04.678.173.943a.95.95 0 00.32.372c.15.1.32.144.487.144h.081l.077-.026.72-.24.03-.01.03-.015 5.137-2.508c.411-.16.737-.43.954-.81.216-.379.306-.832.306-1.328V59.722l9.188.454h.024a.65.65 0 00.489-.23c.091-.104.15-.227.189-.334a3.7 3.7 0 00.175-.803 8.41 8.41 0 00.247-2.01c0-.768-.04-1.38-.131-1.812a1.8 1.8 0 00-.216-.591c-.111-.175-.317-.375-.633-.375zM96.293 16.579v37.93c-9.862.154-18.41.231-25.64.231a.96.96 0 01-.21-.02.921.921 0 01.025-.04l.001-.002L96.293 16.58zm33.888 5.247l-10.761-4.612 10.65-4.564L134.634 2l4.612 10.761 10.602 4.453-10.714 4.5-4.5 10.715-4.453-10.603z" stroke="#A4C700" stroke-opacity=".5"/></svg>