<svg width="152" height="72" fill="none" xmlns="http://www.w3.org/2000/svg"><path d="M16.752 66.365l.006.004c5.094 2.913 10.887 4.365 17.367 4.365 6.388 0 12.09-1.452 17.091-4.367 5.093-2.913 9.055-7.004 11.882-12.262 2.828-5.26 4.235-11.26 4.235-17.988 0-6.726-1.407-12.68-4.234-17.849-2.735-5.259-6.651-9.35-11.744-12.263-5.002-2.915-10.703-4.366-17.09-4.366-6.48 0-12.318 1.45-17.503 4.362-5.092 2.82-9.101 6.816-12.022 11.98h0l-.003.005C1.907 23.154.5 29.064.5 35.701c0 6.82 1.407 12.911 4.233 18.263h0l.005.009c2.92 5.254 6.925 9.387 12.014 12.392zM44.558 8.098h0l.008.005c3.517 2.336 6.338 5.992 8.444 11.01 2.101 5.006 3.163 11.223 3.163 18.668 0 9.47-1.709 16.854-5.072 22.2-3.33 5.2-8.403 7.811-15.306 7.811-4.908 0-9.208-1.401-12.921-4.199-3.721-2.803-6.593-6.7-8.605-11.713-2.014-5.017-3.026-10.73-3.026-17.15 0-9.085 1.934-16.373 5.757-21.906l.002-.003c3.805-5.597 9.033-8.38 15.731-8.38 4.354 0 8.291 1.219 11.825 3.657zM91.017 63.05l-.007.012-.006.012c-.568 1.132-1.68 1.987-3.446 2.517-1.698.443-4.425.675-8.216.675a.822.822 0 00-.46.135.89.89 0 00-.3.348c-.122.244-.158.546-.158.849 0 .303.036.605.158.848a.89.89 0 00.3.348.822.822 0 00.46.136c3.06 0 5.479-.046 7.254-.139l10.144-.139 10.282.139c1.683.093 4.057.139 7.115.139.424 0 .615-.345.683-.55.073-.217.096-.49.096-.782 0-.292-.023-.566-.096-.783-.068-.205-.259-.55-.683-.55-3.983 0-6.854-.231-8.647-.678-1.756-.437-2.859-1.242-3.426-2.361-.51-1.197-.788-3.186-.788-6.03V3.11c0-.384-.128-.731-.39-1.01-.206-.296-.514-.599-.945-.599a1.1 1.1 0 00-.693.215l-20.915 9.8c-.275.08-.538.26-.648.59-.103.306-.03.628.08.899.119.298.298.558.556.741.26.185.563.266.882.266h.246l.098-.044c2.358-1.06 4.324-1.85 5.902-2.374 1.591-.528 2.745-.772 3.496-.772.664 0 1.17.154 1.555.428.383.272.688.695.894 1.311.436 1.303.67 3.633.67 7.053v37.584c0 2.75-.371 4.676-1.047 5.854zm39.316-41.224l-10.762-4.612 10.65-4.564L134.786 2l4.612 10.761L150 17.214l-10.714 4.5-4.5 10.715-4.453-10.603z" stroke="#A4C700" stroke-opacity=".5"/></svg>