<svg width="178" height="29" fill="none" xmlns="http://www.w3.org/2000/svg"><path d="M8 25.76l-.521.853.006.005.007.004L8 25.76zm-4.48-4.72l-.887.461.003.008.004.006.88-.475zm.52-13.56l.814.58.004-.005-.818-.575zm5.32-4.44l-.411-.912-.004.002.415.91zm13.36.32l-.53.848.009.005.521-.853zm4.4 4.68l-.887.462.005.01.882-.472zM21.6 25.72l-.477-.879-.005.003.482.876zm-.68-.4l-.515-.858-.006.005.521.853zm3.44-3.88l-.895-.447-.005.011.9.436zm-.12-12.76l-.902.432.902-.432zm-3.96-4.56l-.546.838.007.004.539-.842zm-12.8 1.2l-.753-.658.753.658zM6.4 20l-.912.41.002.004L6.4 20zm3.92 4.88l-.581.814.008.006.573-.82zm4.32 1.6c-2.32 0-4.354-.534-6.132-1.582l-1.016 1.724C9.608 27.868 12 28.48 14.64 28.48v-2zm-6.119-1.573A11.288 11.288 0 014.4 20.564l-1.76.951a13.287 13.287 0 004.839 5.098l1.042-1.706zm-4.114-4.328c-.963-1.852-1.447-3.866-1.447-6.059h-2c0 2.5.556 4.833 1.673 6.981l1.774-.922zM2.96 14.52c0-2.57.646-4.707 1.894-6.46L3.226 6.9C1.7 9.04.96 11.597.96 14.52h2zm1.898-6.465C6.144 6.225 7.78 4.86 9.775 3.95l-.83-1.82C6.62 3.192 4.709 4.79 3.222 6.905l1.636 1.15zM9.771 3.95c2.065-.931 4.152-1.391 6.269-1.391v-2c-2.417 0-4.783.527-7.091 1.568l.822 1.823zm6.269-1.39c2.369 0 4.407.559 6.15 1.648l1.06-1.696C21.153 1.202 18.738.56 16.04.56v2zm6.159 1.653c1.768 1.081 3.107 2.508 4.034 4.289l1.774-.924c-1.1-2.112-2.695-3.806-4.766-5.071L22.2 4.213zm4.039 4.298a11.968 11.968 0 011.442 5.729h2c0-2.353-.561-4.581-1.678-6.671l-1.764.942zm1.442 5.729c0 2.24-.588 4.281-1.765 6.146l1.69 1.068c1.383-2.189 2.075-4.6 2.075-7.214h-2zm-1.765 6.146c-1.187 1.878-2.778 3.361-4.792 4.455l.954 1.758c2.306-1.253 4.155-2.97 5.528-5.145l-1.69-1.068zm-4.797 4.458c-1.981 1.09-4.135 1.636-6.478 1.636v2c2.67 0 5.157-.627 7.442-1.884l-.964-1.752zM16.04 27.64c1.983 0 3.793-.484 5.402-1.467l-1.043-1.706c-1.272.777-2.715 1.173-4.359 1.173v2zm5.395-1.463c1.65-.99 2.923-2.44 3.825-4.301l-1.8-.872c-.751 1.551-1.772 2.69-3.055 3.458l1.03 1.715zm3.82-4.29c.936-1.874 1.385-4.06 1.385-6.527h-2c0 2.227-.405 4.093-1.174 5.633l1.788.894zm1.385-6.527c0-2.632-.49-5.01-1.498-7.112l-1.804.864c.86 1.792 1.302 3.867 1.302 6.248h2zm-1.498-7.112c-1.008-2.103-2.45-3.77-4.323-4.97l-1.078 1.684c1.54.987 2.739 2.36 3.597 4.15l1.804-.864zm-4.316-4.966C18.963 2.07 16.794 1.48 14.36 1.48v2c2.1 0 3.877.504 5.375 1.478l1.09-1.676zM14.36 1.48c-3.169 0-5.758 1.034-7.633 3.182l1.506 1.316c1.431-1.639 3.43-2.498 6.127-2.498v-2zM6.727 4.662C4.87 6.79 4 9.65 4 13.12h2c0-3.142.784-5.482 2.233-7.142L6.727 4.662zM4 13.12c0 2.634.491 5.068 1.488 7.29l1.824-.82C6.442 17.653 6 15.5 6 13.12H4zm1.49 7.294c.999 2.198 2.413 3.968 4.249 5.28l1.162-1.628c-1.524-1.088-2.723-2.571-3.59-4.48l-1.821.828zM9.747 25.7c1.855 1.296 3.964 1.94 6.293 1.94v-2c-1.938 0-3.642-.529-5.147-1.58L9.747 25.7zm40.158-2.22l-.86-.509-.005.008-.005.007.87.494zm-2.84 2.72l.463.887-.463-.887zm-6.72.84l.083-.996-.008-.001h-.009l-.066.997zm-1.44-.08l.048-.999-.048.999zm-1.8-.04v-1h-.015l.015 1zm-2.72.04l-.015-1h-.02l-.02.002.055.998zm.2-.64l.268.963.024-.006.024-.008-.316-.949zm1-.8l-.894-.447.894.447zm0-22.04l-.92.394.012.027.014.026.894-.447zm-.96-.76l-.333.943.032.011.033.01.268-.964zm13.88-.6l-.832.555.055.082.07.07.707-.707zm.12.36l.995-.101-.002-.02-.003-.02-.99.141zm.52 5.12h1v-.05l-.005-.051-.995.101zm-.48 0l-.984.176.036.205.116.174.832-.555zm-1.68-3.52l-.718.696.005.005.006.006.707-.707zm-7.44-1.04l.298.954.018-.005.017-.006-.333-.943zm-.88.76l.908.42.006-.013.005-.013-.919-.394zm-.24 9.28h-1v1.112l1.106-.118-.106-.994zM46.705 25l.707.707.01-.01-.717-.697zm-.48-9.72l-.64.768.01.008.63-.776zm-7.8-1.44l-.146-.99-.854.127v.863h1zm.72 11.96l.664-.747-.664.747zm2.52-11.92c3.005 0 5.08.54 6.38 1.465 1.239.88 1.9 2.2 1.9 4.135h2c0-2.465-.885-4.446-2.74-5.765-1.793-1.275-4.358-1.835-7.54-1.835v2zm8.28 5.6c0 1.332-.307 2.486-.9 3.491l1.72 1.018c.794-1.342 1.18-2.854 1.18-4.509h-2zm-.91 3.506c-.569 1.002-1.372 1.774-2.433 2.327l.926 1.774c1.392-.727 2.482-1.768 3.247-3.113l-1.74-.988zm-2.433 2.327c-1.065.556-2.302.847-3.737.847v2c1.712 0 3.275-.35 4.663-1.073l-.926-1.774zm-3.737.847a29.85 29.85 0 01-2.437-.116l-.166 1.992c.979.082 1.848.124 2.603.124v-2zm-2.454-.118a79.035 79.035 0 00-1.458-.08l-.096 1.997c.556.026 1.03.053 1.422.079l.132-1.996zm-1.458-.08a38.985 38.985 0 00-1.848-.042v2c.626 0 1.21.013 1.752.039l.096-1.998zm-1.863-.042l-2.72.04.03 2 2.72-.04-.03-2zm-2.76.041c-.453.026-1.111.039-1.985.039v2c.886 0 1.588-.013 2.096-.041l-.111-1.997zM32.345 26a.95.95 0 01.672.278c.14.14.196.285.217.346.038.116.031.187.031.136h-2c0 .11.006.3.071.496.057.17.318.744 1.009.744v-2zm.92.76c0-.05.008.02-.031.136a.889.889 0 01-.217.346.952.952 0 01-.672.278v-2c-.69 0-.952.573-1.009.744a1.578 1.578 0 00-.071.496h2zm-.92.76c1.03 0 1.89-.065 2.508-.236l-.536-1.927c-.343.095-.976.163-1.972.163v2zm2.556-.251c.675-.225 1.249-.642 1.578-1.302l-1.788-.894c-.044.087-.137.203-.422.298l.632 1.898zm1.578-1.302c.295-.588.386-1.369.386-2.207h-2c0 .762-.095 1.155-.174 1.313l1.788.894zm.386-2.207V5.24h-2v18.52h2zm0-18.52c0-.838-.091-1.619-.386-2.207l-1.788.894c.079.158.174.551.174 1.313h2zm-.36-2.154c-.307-.715-.913-1.135-1.612-1.33l-.536 1.928c.261.072.295.158.309.19l1.838-.788zm-1.547-1.309c-.624-.22-1.503-.297-2.533-.297v2c.997 0 1.585.083 1.867.183l.666-1.886zm-2.533-.297a.908.908 0 01.804.493.739.739 0 01.076.267h-2c0 .131.011.378.136.627a1.092 1.092 0 00.984.613v-2zm.88.76v.015l-.006.044a.738.738 0 01-.07.208.908.908 0 01-.804.493V1a1.092 1.092 0 00-.984.613 1.399 1.399 0 00-.136.627h2zm-.88.76h15.76V1h-15.76v2zm15.76 0s-.015 0-.038-.004a.56.56 0 01-.113-.03.762.762 0 01-.361-.291l1.664-1.11C49.001 1.061 48.455 1 48.185 1v2zm-.387-.173a.78.78 0 01-.172-.26c-.005-.018 0-.005.01.054l1.979-.282a2.342 2.342 0 00-.091-.405 1.32 1.32 0 00-.312-.521l-1.414 1.414zm-.168-.246l.52 5.12 1.99-.202-.52-5.12-1.99.202zm.515 5.019a.895.895 0 01.435-.767c.198-.119.364-.113.365-.113v2c.134 0 .4-.014.664-.173.346-.207.536-.568.536-.947h-2zm.8-.88a.58.58 0 01.224.05.757.757 0 01.328.275l-1.664 1.11c.305.458.785.565 1.112.565v-2zm.704.704c-.293-1.642-.926-3.02-1.957-4.051l-1.414 1.414c.675.676 1.163 1.645 1.403 2.989l1.968-.352zm-1.946-4.04C46.681 2.33 45.393 1.8 43.905 1.8v2c.966 0 1.73.324 2.362.976l1.436-1.392zM43.905 1.8h-2.28v2h2.28v-2zm-2.28 0c-.96 0-1.794.079-2.413.297l.666 1.886c.288-.102.841-.183 1.747-.183v-2zm-2.378.286c-.674.21-1.214.65-1.501 1.32l1.838.788c.033-.076.08-.143.26-.2l-.597-1.908zm-1.49 1.295c-.256.554-.332 1.3-.332 2.099h2c0-.747.084-1.122.148-1.26l-1.816-.84zm-.332 2.099v7.6h2v-7.6h-2zm1.106 8.594c1.23-.13 2.273-.194 3.134-.194v-2c-.953 0-2.07.07-3.346.206l.212 1.988zm3.534 13.366c2.252 0 4.116-.502 5.347-1.733l-1.414-1.414c-.69.69-1.918 1.147-3.933 1.147v2zm5.357-1.743c1.21-1.243 1.723-3.034 1.723-5.177h-2c0 1.857-.447 3.053-1.157 3.783l1.434 1.394zm1.723-5.177c0-2.604-.68-4.708-2.29-6.016l-1.26 1.552c.95.772 1.55 2.161 1.55 4.464h2zm-2.28-6.008c-1.524-1.27-3.627-1.832-6.16-1.832v2c2.267 0 3.844.505 4.88 1.368l1.28-1.536zm-6.16-1.832c-.844 0-1.654.056-2.426.17l.292 1.98c.668-.1 1.378-.15 2.134-.15v-2zm-3.28 1.16v9.92h2v-9.92h-2zm0 9.92c0 1.087.28 2.098 1.056 2.787l1.328-1.494c-.184-.164-.384-.513-.384-1.293h-2zm1.056 2.787c.42.373.97.585 1.54.71.581.127 1.269.183 2.044.183v-2c-.692 0-1.224-.05-1.616-.137-.403-.088-.58-.197-.64-.25l-1.328 1.494zm22.449-.787l-.522.853.007.005.007.004.508-.862zm-4.48-4.72l-.888.461.004.008.004.006.88-.475zm.52-13.56l.814.58.004-.005-.818-.575zm5.32-4.44l-.412-.912-.004.002.416.91zm13.36.32l-.53.848.008.005.522-.853zm4.4 4.68l-.887.462.005.01.882-.472zm-5.52 17.68l-.478-.879-.004.003.482.876zm-.68-.4l-.515-.858-.007.005.522.853zm3.44-3.88l-.895-.447-.005.011.9.436zm-.12-12.76l-.902.432.902-.432zm-3.96-4.56l-.546.838.006.004.54-.842zm-12.8 1.2l-.753-.658.753.658zM59.33 20l-.913.41.002.004.91-.414zm3.92 4.88l-.582.814.01.006.572-.82zm4.32 1.6c-2.32 0-4.355-.534-6.133-1.582l-1.015 1.724c2.115 1.246 4.507 1.858 7.148 1.858v-2zm-6.119-1.573a11.287 11.287 0 01-4.122-4.343l-1.759.951a13.288 13.288 0 004.838 5.098l1.043-1.706zm-4.114-4.328c-.963-1.852-1.447-3.866-1.447-6.059h-2c0 2.5.555 4.833 1.672 6.981l1.775-.922zM55.89 14.52c0-2.57.646-4.707 1.894-6.46L56.155 6.9c-1.525 2.14-2.265 4.697-2.265 7.62h2zm1.898-6.465c1.286-1.83 2.921-3.194 4.917-4.105l-.83-1.82c-2.325 1.062-4.237 2.66-5.725 4.775l1.637 1.15zM62.7 3.95c2.065-.931 4.152-1.391 6.269-1.391v-2c-2.417 0-4.783.527-7.092 1.568L62.7 3.95zm6.27-1.39c2.368 0 4.407.559 6.15 1.648l1.06-1.696C74.082 1.202 71.667.56 68.97.56v2zm6.158 1.653c1.77 1.081 3.108 2.508 4.035 4.289l1.774-.924c-1.1-2.112-2.695-3.806-4.766-5.071l-1.043 1.706zm4.04 4.298a11.968 11.968 0 011.442 5.729h2c0-2.353-.562-4.581-1.678-6.671l-1.764.942zm1.442 5.729c0 2.24-.588 4.281-1.766 6.146l1.691 1.068c1.382-2.189 2.075-4.6 2.075-7.214h-2zm-1.766 6.146c-1.186 1.878-2.778 3.361-4.792 4.455l.955 1.758c2.306-1.253 4.154-2.97 5.528-5.145l-1.69-1.068zm-4.796 4.458c-1.981 1.09-4.135 1.636-6.478 1.636v2c2.67 0 5.156-.627 7.442-1.884l-.964-1.752zM68.97 27.64c1.983 0 3.792-.484 5.401-1.467l-1.043-1.706c-1.271.777-2.715 1.173-4.358 1.173v2zm5.394-1.463c1.651-.99 2.924-2.44 3.826-4.301l-1.8-.872c-.752 1.551-1.773 2.69-3.055 3.458l1.03 1.715zm3.82-4.29c.937-1.874 1.386-4.06 1.386-6.527h-2c0 2.227-.405 4.093-1.175 5.633l1.79.894zm1.386-6.527c0-2.632-.49-5.01-1.499-7.112l-1.803.864c.859 1.792 1.302 3.867 1.302 6.248h2zm-1.5-7.112c-1.008-2.103-2.448-3.77-4.322-4.97L72.67 4.962c1.54.987 2.74 2.36 3.598 4.15l1.803-.864zm-4.316-4.966C71.892 2.07 69.724 1.48 67.29 1.48v2c2.099 0 3.877.504 5.374 1.478l1.091-1.676zM67.29 1.48c-3.17 0-5.758 1.034-7.634 3.182l1.507 1.316c1.43-1.639 3.429-2.498 6.127-2.498v-2zm-7.634 3.182C57.8 6.79 56.93 9.65 56.93 13.12h2c0-3.142.783-5.482 2.233-7.142l-1.506-1.316zM56.93 13.12c0 2.634.49 5.068 1.487 7.29l1.825-.82c-.87-1.938-1.312-4.09-1.312-6.47h-2zm1.49 7.294c.998 2.198 2.413 3.968 4.248 5.28l1.163-1.628c-1.524-1.088-2.723-2.571-3.59-4.48l-1.822.828zm4.257 5.286c1.855 1.296 3.964 1.94 6.293 1.94v-2c-1.938 0-3.643-.529-5.148-1.58l-1.145 1.64zm60.773 1.26l.055-.998-.02-.002h-.021l-.014 1zm-2.76-.04l.014-1h-.03l.016 1zm-2.56.04l-.016-1h-.023l-.024.002.063.998zm.2-.64l.298.954.017-.005.018-.006-.333-.943zm.88-.8l-.919-.394-.013.028-.01.03.942.336zm.16-1.76l-1 .04.001.013.001.014.998-.067zm-.72-18.2l.999-.04-1.918-.356.919.396zm-9.12 21.16l.894.447.013-.025.011-.026-.918-.396zm-.68 0l-.905.426.074.158.124.123.707-.707zM99.01 5.8l.905-.426-1.905.405 1 .021zm-.36 16.84l-1-.021v.002l1 .019zm.72 3l.757-.654-.757.654zm.96 1.32l.066-.998-.024-.001h-.024l-.018.999zm-2.16-.04l.018-1h-.038l.02 1zm-2.08.04l-.02-1h-.026l-.026.002.072.998zm.8-1.32l-.771-.637-.003.004.774.633zm.8-3l-1-.02 1 .02zm.36-18.56l1 .02.006-.345-.206-.275-.8.6zM94.77 2l.027-1h-.027v1zm1.48.04l.1-.995-.037-.004h-.036l-.027.999zm2.32 0l-.077-.997h-.006l.083.997zm1.64.36l-.781.625.034.043.04.04.707-.708zm1 1.68l.903-.429-.003-.007-.9.436zm8.92 18.8l-.904.429.939 1.98.88-2.007-.915-.402zM118.85 3l-.916-.403v.001l.916.402zm1.76-.96l-.111.994.011.001.1-.995zm1.04.04v1h.021l-.021-1zm1.88-.04l.021 1 .035-.001.034-.003-.09-.996zm-1.56 1.04l.554.832.009-.006-.563-.826zm-.8 2.16l-1 .025v.01l.001.008.999-.043zm.8 18.52l.999-.032v-.011l-.999.043zm.28 1.8l-.919.394.011.027.013.026.895-.447zm3.16 1.96a.91.91 0 01-.805-.493.749.749 0 01-.069-.208c-.004-.02-.005-.035-.006-.044v-.015h2c0-.131-.011-.378-.136-.627a1.092 1.092 0 00-.984-.613v2zm-.88-.76v-.015c.001-.01.002-.024.006-.044a.749.749 0 01.069-.208.9.9 0 01.805-.493v2a1.092 1.092 0 00.984-.613c.125-.249.136-.496.136-.627h-2zm.88-.76c-.82 0-1.452-.013-1.905-.038l-.111 1.997c.507.028 1.182.041 2.016.041v-2zm-1.946-.04l-2.76-.04-.029 2 2.76.04.029-2zm-2.79-.04l-2.56.04.031 2 2.56-.04-.031-2zm-2.607.042a29.62 29.62 0 01-1.737.038v2c.78 0 1.404-.013 1.862-.042l-.125-1.996zM116.33 26c.269 0 .507.113.672.278.14.14.196.285.216.346.039.116.032.187.032.136h-2c0 .11.006.3.071.496.057.17.318.744 1.009.744v-2zm.92.76c0-.05.007.02-.032.136a.886.886 0 01-.216.346.953.953 0 01-.672.278v-2c-.691 0-.952.573-1.009.744a1.588 1.588 0 00-.071.496h2zm-.92.76c.926 0 1.719-.065 2.298-.245l-.597-1.91c-.274.086-.814.155-1.701.155v2zm2.333-.257c.67-.237 1.232-.69 1.488-1.407l-1.883-.672c-.011.029-.035.11-.271.193l.666 1.886zm1.466-1.35c.257-.6.294-1.387.238-2.22l-1.995.133c.051.768-.019 1.154-.081 1.3l1.838.788zm.24-2.192l-.72-18.2-1.999.079.72 18.2 1.999-.08zm-2.638-18.557l-9.12 21.16 1.837.792 9.12-21.16-1.837-.792zm-9.096 21.109a.739.739 0 01.327-.327.572.572 0 01.248-.066v2c.387 0 .933-.15 1.214-.713l-1.789-.894zm.575-.393c.071 0 .146.015.216.046a.45.45 0 01.131.087l-1.414 1.414c.267.268.632.453 1.067.453v-2zm.545.414l-9.84-20.92-1.81.852 9.84 20.92 1.81-.852zM98.01 5.78l-.36 16.84 2 .042.359-16.84-2-.042zm-.36 16.842c-.028 1.479.207 2.797.963 3.673l1.514-1.308c-.257-.297-.503-.979-.477-2.327l-2-.038zm.963 3.673c.79.915 2.05 1.226 3.437 1.226v-2c-1.174 0-1.701-.276-1.923-.534l-1.514 1.308zm3.437 1.226a.949.949 0 01-.672-.278.88.88 0 01-.217-.346c-.039-.116-.031-.187-.031-.136h2c0-.11-.006-.3-.072-.496-.057-.17-.317-.744-1.008-.744v2zm-.92-.76c0 .05-.008-.02.031-.136a.88.88 0 01.217-.346.949.949 0 01.672-.278v2c.691 0 .951-.573 1.008-.744.066-.196.072-.387.072-.496h-2zm.92-.76c-.74 0-1.287-.013-1.654-.038l-.133 1.996c.434.029 1.033.042 1.787.042v-2zm-1.702-.04l-2.16-.04-.037 2 2.16.04.037-2zm-2.198-.04l-2.08.04.039 2 2.08-.04-.038-2zm-2.132.042a22.46 22.46 0 01-1.528.038v2c.7 0 1.262-.013 1.67-.043l-.142-1.995zM94.49 26c.269 0 .507.113.672.278a.89.89 0 01.216.346c.04.116.032.187.032.136h-2c0 .11.006.3.071.496.057.17.318.744 1.009.744v-2zm.92.76c0-.05.007.02-.032.136a.89.89 0 01-.216.346.952.952 0 01-.672.278v-2c-.691 0-.952.573-1.009.744a1.578 1.578 0 00-.071.496h2zm-.92.76c1.273 0 2.427-.334 3.174-1.247l-1.548-1.266c-.213.26-.66.513-1.626.513v2zm3.17-1.243c.724-.876 1.001-2.156 1.03-3.618l-2-.038c-.025 1.311-.282 2.032-.571 2.382l1.542 1.274zm1.03-3.618l.36-18.56-2-.038-.36 18.56 2 .038zm.16-19.179c-.998-1.33-2.394-2-4.08-2v2c1.086 0 1.877.397 2.48 1.2l1.6-1.2zm-4.08-2c.269 0 .507.113.672.278a.89.89 0 01.216.346c.04.116.032.187.032.136h-2c0 .11.006.3.071.496.057.17.318.744 1.009.744v-2zm.92.76c0-.05.007.02-.032.136a.89.89 0 01-.216.346.952.952 0 01-.672.278V1c-.691 0-.952.573-1.009.744a1.578 1.578 0 00-.071.496h2zm-.947.76l1.48.04.054-2-1.48-.04-.054 2zm1.407.035c.316.032.728.045 1.22.045v-2c-.469 0-.803-.013-1.02-.035l-.2 1.99zm1.22.045c.495 0 .925-.014 1.283-.043l-.166-1.994a13.92 13.92 0 01-1.117.037v2zm1.276-.043c.34-.026.576-.037.724-.037V1c-.226 0-.523.016-.877.043l.153 1.994zM99.37 3c.022 0 .034.002.04.003.003.001.003.001 0 0-.003-.002-.004-.003-.003-.001.002.001.01.008.022.023l1.562-1.25A2.024 2.024 0 0099.37 1v2zm.133.107c.03.03.122.143.277.404.147.247.323.58.53 1.005l1.8-.872a16.168 16.168 0 00-.611-1.155c-.178-.3-.372-.586-.582-.796l-1.414 1.414zm.803 1.402l8.92 18.8 1.807-.858-8.92-18.8-1.807.858zm10.739 18.773l8.72-19.88-1.831-.804-8.72 19.88 1.831.804zm8.72-19.88c.108-.244.201-.347.245-.384l.02-.015.004-.002h.002L120.05 3V1c-1.072 0-1.744.752-2.116 1.597l1.831.806zM120.05 3c.078 0 .222.009.449.034l.221-1.988a6.344 6.344 0 00-.67-.046v2zm.46.035c.313.031.697.045 1.14.045v-2c-.411 0-.721-.013-.941-.035l-.199 1.99zm1.161.045l1.88-.04-.043-2-1.88.04.043 2zm1.949-.044c.247-.023.65-.036 1.23-.036V1c-.594 0-1.071.013-1.411.044l.181 1.992zM124.85 3a.91.91 0 01-.805-.493.75.75 0 01-.069-.208c-.004-.02-.005-.035-.006-.044V2.24h2c0-.131-.011-.378-.136-.627A1.092 1.092 0 00124.85 1v2zm-.88-.76v-.015c.001-.01.002-.024.006-.044a.75.75 0 01.069-.208.9.9 0 01.805-.493v2a1.092 1.092 0 00.984-.613c.125-.249.136-.496.136-.627h-2zm.88-.76c-1.384 0-2.599.198-3.444.774l1.127 1.652c.329-.224 1.034-.426 2.317-.426v-2zm-3.435.768c-.985.656-1.275 1.817-1.245 3.017l1.999-.05c-.023-.933.22-1.213.355-1.303l-1.109-1.664zm-1.244 3.035l.8 18.52 1.998-.086-.8-18.52-1.998.086zm.799 18.51c.028.849.123 1.607.361 2.16l1.838-.787c-.083-.192-.174-.634-.2-1.438l-1.999.064zm.385 2.214c.328.656.892 1.072 1.573 1.272l.564-1.918c-.226-.067-.302-.157-.348-.248l-1.789.894zm1.573 1.272c.6.177 1.456.241 2.482.241v-2c-1.001 0-1.612-.07-1.918-.16l-.564 1.92zm30.359-.319l.056-.998-.021-.002h-.02l-.015 1zm-2.76-.04l.015-1h-.029l.014 1zm-2.92.04l-.014-1h-.02l-.021.002.055.998zm1.32-1.4l-.906-.423-.007.014-.006.015.919.394zm.28-11.16h1v-1h-1v1zm-15.36 0v-1h-1v1h1zm.24 11.16l-.928.371.015.039.019.037.894-.447zm1.32 1.4l.056-.998-.021-.002h-.021l-.014 1zm-2.88-.04l.014-1h-.028l.014 1zm-2.76.04l-.014-1h-.021l-.02.002.055.998zm.24-.64l-.254-.967-.013.003.267.964zm1-.76l-.906-.423-.007.014-.006.015.919.394zm0-22.08l-.919.394.012.027.013.026.894-.447zm-.96-.76l-.316.949.024.008.025.007.267-.964zm-2.24-.72l.02-1h-.02v1zm2.04.04l.048-.999h-.028l-.02.999zm5.6 0l-.021-1h-.012l-.012.001.045.999zm1.92-.04V1h-.021l.021 1zm-2.28.72l-.301-.954-.008.003-.007.002.316.949zm-1 .84l-.906-.423-.007.014-.006.015.919.394zm-.24 10h-1v1h1v-1zm15.36 0v1h1v-1h-1zm-.28-10l-.928.371.015.039.019.037.894-.447zm-.96-.84l.316-.949-.316.949zm-2.28-.72l.021-1h-.021v1zm1.92.04l.046-.999h-.025l-.021.999zm5.68 0l-.02-1h-.014l-.013.001.047.999zm1.96-.04V1h-.02l.02 1zm-2.24.72l.268.964.024-.007.024-.008-.316-.949zm-1 .76l-.894-.447-.013.026-.012.027.919.394zm0 22.08l-.928.371.015.039.019.037.894-.447zm3.24 1.96a.907.907 0 01-.804-.493.728.728 0 01-.075-.252l-.001-.015h2c0-.131-.011-.378-.135-.627a1.091 1.091 0 00-.985-.613v2zm-.88-.76l.001-.015a.728.728 0 01.075-.252.907.907 0 01.804-.493v2a1.091 1.091 0 00.985-.613c.124-.249.135-.496.135-.627h-2zm.88-.76a36.66 36.66 0 01-1.904-.038l-.111 1.997a38.31 38.31 0 002.015.041v-2zm-1.945-.04l-2.76-.04-.029 2 2.76.04.029-2zm-2.789-.04l-2.92.04.028 2 2.92-.04-.028-2zm-2.961.041c-.454.026-1.073.039-1.865.039v2c.808 0 1.469-.013 1.976-.041l-.111-1.997zm-1.865.039a.907.907 0 01.805.493.749.749 0 01.075.252v.015h-2c0 .131.011.378.136.627a1.092 1.092 0 00.984.613v-2zm.88.76v.015l-.006.044a.749.749 0 01-.069.208.907.907 0 01-.805.493v-2a1.092 1.092 0 00-.984.613 1.393 1.393 0 00-.136.627h2zm-.88.76c1.055 0 1.929-.065 2.548-.236l-.535-1.927c-.342.094-.987.163-2.013.163v2zm2.548-.236c.699-.195 1.305-.615 1.611-1.33l-1.838-.788c-.013.032-.048.118-.308.19l.535 1.927zm1.598-1.301c.28-.6.374-1.377.374-2.223h-2c0 .754-.093 1.177-.186 1.377l1.812.846zm.374-2.223V14.4h-2v9.36h2zm-1-10.36h-15.36v2h15.36v-2zm-16.36 1v9.36h2V14.4h-2zm0 9.36c0 .837.08 1.591.312 2.171l1.857-.742c-.088-.22-.169-.666-.169-1.429h-2zm.346 2.247c.337.675.931 1.083 1.627 1.276l.535-1.927c-.265-.073-.338-.172-.373-.243l-1.789.894zm1.627 1.276c.618.172 1.493.237 2.547.237v-2c-1.025 0-1.671-.069-2.012-.163l-.535 1.927zm2.547.237a.953.953 0 01-.672-.278.886.886 0 01-.216-.346c-.039-.116-.032-.187-.032-.136h2c0-.11-.006-.3-.071-.496-.057-.17-.318-.744-1.009-.744v2zm-.92-.76c0 .05-.007-.02.032-.136a.886.886 0 01.216-.346.953.953 0 01.672-.278v2c.691 0 .952-.573 1.009-.744.065-.196.071-.387.071-.496h-2zm.92-.76a36.66 36.66 0 01-1.904-.038l-.111 1.997a38.31 38.31 0 002.015.041v-2zm-1.946-.04l-2.88-.04-.028 2 2.88.04.028-2zm-2.908-.04l-2.76.04.029 2 2.76-.04-.029-2zm-2.801.041a36.37 36.37 0 01-1.945.039v2c.86 0 1.548-.013 2.056-.041l-.111-1.997zm-1.945.039c.269 0 .507.113.672.278a.88.88 0 01.217.346c.039.116.031.187.031.136h-2c0 .11.006.3.072.496.056.17.317.744 1.008.744v-2zm.92.76c0-.05.008.02-.031.136a.88.88 0 01-.217.346.953.953 0 01-.672.278v-2c-.691 0-.952.573-1.008.744a1.565 1.565 0 00-.072.496h2zm-.92.76c1.031 0 1.891-.065 2.508-.236l-.535-1.927c-.343.095-.977.163-1.973.163v2zm2.495-.233c.71-.187 1.349-.598 1.664-1.333l-1.838-.788c-.005.011-.033.107-.335.187l.509 1.934zm1.651-1.304c.28-.6.374-1.377.374-2.223h-2c0 .754-.093 1.177-.186 1.377l1.812.846zm.374-2.223V5.24h-2v18.52h2zm0-18.52c0-.838-.091-1.619-.385-2.207l-1.789.894c.079.158.174.551.174 1.313h2zm-.361-2.154c-.306-.715-.912-1.135-1.611-1.33l-.535 1.928c.26.072.295.158.308.19l1.838-.788zm-1.563-1.315c-.639-.213-1.52-.291-2.556-.291v2c.991 0 1.604.082 1.924.189l.632-1.898zm-2.556-.291c.269 0 .507.113.672.278a.88.88 0 01.217.346c.039.116.031.187.031.136h-2c0 .11.006.3.072.496.056.17.317.744 1.008.744v-2zm.92.76c0-.05.008.02-.031.136a.88.88 0 01-.217.346.952.952 0 01-.672.278V1c-.691 0-.952.573-1.008.744a1.565 1.565 0 00-.072.496h2zm-.939.76l2.04.04.039-2-2.04-.04-.039 2zm2.012.039a59.64 59.64 0 002.727.081v-2c-.644 0-1.519-.026-2.632-.079L129.8 3.04zm2.727.081c.794 0 1.784-.027 2.966-.081l-.091-1.998a65.476 65.476 0 01-2.875.079v2zm2.941-.08l1.92-.04-.042-2-1.92.04.042 2zm1.899-.04a.952.952 0 01-.672-.278.887.887 0 01-.216-.346c-.039-.116-.032-.187-.032-.136h2c0-.11-.006-.3-.071-.496-.057-.17-.318-.744-1.009-.744v2zm-.92-.76c0 .05-.007-.02.032-.136a.887.887 0 01.216-.346.952.952 0 01.672-.278v2c.691 0 .952-.573 1.009-.744.065-.196.071-.387.071-.496h-2zm.92-.76c-1.04 0-1.925.08-2.581.286l.602 1.908c.357-.113.993-.194 1.979-.194v-2zm-2.596.291c-.699.233-1.27.68-1.59 1.366l1.812.846c.054-.114.149-.227.41-.314l-.632-1.898zm-1.603 1.395c-.243.568-.321 1.324-.321 2.154h2c0-.77.083-1.187.159-1.366l-1.838-.788zm-.321 2.154v8.24h2V5.32h-2zm1 9.24h15.36v-2h-15.36v2zm16.36-1V5.32h-2v8.24h2zm0-8.24c0-.838-.091-1.619-.385-2.207l-1.789.894c.079.158.174.551.174 1.313h2zm-.351-2.131c-.289-.722-.867-1.183-1.573-1.418l-.632 1.898c.255.085.316.184.348.262l1.857-.742zm-1.573-1.418c-.641-.213-1.537-.291-2.596-.291v2c1.021 0 1.645.082 1.964.189l.632-1.898zm-2.596-.291a.907.907 0 01.805.493.75.75 0 01.075.252v.015h-2c0 .131.011.378.136.627a1.092 1.092 0 00.984.613v-2zm.88.76v.015l-.006.044a.75.75 0 01-.069.208.907.907 0 01-.805.493V1a1.092 1.092 0 00-.984.613 1.393 1.393 0 00-.136.627h2zm-.901.76l1.92.04.042-2-1.92-.04-.042 2zm1.896.039a66.91 66.91 0 002.965.081v-2a65.42 65.42 0 01-2.874-.079l-.091 1.998zm2.965.081c.742 0 1.68-.027 2.808-.081l-.095-1.998a59.273 59.273 0 01-2.713.079v2zm2.781-.08l1.96-.04-.041-2-1.96.04.041 2zm1.939-.04a.907.907 0 01-.804-.493.728.728 0 01-.075-.252l-.001-.015h2c0-.131-.011-.378-.135-.627a1.092 1.092 0 00-.985-.613v2zm-.88-.76l.001-.015a.728.728 0 01.075-.252.907.907 0 01.804-.493v2a1.092 1.092 0 00.985-.613c.124-.249.135-.496.135-.627h-2zm.88-.76c-1.035 0-1.916.078-2.556.291l.632 1.898c.321-.107.933-.189 1.924-.189v-2zm-2.507.276c-.696.194-1.29.602-1.627 1.277l1.789.894c.035-.071.108-.17.373-.243l-.535-1.928zm-1.652 1.33c-.243.568-.321 1.324-.321 2.154h2c0-.77.083-1.187.159-1.366l-1.838-.788zm-.321 2.154v18.52h2V5.24h-2zm0 18.52c0 .837.08 1.591.312 2.171l1.857-.742c-.088-.22-.169-.666-.169-1.429h-2zm.346 2.247c.337.675.931 1.083 1.627 1.276l.535-1.927c-.265-.073-.338-.172-.373-.243l-1.789.894zm1.627 1.276c.617.172 1.476.237 2.507.237v-2c-.996 0-1.629-.068-1.972-.163l-.535 1.927zm22.979-6.243l.983.18.017-.09v-.09h-1zm.36-.04l-.447.894.063.032.068.023.316-.949zm.12.12l.99.141.01-.07v-.071h-1zm-.52 5.76l.707.707-.707-.707zm-15.04-.56l-.268-.963-.007.002-.007.002.282.959zm.96-.76l-.906-.423-.007.014-.006.015.919.394zm0-22.08l-.919.394.011.027.013.026.895-.447zm-.96-.76l-.333.943.032.011.033.01.268-.964zm14.24-.36h-1v.016l1-.016zm.08 4.92h1v-.016l-1 .016zm-.2.16v1h.099l.097-.02-.196-.98zm-.24-.12l-.999.057.008.133.042.126.949-.316zm-1.28-3.28l-.719.695.006.006.006.006.707-.707zm-7.6-.96l.298.954.017-.005.018-.006-.333-.943zm-.92.76l-.895-.447-.007.014-.006.014.908.419zm-.24 9.72h-1v1h1v-1zm7.6-.64l-.606-.795-.01.007-.009.007.625.781zm1.32-2.16l1 .012v-.012h-1zm-.04 3.24l-1-.012V14h1zm.04 1.76l1-.02-.001-.024-.001-.022-.998.066zm.04 1.92h1v-.02l-1 .02zm-1.36-2.52l-.671.742.008.007.009.008.654-.757zm-7.6-.76v-1h-1v1h1zm.24 10.84l-.908.42.908-.42zm.88.72l.298-.954-.298.954zm8.4-1.16l-.728-.685.728.685zm2.72-3.76a.944.944 0 01-.513.834.819.819 0 01-.327.086v-2a1.26 1.26 0 00-.567.126 1.062 1.062 0 00-.593.954h2zm-.84.92a.566.566 0 01-.247-.066l.894-1.788a1.44 1.44 0 00-.647-.146v2zm-.116-.011a.779.779 0 01-.301-.192.904.904 0 01-.263-.637h2c0-.718-.593-.998-.804-1.069l-.632 1.898zm-.554-.97a38.358 38.358 0 00-.37 5.421h2c0-1.797.117-3.51.35-5.139l-1.98-.282zm-.37 5.421c0 .026-.004.009.011-.036a.506.506 0 01.122-.191l1.414 1.414c.36-.36.453-.82.453-1.187h-2zm.133-.227a.639.639 0 01.284-.173c.027-.007.014 0-.057 0v2c.168 0 .356-.013.542-.06a1.37 1.37 0 00.645-.353l-1.414-1.414zm.227-.173h-16.76v2h16.76v-2zm-16.76 0c.269 0 .507.113.672.278.14.14.196.285.216.346.039.116.032.187.032.136h-2c0 .11.006.3.071.496.057.17.318.744 1.009.744v-2zm.92.76c0-.05.007.02-.032.136a.886.886 0 01-.216.346.953.953 0 01-.672.278v-2c-.691 0-.952.573-1.009.744a1.588 1.588 0 00-.071.496h2zm-.92.76c1.025 0 1.882-.064 2.482-.24l-.564-1.92c-.307.09-.917.16-1.918.16v2zm2.467-.236c.7-.195 1.305-.615 1.612-1.33l-1.838-.788c-.014.032-.048.118-.309.19l.535 1.927zm1.599-1.301c.28-.6.374-1.377.374-2.223h-2c0 .754-.093 1.177-.186 1.377l1.812.846zm.374-2.223V5.24h-2v18.52h2zm0-18.52c0-.838-.092-1.619-.386-2.207l-1.789.894c.079.158.175.551.175 1.313h2zm-.361-2.154c-.307-.715-.912-1.135-1.612-1.33l-.535 1.928c.261.072.295.158.309.19l1.838-.788zm-1.546-1.309c-.625-.22-1.504-.297-2.533-.297v2c.997 0 1.584.083 1.867.183l.666-1.886zm-2.533-.297c.269 0 .507.113.672.278.14.14.196.285.216.346.039.116.032.187.032.136h-2c0 .11.006.3.071.496.057.17.318.744 1.009.744v-2zm.92.76c0-.05.007.02-.032.136a.887.887 0 01-.216.346.952.952 0 01-.672.278V1c-.691 0-.952.573-1.009.744a1.588 1.588 0 00-.071.496h2zm-.92.76h16.08V1h-16.08v2zm16.08 0a.65.65 0 01-.437-.203.65.65 0 01-.203-.437h2a1.36 1.36 0 00-.383-.977 1.36 1.36 0 00-.977-.383v2zm-.64-.624l.08 4.92 2-.032-.08-4.92-2 .032zm.08 4.904a.88.88 0 01.325-.68.645.645 0 01.279-.14l.392 1.96c.14-.027.368-.09.578-.26a1.12 1.12 0 00.426-.88h-2zm.8-.84c.018 0 .137 0 .287.076.181.09.345.26.421.488l-1.897.632c.237.71.918.804 1.189.804v-2zm.758.823c-.09-1.584-.578-2.937-1.571-3.93l-1.414 1.414c.553.554.918 1.387.988 2.63l1.997-.114zm-1.559-3.918c-.991-1.025-2.293-1.505-3.799-1.505v2c1.053 0 1.805.32 2.361.895l1.438-1.39zm-3.799-1.505h-2.44v2h2.44v-2zm-2.44 0c-.961 0-1.794.079-2.413.297l.666 1.886c.287-.102.841-.183 1.747-.183v-2zm-2.379.286c-.665.208-1.198.632-1.516 1.267l1.789.894c.056-.111.136-.194.324-.253l-.597-1.908zm-1.529 1.295c-.253.549-.332 1.26-.332 2.019h2c0-.681.081-1.036.148-1.18l-1.816-.84zm-.332 2.019v8.12h2V5.44h-2zm1 9.12h4.88v-2h-4.88v2zm4.88 0c1.334 0 2.535-.211 3.344-.86l-1.249-1.56c-.257.204-.87.42-2.095.42v2zm3.326-.845c.904-.688 1.234-1.774 1.234-2.955h-2c0 .845-.23 1.2-.446 1.365l1.212 1.59zm1.234-2.955a.95.95 0 01-.278.672.887.887 0 01-.346.217c-.116.039-.187.031-.136.031v-2c-.109 0-.3.006-.496.071-.171.057-.744.318-.744 1.009h2zm-.76.92c.051 0-.02.008-.136-.031a.887.887 0 01-.346-.217.952.952 0 01-.278-.672h2c0-.69-.573-.952-.744-1.009a1.575 1.575 0 00-.496-.071v2zm-.76-.932l-.04 3.24 2 .024.04-3.24-2-.024zm-.04 3.252c0 .78.013 1.393.042 1.826l1.996-.133a27.254 27.254 0 01-.038-1.693h-2zm.04 1.78l.04 1.92 2-.04-.04-1.92-2 .04zm.04 1.9a.95.95 0 01.278-.672.887.887 0 01.346-.217c.116-.038.187-.031.136-.031v2c.109 0 .3-.006.496-.071.171-.057.744-.318.744-1.009h-2zm.76-.92c-.051 0 .02-.008.136.031.061.02.206.076.346.217a.952.952 0 01.278.672h-2c0 .69.573.952.744 1.009.196.065.387.071.496.071v-2zm.76.92c0-1.314-.327-2.5-1.227-3.277l-1.307 1.514c.274.236.534.73.534 1.763h2zm-1.209-3.261c-.841-.761-2.102-1.019-3.511-1.019v2c1.258 0 1.89.249 2.169.502l1.342-1.483zm-3.511-1.019h-4.76v2h4.76v-2zm-5.76 1v9.2h2v-9.2h-2zm0 9.2c0 .78.077 1.507.332 2.06l1.816-.84c-.066-.14-.148-.506-.148-1.22h-2zm.332 2.06c.299.647.844 1.053 1.489 1.255l.597-1.91c-.207-.064-.249-.138-.27-.184l-1.816.838zm1.489 1.255c.579.18 1.373.245 2.299.245v-2c-.887 0-1.427-.069-1.702-.154l-.597 1.909zm2.299.245h3.2v-2h-3.2v2zm3.2 0c1.547 0 2.88-.56 3.928-1.675l-1.456-1.37c-.659.7-1.459 1.045-2.472 1.045v2zm3.928-1.675c1.02-1.084 1.658-2.532 1.975-4.265l-1.967-.36c-.269 1.467-.778 2.525-1.464 3.255l1.456 1.37z" fill="#3AA2FE"/></svg>