<svg width="322" height="37" fill="none" xmlns="http://www.w3.org/2000/svg"><path d="M25.92 27.52l-.026 1h.026v-1zm-6.04.2l-.625.78.043.035.045.029.537-.844zm-1.36-1.6l.8-.6-.8.6zm-3.44-4.84l.82-.572v-.002l-.82.574zm-2.84-3.88l.775-.632-.775.632zm-1.8-1.52l-.463.887.016.008.015.007.432-.902zm-3-.44l-.243-.97-.757.19v.78h1zm.24 11.12l-.928.371.015.039.019.037.894-.447zm.96.76l-.282.96.007.002.007.002.268-.964zm.32.64l.055-.998-.02-.002h-.021l-.014 1zm-2.88-.04l.014-1h-.029l.015 1zm-2.72.04l-.015-1h-.02l-.02.002.055.998zm1.2-1.4l-.906-.423-.007.014-.006.015.919.394zM4.6 4.48l-.92.394.92-.394zm-.96-.76l-.316.949.024.008.024.007.268-.964zM1.4 3l.02-1H1.4v1zm1.96.04l.048-.999H3.38l-.02.999zm5.64 0l-.02-1h-.013l-.012.001L9 3.04zM10.92 3V2h-.02l.02 1zm-2.24.72l-.316-.949.316.949zm-1 .84l-.906-.423-.007.014-.006.015.919.394zm-.24 10.2h-1v1.038l1.037-.039-.037-.999zm3.44-.08v1h.514l.3-.418-.814-.582zm4.84-6.76l-.81-.587-.003.005.813.582zM17 3.72l-.447.894.014.007.014.007L17 3.72zM15.48 3l.023-1h-.023v1zm1.72.04l.053-.999h-.03l-.023.999zm5.64 0l-.028-1h-.014l-.013.002.055.998zM24.28 3V2h-.028l.028 1zM20.6 4.52l.53.848.008-.005.007-.005-.545-.838zm-3.44 3.44l.787.617.006-.008.005-.007-.798-.602zM11.8 14.8l-.787-.617-1.04 1.326 1.663.277.164-.986zm1.64.64l-.577.817.011.008.011.007.555-.832zm1.44 1.36l-.774.633.007.01.008.008.759-.651zM17 19.64l-.82.573.006.008.814-.581zm.6.84l.815-.58-.001-.001-.814.581zm3.04 4.04l.77-.638-.77.638zm2.44 2.2l-.53.848.01.006.01.006.51-.86zm2.84 1.8a.952.952 0 01-.672-.278.889.889 0 01-.217-.346c-.038-.116-.031-.187-.031-.136h2c0-.11-.006-.3-.071-.496-.057-.17-.318-.744-1.009-.744v2zm-.92-.76c0 .05-.008-.02.031-.136a.889.889 0 01.217-.346.952.952 0 01.672-.278v2c.69 0 .952-.573 1.009-.744.065-.196.071-.387.071-.496h-2zm.92-.76h-5.04v2h5.04v-2zm-5.04 0a.825.825 0 01-.463-.124l-1.074 1.688c.466.296.988.436 1.537.436v-2zm-.375-.06c-.15-.12-.53-.546-1.185-1.42l-1.6 1.2c.624.833 1.152 1.474 1.535 1.78l1.25-1.56zm-1.185-1.42c-.628-.837-1.765-2.437-3.42-4.812l-1.64 1.144c1.652 2.372 2.808 3.999 3.46 4.868l1.6-1.2zm-3.42-4.814c-1.307-1.866-2.273-3.186-2.885-3.938l-1.55 1.264c.56.688 1.489 1.954 2.796 3.822l1.638-1.148zm-2.885-3.938c-.647-.795-1.358-1.414-2.144-1.79l-.863 1.804c.441.21.931.605 1.457 1.25l1.55-1.264zm-2.112-1.775c-.81-.422-1.816-.593-2.943-.593v2c.953 0 1.6.15 2.017.367l.926-1.774zM7.96 14.4a3.28 3.28 0 00-.763.07l.486 1.94c-.023.006-.015.002.044-.003a3.21 3.21 0 01.233-.007v-2zm-1.52 1.04v9.32h2v-9.32h-2zm0 9.32c0 .837.08 1.591.312 2.171l1.856-.742c-.088-.22-.168-.666-.168-1.429h-2zm.346 2.247c.327.656.891 1.072 1.572 1.272l.564-1.918c-.226-.067-.302-.157-.348-.248l-1.788.894zm1.586 1.276c.619.172 1.493.237 2.548.237v-2c-1.025 0-1.67-.069-2.012-.163l-.536 1.927zm2.548.237a.952.952 0 01-.672-.278.889.889 0 01-.217-.346C9.993 27.78 10 27.71 10 27.76h2c0-.11-.006-.3-.071-.496-.057-.17-.318-.744-1.009-.744v2zm-.92-.76c0 .05-.007-.02.031-.136a.889.889 0 01.217-.346.952.952 0 01.672-.278v2c.69 0 .952-.573 1.009-.744.065-.196.071-.387.071-.496h-2zm.92-.76c-.82 0-1.451-.013-1.905-.038l-.11 1.997c.506.028 1.18.041 2.015.041v-2zm-1.946-.04l-2.88-.04-.028 2 2.88.04.028-2zm-2.909-.04l-2.72.04.03 2 2.72-.04-.03-2zm-2.76.041A36.37 36.37 0 011.36 27v2c.86 0 1.548-.013 2.055-.041l-.11-1.997zM1.36 27a.95.95 0 01.672.278.89.89 0 01.217.346c.038.116.031.187.031.136h-2c0 .11.006.3.071.496.057.17.318.744 1.009.744v-2zm.92.76c0-.05.007.02-.031.136a.89.89 0 01-.217.346.952.952 0 01-.672.278v-2c-.69 0-.952.573-1.009.744a1.577 1.577 0 00-.071.496h2zm-.92.76c1.03 0 1.89-.065 2.508-.236l-.536-1.927c-.343.095-.976.163-1.972.163v2zm2.508-.236c.699-.195 1.305-.615 1.611-1.33l-1.838-.788c-.014.032-.048.118-.309.19l.536 1.927zm1.598-1.301c.28-.6.374-1.377.374-2.223h-2c0 .754-.093 1.177-.186 1.377l1.812.846zm.374-2.223V6.24h-2v18.52h2zm0-18.52c0-.83-.077-1.586-.32-2.154l-1.84.788c.077.179.16.596.16 1.366h2zm-.32-2.154c-.307-.715-.913-1.135-1.612-1.33l-.536 1.928c.261.072.295.158.309.19l1.838-.788zM3.955 2.771c-.64-.213-1.52-.291-2.556-.291v2c.991 0 1.604.082 1.924.189l.632-1.898zM1.4 2.48a.95.95 0 01.672.278.89.89 0 01.217.346c.038.116.031.187.031.136h-2c0 .11.006.3.071.496.057.17.318.744 1.009.744v-2zm.92.76c0-.05.007.02-.031.136a.89.89 0 01-.217.346A.952.952 0 011.4 4V2c-.69 0-.952.573-1.009.744a1.577 1.577 0 00-.071.496h2zM1.38 4l1.96.04.04-2L1.42 2l-.04 2zm1.932.039a60.66 60.66 0 002.768.081v-2c-.67 0-1.56-.026-2.672-.079L3.312 4.04zm2.768.081c.794 0 1.784-.027 2.965-.081l-.09-1.998a65.479 65.479 0 01-2.875.079v2zm2.94-.08L10.94 4l-.04-2-1.92.04.04 2zm1.9-.04a.952.952 0 01-.672-.278.89.89 0 01-.217-.346C9.993 3.26 10 3.19 10 3.24h2c0-.11-.006-.3-.071-.496C11.872 2.574 11.61 2 10.92 2v2zM10 3.24c0 .05-.007-.02.031-.136a.89.89 0 01.217-.346.952.952 0 01.672-.278v2c.69 0 .952-.573 1.009-.744.065-.196.071-.387.071-.496h-2zm.92-.76c-1.036 0-1.916.078-2.556.291l.632 1.898c.32-.107.933-.189 1.924-.189v-2zm-2.556.291c-.699.233-1.27.68-1.59 1.366l1.812.846c.053-.114.149-.227.41-.314L8.364 2.77zM6.76 4.166c-.244.568-.321 1.324-.321 2.154h2c0-.77.083-1.187.16-1.366l-1.84-.788zM6.44 6.32v8.44h2V6.32h-2zm1.037 9.44c1.447-.054 2.32-.08 2.643-.08v-2c-.37 0-1.284.028-2.717.08l.074 2zm2.643-.08h.76v-2h-.76v2zm1.573-.418l4.84-6.76-1.626-1.164-4.84 6.76 1.626 1.164zm4.836-6.755c.614-.846 1.096-1.59 1.427-2.223.313-.599.564-1.228.564-1.804h-2c0 .064-.05.328-.336.876-.269.513-.688 1.17-1.273 1.977l1.618 1.174zM18.52 4.48c0-.348-.09-.7-.305-1.015a1.924 1.924 0 00-.796-.653l-.838 1.816c.049.023.021.021-.016-.033a.282.282 0 01-.038-.08c-.007-.024-.007-.038-.007-.035h2zm-1.073-1.654c-.536-.269-1.238-.346-1.967-.346v2c.657 0 .97.083 1.073.134l.894-1.788zM15.48 2.48a.95.95 0 01.672.278.89.89 0 01.217.346c.038.116.031.187.031.136h-2c0 .11.006.3.071.496.057.17.318.744 1.009.744v-2zm.92.76c0-.05.008.02-.031.136a.89.89 0 01-.217.346.952.952 0 01-.672.278V2c-.69 0-.952.573-1.009.744a1.578 1.578 0 00-.071.496h2zm-.943.76l1.72.04.046-2-1.72-.04-.046 2zm1.69.039c1.029.054 1.993.081 2.893.081v-2c-.86 0-1.789-.026-2.787-.079l-.106 1.998zm2.893.081c.926 0 1.878-.027 2.855-.082l-.11-1.996c-.943.052-1.858.078-2.745.078v2zm2.828-.08l1.44-.04-.056-2-1.44.04.056 2zM24.28 4a.908.908 0 01-.804-.493.738.738 0 01-.075-.252L23.4 3.24h2c0-.131-.011-.378-.136-.627A1.092 1.092 0 0024.28 2v2zm-.88-.76v-.015l.006-.044a.738.738 0 01.07-.208.908.908 0 01.804-.493v2a1.092 1.092 0 00.984-.613c.125-.249.136-.496.136-.627h-2zm.88-.76c-1.562 0-2.982.393-4.225 1.202l1.09 1.676c.89-.578 1.924-.878 3.135-.878v-2zm-4.21 1.192c-1.215.76-2.448 2.014-3.708 3.686l1.596 1.204c1.193-1.582 2.254-2.62 3.172-3.194l-1.06-1.696zm-3.697 3.671l-5.36 6.84 1.574 1.234 5.36-6.84-1.574-1.234zm-4.737 8.443c.516.087.916.251 1.227.471l1.154-1.634c-.596-.42-1.29-.682-2.053-.81l-.328 1.973zm1.25.486c.376.25.784.629 1.22 1.161l1.548-1.266c-.524-.641-1.075-1.17-1.66-1.559l-1.109 1.664zm1.235 1.179c.445.52 1.128 1.432 2.06 2.762l1.638-1.146c-.935-1.337-1.665-2.318-2.18-2.918l-1.518 1.302zm2.065 2.77l.6.84 1.628-1.162-.6-.84-1.628 1.162zm.6.84c1.258 1.766 2.288 3.136 3.084 4.097l1.54-1.276c-.75-.905-1.747-2.23-2.995-3.982l-1.63 1.16zm3.084 4.097c.828 1 1.72 1.81 2.68 2.41l1.06-1.696c-.746-.466-1.481-1.123-2.2-1.99l-1.54 1.276zm2.7 2.422a6.756 6.756 0 003.324.94l.052-2a4.757 4.757 0 01-2.356-.66l-1.02 1.72zm10.313-.82l-.522.853.007.005.007.004.508-.862zm-4.48-4.72l-.887.461.003.008.004.006.88-.475zm.52-13.56l.814.58.004-.005-.818-.575zm5.32-4.44l-.412-.912-.004.002.416.91zm13.36.32l-.53.848.008.005.522-.853zm4.4 4.68l-.887.462.005.01.882-.472zm-5.52 17.68l-.477-.879-.005.003.482.876zm-.68-.4l-.515-.858-.007.005.522.853zm3.44-3.88l-.895-.447-.005.011.9.436zm-.12-12.76l-.902.432.902-.432zm-3.96-4.56l-.546.838.006.004.54-.842zm-12.8 1.2l-.753-.658.753.658zM31.283 21l-.913.41.002.004.91-.414zm3.92 4.88l-.582.814.01.006.572-.82zm4.32 1.6c-2.32 0-4.355-.534-6.133-1.582l-1.015 1.724c2.115 1.246 4.507 1.858 7.148 1.858v-2zm-6.119-1.573a11.287 11.287 0 01-4.122-4.343l-1.759.951a13.287 13.287 0 004.838 5.098l1.043-1.706zm-4.114-4.328c-.963-1.852-1.447-3.866-1.447-6.059h-2c0 2.5.555 4.833 1.673 6.981l1.774-.922zm-1.447-6.059c0-2.57.646-4.707 1.894-6.46L28.108 7.9c-1.524 2.14-2.265 4.697-2.265 7.62h2zm1.898-6.465c1.286-1.83 2.922-3.194 4.917-4.105l-.83-1.82c-2.325 1.062-4.236 2.659-5.723 4.775l1.636 1.15zm4.913-4.103c2.065-.932 4.152-1.392 6.269-1.392v-2c-2.417 0-4.783.527-7.092 1.568l.823 1.824zm6.269-1.392c2.369 0 4.407.559 6.15 1.648l1.06-1.696c-2.098-1.31-4.512-1.952-7.21-1.952v2zm6.158 1.653c1.77 1.081 3.108 2.508 4.035 4.289l1.774-.924c-1.1-2.112-2.695-3.806-4.766-5.071l-1.043 1.706zm4.04 4.298a11.968 11.968 0 011.442 5.729h2c0-2.353-.562-4.581-1.678-6.671l-1.764.942zm1.442 5.729c0 2.24-.588 4.281-1.766 6.146l1.691 1.068c1.383-2.189 2.075-4.6 2.075-7.214h-2zm-1.766 6.146c-1.186 1.878-2.778 3.361-4.791 4.455l.954 1.758c2.306-1.253 4.155-2.97 5.528-5.145l-1.69-1.068zm-4.796 4.458c-1.981 1.09-4.135 1.636-6.478 1.636v2c2.67 0 5.156-.627 7.442-1.884L46 25.844zm-5.078 2.796c1.983 0 3.792-.484 5.401-1.467l-1.043-1.706c-1.27.777-2.715 1.173-4.358 1.173v2zm5.394-1.463c1.652-.99 2.924-2.44 3.826-4.301l-1.8-.872c-.752 1.551-1.773 2.69-3.055 3.458l1.03 1.715zm3.82-4.29c.937-1.874 1.386-4.06 1.386-6.527h-2c0 2.227-.405 4.093-1.175 5.633l1.79.894zm1.386-6.527c0-2.632-.49-5.01-1.498-7.112l-1.804.864c.86 1.792 1.302 3.867 1.302 6.248h2zm-1.498-7.112c-1.009-2.103-2.45-3.77-4.323-4.97l-1.079 1.684c1.54.987 2.74 2.36 3.598 4.15l1.804-.864zm-4.317-4.966C43.845 3.07 41.677 2.48 39.243 2.48v2c2.099 0 3.877.504 5.374 1.478l1.091-1.676zM39.243 2.48c-3.169 0-5.758 1.034-7.633 3.182l1.506 1.316c1.431-1.639 3.429-2.498 6.127-2.498v-2zM31.61 5.662c-1.857 2.127-2.727 4.987-2.727 8.458h2c0-3.142.783-5.482 2.233-7.142L31.61 5.662zm-2.727 8.458c0 2.634.49 5.068 1.488 7.29l1.824-.82c-.87-1.938-1.312-4.09-1.312-6.47h-2zm1.49 7.294c.998 2.198 2.413 3.968 4.249 5.28l1.162-1.628c-1.524-1.088-2.723-2.571-3.59-4.48l-1.822.828zM34.63 26.7c1.855 1.296 3.964 1.94 6.293 1.94v-2c-1.938 0-3.643-.529-5.148-1.58L34.63 26.7zm47.798 1.26l.055-.998-.02-.002h-.02l-.015 1zm-2.76-.04l.014-1h-.028l.014 1zm-2.92.04l-.014-1h-.02l-.022.002.056.998zm1.32-1.4l-.906-.423-.007.014-.006.015.919.394zm.28-11.16h1v-1h-1v1zm-15.36 0v-1h-1v1h1zm.24 11.16l-.929.371.016.039.018.037.895-.447zm1.32 1.4l.055-.998-.02-.002h-.021l-.014 1zm-2.88-.04l.014-1h-.029l.015 1zm-2.76.04l-.015-1h-.02l-.02.002.055.998zm.24-.64l-.255-.967-.013.003.268.964zm1-.76l-.906-.423-.007.014-.006.015.919.394zm0-22.08l-.92.394.012.027.013.026.895-.447zm-.96-.76l-.316.949.024.008.024.007.268-.964zM56.948 3l.02-1h-.02v1zm2.04.04l.047-.999h-.028l-.02.999zm5.6 0l-.021-1h-.012l-.013.001.046.999zm1.92-.04V2h-.021l.02 1zm-2.28.72l-.301-.954-.008.003-.007.002.316.949zm-1 .84l-.906-.423-.007.014-.006.015.919.394zm-.24 10h-1v1h1v-1zm15.36 0v1h1v-1h-1zm-.28-10l-.929.371.016.039.018.037.895-.447zm-.96-.84l.316-.949-.316.949zM74.828 3l.02-1h-.02v1zm1.92.04l.045-.999h-.024l-.021.999zm5.68 0l-.02-1h-.014l-.014.001.048.999zm1.96-.04V2h-.02l.02 1zm-2.24.72l.267.964.025-.007.024-.008-.316-.949zm-1 .76l-.895-.447-.013.026-.011.027.919.394zm0 22.08l-.929.371.016.039.018.037.895-.447zm3.24 1.96a.907.907 0 01-.805-.493.738.738 0 01-.075-.252v-.015h2c0-.131-.011-.378-.136-.627a1.092 1.092 0 00-.984-.613v2zm-.88-.76v-.015l.006-.044a.738.738 0 01.07-.208.907.907 0 01.804-.493v2a1.092 1.092 0 00.984-.613c.125-.249.136-.496.136-.627h-2zm.88-.76c-.82 0-1.452-.013-1.905-.038l-.11 1.997c.506.028 1.18.041 2.015.041v-2zm-1.946-.04l-2.76-.04-.029 2 2.76.04.03-2zm-2.788-.04l-2.92.04.028 2 2.92-.04-.028-2zm-2.962.041c-.453.026-1.072.039-1.864.039v2c.808 0 1.469-.013 1.975-.041l-.11-1.997zM74.828 27a.907.907 0 01.804.493.738.738 0 01.076.267h-2c0 .131.01.378.135.627a1.092 1.092 0 00.984.613v-2zm.88.76v.015l-.006.044a.738.738 0 01-.07.208.908.908 0 01-.804.493v-2a1.092 1.092 0 00-.985.613 1.398 1.398 0 00-.135.627h2zm-.88.76c1.054 0 1.93-.065 2.547-.236l-.535-1.927c-.341.094-.987.163-2.012.163v2zm2.547-.236c.7-.195 1.305-.615 1.612-1.33l-1.838-.788c-.014.032-.048.118-.309.19l.535 1.927zm1.599-1.301c.28-.6.374-1.377.374-2.223h-2c0 .754-.093 1.177-.186 1.377l1.812.846zm.374-2.223V15.4h-2v9.36h2zm-1-10.36h-15.36v2h15.36v-2zm-16.36 1v9.36h2V15.4h-2zm0 9.36c0 .837.08 1.591.311 2.171l1.857-.742c-.088-.22-.168-.666-.168-1.429h-2zm.345 2.247c.338.675.932 1.083 1.627 1.276l.536-1.927c-.265-.073-.338-.172-.374-.243l-1.789.894zm1.627 1.276c.619.172 1.493.237 2.548.237v-2c-1.026 0-1.67-.069-2.012-.163l-.536 1.927zm2.548.237a.952.952 0 01-.672-.278.891.891 0 01-.217-.346c-.039-.116-.031-.187-.031-.136h2c0-.11-.006-.3-.072-.496-.056-.17-.317-.744-1.008-.744v2zm-.92-.76c0 .05-.008-.02.031-.136a.891.891 0 01.217-.346.952.952 0 01.672-.278v2c.69 0 .952-.573 1.008-.744.066-.196.072-.387.072-.496h-2zm.92-.76c-.82 0-1.452-.013-1.905-.038l-.11 1.997c.506.028 1.18.041 2.015.041v-2zm-1.946-.04l-2.88-.04-.028 2 2.88.04.028-2zm-2.909-.04l-2.76.04.03 2 2.76-.04-.03-2zm-2.8.041a37.34 37.34 0 01-1.945.039v2c.86 0 1.548-.013 2.055-.041l-.11-1.997zM56.907 27c.269 0 .507.113.672.278.14.14.196.285.217.346.038.116.03.187.03.136h-2c0 .11.007.3.072.496.057.17.318.744 1.009.744v-2zm.92.76c0-.05.007.02-.032.136a.889.889 0 01-.216.346.952.952 0 01-.672.278v-2c-.691 0-.952.573-1.009.744a1.578 1.578 0 00-.071.496h2zm-.92.76c1.03 0 1.89-.065 2.508-.236l-.536-1.927c-.343.095-.976.163-1.972.163v2zm2.494-.233c.71-.187 1.35-.598 1.665-1.333l-1.838-.788c-.005.011-.033.107-.336.187l.51 1.934zm1.652-1.304c.28-.6.374-1.377.374-2.223h-2c0 .754-.093 1.177-.186 1.377l1.812.846zm.374-2.223V6.24h-2v18.52h2zm0-18.52c0-.838-.091-1.619-.386-2.207l-1.789.894c.08.158.175.551.175 1.313h2zm-.361-2.154c-.306-.715-.912-1.135-1.611-1.33l-.536 1.928c.26.072.295.158.309.19l1.838-.788zm-1.563-1.315c-.64-.213-1.52-.291-2.556-.291v2c.991 0 1.603.082 1.924.189l.632-1.898zm-2.556-.291c.269 0 .507.113.672.278a.89.89 0 01.217.346c.038.116.03.187.03.136h-2c0 .11.007.3.072.496.057.17.318.744 1.009.744v-2zm.92.76c0-.05.007.02-.032.136a.89.89 0 01-.216.346.952.952 0 01-.672.278V2c-.691 0-.952.573-1.009.744a1.578 1.578 0 00-.071.496h2zm-.94.76l2.04.04.04-2-2.04-.04-.04 2zm2.012.039c1.127.054 2.038.081 2.728.081v-2c-.644 0-1.52-.026-2.633-.079L58.94 4.04zm2.728.081c.794 0 1.784-.027 2.965-.081l-.09-1.998a65.48 65.48 0 01-2.875.079v2zm2.94-.08l1.92-.04-.041-2-1.92.04.042 2zm1.9-.04a.952.952 0 01-.672-.278.892.892 0 01-.217-.346c-.039-.116-.031-.187-.031-.136h2c0-.11-.006-.3-.072-.496C67.46 2.574 67.2 2 66.508 2v2zm-.92-.76c0 .05-.008-.02.031-.136a.892.892 0 01.217-.346.952.952 0 01.672-.278v2c.69 0 .952-.573 1.008-.744.066-.196.072-.387.072-.496h-2zm.92-.76c-1.04 0-1.925.08-2.581.286l.602 1.908c.357-.113.993-.194 1.979-.194v-2zm-2.596.291c-.7.233-1.27.68-1.59 1.366l1.812.846c.053-.114.149-.227.41-.314l-.632-1.898zm-1.603 1.395c-.244.568-.321 1.324-.321 2.154h2c0-.77.082-1.187.159-1.366l-1.838-.788zm-.321 2.154v8.24h2V6.32h-2zm1 9.24h15.36v-2h-15.36v2zm16.36-1V6.32h-2v8.24h2zm0-8.24c0-.838-.091-1.619-.386-2.207l-1.789.894c.08.158.175.551.175 1.313h2zm-.352-2.131c-.288-.722-.867-1.183-1.572-1.418l-.632 1.898c.254.085.316.184.347.262l1.857-.742zM77.424 2.77c-.641-.213-1.537-.291-2.596-.291v2c1.021 0 1.645.082 1.964.189l.632-1.898zm-2.596-.291a.908.908 0 01.804.493.739.739 0 01.075.252v.015h-2c0 .131.012.378.136.627a1.092 1.092 0 00.984.613v-2zm.88.76v.015l-.006.044a.738.738 0 01-.07.208.908.908 0 01-.804.493V2a1.092 1.092 0 00-.985.613 1.399 1.399 0 00-.135.627h2zm-.901.76l1.92.04.042-2-1.92-.04-.042 2zm1.895.039a66.99 66.99 0 002.966.081v-2c-.753 0-1.71-.026-2.875-.079l-.09 1.998zm2.966.081c.742 0 1.68-.027 2.807-.081L82.38 2.04a59.242 59.242 0 01-2.712.079v2zm2.78-.08l1.96-.04-.04-2-1.96.04.04 2zm1.94-.04a.908.908 0 01-.805-.493.738.738 0 01-.075-.252V3.24h2c0-.131-.011-.378-.136-.627A1.092 1.092 0 0084.388 2v2zm-.88-.76v-.015l.006-.044a.738.738 0 01.07-.208.908.908 0 01.804-.493v2a1.092 1.092 0 00.984-.613c.125-.249.136-.496.136-.627h-2zm.88-.76c-1.036 0-1.917.078-2.556.291l.632 1.898c.32-.107.933-.189 1.924-.189v-2zm-2.508.276c-.695.194-1.289.602-1.627 1.277l1.79.894c.035-.071.107-.17.372-.243l-.535-1.928zm-1.651 1.33c-.244.568-.321 1.324-.321 2.154h2c0-.77.082-1.187.159-1.366l-1.838-.788zm-.321 2.154v18.52h2V6.24h-2zm0 18.52c0 .837.08 1.591.311 2.171l1.857-.742c-.088-.22-.168-.666-.168-1.429h-2zm.345 2.247c.338.675.932 1.083 1.627 1.276l.535-1.927c-.265-.073-.337-.172-.373-.243l-1.789.894zm1.627 1.276c.617.172 1.477.237 2.508.237v-2c-.996 0-1.63-.068-1.973-.163l-.535 1.927zM106.34 2.92l-.18.984.18-.984zm3.12 1.04l-.505.863.048.028.051.023.406-.914zm.44.36l-.928.371.049.123.079.106.8-.6zm.16.6l-.996.09.001.008.995-.098zm.44 4.48h1v-.049l-.004-.049-.996.098zm-.2.16v1h.099l.097-.02-.196-.98zm-.24-.12l-.961.275.006.02.007.021.948-.316zm-3.28-4.52l-.531.847.008.005.009.005.514-.857zm-11.2-.12l.502.865.01-.006-.512-.859zm-3.52 3.76l-.891-.453.891.453zm.28 12.52l-.9.434.004.009.896-.443zm4.16 5l-.577.816.006.004.571-.82zm10.68.28l.593.806.01-.008-.603-.798zm3.24-4.88l.947.323.053-.157v-.166h-1zm.36-.08l-.447.894.064.032.067.023.316-.949zm.12.12l.993.123.007-.061v-.062h-1zm-.56 4.52l.987.164.003-.02.003-.021-.993-.123zm-.2.64l-.8-.6-.016.022-.016.023.832.555zm-.44.28l.389.921.009-.003.009-.004-.407-.914zm-15.64-.4l-.522.853.006.004.007.003.51-.86zm-4.72-4.96l.892-.452-.892.452zm.52-12.92l.82.573-.82-.573zm5.4-4.52l.43.903-.43-.903zm7.2-.6c1.218 0 2.45.114 3.7.344l.361-1.968a22.445 22.445 0 00-4.061-.376v2zm3.7.344c1.242.228 2.158.545 2.795.919l1.011-1.726c-.91-.533-2.074-.909-3.445-1.16l-.361 1.967zm2.894.97c.068.03.08.044.063.03a.533.533 0 01-.145-.213l1.857-.742c-.204-.51-.663-.77-.962-.903l-.813 1.828zm.046.046a.573.573 0 01-.062-.104c-.007-.016-.007-.021-.004-.008.003.012.009.034.014.07.006.035.012.079.016.133l1.992-.182c-.027-.303-.093-.758-.356-1.109l-1.6 1.2zm-.035.098l.44 4.48 1.991-.196-.44-4.48-1.991.196zM109.5 9.4a.88.88 0 01.326-.68.644.644 0 01.278-.14l.392 1.96c.141-.027.368-.09.579-.26.252-.2.425-.513.425-.88h-2zm.8-.84c.019 0 .137 0 .288.076.181.09.345.26.421.488l-1.897.632c.236.71.917.804 1.188.804v-2zm.722.605c-.646-2.26-1.878-3.993-3.727-5.102l-1.029 1.714c1.351.811 2.305 2.09 2.833 3.938l1.923-.55zm-3.71-5.092c-1.77-1.11-3.926-1.633-6.412-1.633v2c2.208 0 3.972.464 5.349 1.327l1.063-1.694zM100.9 2.44c-2.18 0-4.136.49-5.832 1.501l1.025 1.718c1.343-.802 2.934-1.219 4.807-1.219v-2zm-5.82 1.495c-1.695.98-3 2.38-3.911 4.172l1.783.906c.743-1.461 1.783-2.568 3.13-3.348l-1.003-1.73zm-3.911 4.172c-.91 1.789-1.349 3.829-1.349 6.093h2c0-2.002.388-3.723 1.132-5.187l-1.783-.906zm-1.35 6.093c0 2.62.537 5.063 1.62 7.314l1.802-.867c-.945-1.964-1.422-4.108-1.422-6.447h-2zm1.624 7.323c1.105 2.24 2.596 4.04 4.479 5.373l1.155-1.632c-1.584-1.121-2.867-2.653-3.84-4.627l-1.794.886zm4.485 5.377c1.917 1.337 4.008 2.02 6.251 2.02v-2c-1.81 0-3.505-.543-5.108-1.66l-1.143 1.64zm6.251 2.02c2.112 0 3.992-.576 5.593-1.755l-1.185-1.61c-1.226.901-2.68 1.365-4.408 1.365v2zm5.603-1.762c1.615-1.219 2.792-3.036 3.584-5.355l-1.893-.646c-.702 2.054-1.684 3.49-2.896 4.405l1.205 1.596zm3.637-5.678a.895.895 0 01-.36.71.811.811 0 01-.48.17v-2c-.149 0-.444.023-.72.23-.33.248-.44.606-.44.89h2zm-.84.88a.572.572 0 01-.247-.066l.895-1.788a1.444 1.444 0 00-.648-.146v2zm-.116-.011a.786.786 0 01-.301-.192.904.904 0 01-.263-.637h2c0-.718-.593-.998-.803-1.069l-.633 1.898zm-.556-.952l-.56 4.52 1.985.246.56-4.52-1.985-.246zm-.554 4.479a2.083 2.083 0 01-.058.266l-.007.021a.476.476 0 01.051-.083l1.6 1.2c.139-.185.217-.39.265-.542.051-.165.091-.347.122-.534l-1.973-.328zm-.046.25a.74.74 0 01.12-.14c.022-.018.033-.024.025-.02a1.685 1.685 0 01-.159.08l.813 1.828c.144-.065.29-.137.42-.22a1.49 1.49 0 00.445-.42l-1.664-1.109zm.003-.087c-2.274.96-4.674 1.441-7.211 1.441v2c2.797 0 5.463-.532 7.989-1.599l-.778-1.842zm-7.211 1.441c-3.069 0-5.561-.614-7.53-1.78l-1.02 1.72c2.352 1.394 5.22 2.06 8.55 2.06v-2zm-7.517-1.773c-1.994-1.221-3.43-2.743-4.35-4.559l-1.785.904c1.107 2.184 2.818 3.969 5.09 5.36l1.045-1.705zm-4.35-4.559a12.8 12.8 0 01-1.413-5.868h-2a14.8 14.8 0 001.628 6.772l1.784-.904zm-1.413-5.868c0-2.256.621-4.254 1.86-6.027l-1.64-1.146c-1.48 2.12-2.22 4.522-2.22 7.173h2zm1.86-6.027c1.256-1.799 2.92-3.194 5.01-4.19l-.86-1.806c-2.389 1.138-4.326 2.755-5.79 4.85l1.64 1.146zm5.01-4.19c2.102-1 4.354-1.503 6.77-1.503v-2c-2.704 0-5.25.564-7.63 1.697l.86 1.806zM137.257 3V2h-.025l.025 1zm-2 1.28l.621.784.01-.008.009-.008-.64-.768zm-1.6 2.16l.908.42.002-.004-.91-.416zm-8.92 19.32l.905.426.003-.007-.908-.419zm-1.52 2.04l-.611-.791-.009.007-.009.007.629.777zm-4.12.16l-.555.832.015.01.014.008.526-.85zm-.4-2.68l-.707-.707-.015.015-.015.016.737.676zm2.28-.08l-.743.669.017.02.019.018.707-.707zm.64 1l-.916.4.003.007.003.007.91-.414zm.36.68l-.832.555.055.082.07.07.707-.707zm1.92-1.36l-.911-.413-.007.017-.007.016.925.38zm1.36-3l.911.413.205-.452-.236-.437-.88.476zm-8.76-16.2l.88-.476-.004-.006-.876.482zm-1.6-2.2l-.685.728.022.02.023.02.64-.768zM113.017 3l.025-1h-.025v1zm1.6.04l.067-.998-.021-.001h-.021l-.025.999zm5.2 0l-.025-1h-.011l-.011.001.047.999zm1.6-.04V2h-.025l.025 1zm-2.24 2.92l-.884.468.006.01.878-.478zm7.44 13.68l-.878.478.955 1.756.832-1.817-.909-.417zm6.12-13.36l.909.416.007-.014.006-.014-.922-.388zm-.44-2.4l-.428.904.428-.904zm-2.36-.84l.025-1h-.025v1zm1.64.04l.059-.998-.017-.001h-.017l-.025.999zm4.12 0l-.025-1-.029.001-.029.002.083.997zm1.56.96a.952.952 0 01-.672-.278.906.906 0 01-.217-.346c-.038-.116-.031-.187-.031-.136h2c0-.11-.006-.3-.071-.496-.057-.17-.318-.744-1.009-.744v2zm-.92-.76c0 .05-.007-.02.031-.136a.906.906 0 01.217-.346.952.952 0 01.672-.278v2c.691 0 .952-.573 1.009-.744.065-.196.071-.387.071-.496h-2zm.92-.76c-.972 0-1.858.38-2.64 1.032l1.28 1.536c.498-.415.946-.568 1.36-.568v-2zm-2.621 1.016c-.791.627-1.412 1.487-1.888 2.528l1.819.832c.377-.826.823-1.405 1.311-1.792l-1.242-1.568zm-1.887 2.525l-8.92 19.32 1.816.838 8.92-19.32-1.816-.838zm-8.917 19.313c-.381.811-.801 1.346-1.226 1.675l1.223 1.582c.748-.578 1.341-1.403 1.813-2.405l-1.81-.852zm-1.244 1.689c-.351.284-.823.457-1.491.457v2c1.039 0 1.98-.28 2.749-.903l-1.258-1.554zm-1.491.457c-.62 0-1.097-.137-1.473-.37l-1.053 1.7c.744.46 1.6.67 2.526.67v-2zm-1.445-.352c-.299-.2-.395-.402-.395-.688h-2c0 .994.464 1.805 1.285 2.352l1.11-1.664zm-.395-.688a.66.66 0 01.177-.484l-1.474-1.352a2.657 2.657 0 00-.703 1.836h2zm.147-.453c.11-.11.257-.187.533-.187v-2c-.737 0-1.416.242-1.947.773l1.414 1.414zm.533-.187c.25 0 .294.066.297.069l1.486-1.338c-.477-.53-1.126-.731-1.783-.731v2zm.333.107c.126.126.277.342.431.694l1.832-.802c-.219-.501-.494-.952-.849-1.306l-1.414 1.414zm.437.707c.143.314.288.596.438.82l1.664-1.109a4.096 4.096 0 01-.281-.539l-1.821.828zm.563.973c.319.319.732.493 1.187.493v-2c.029 0 .074.006.125.027a.312.312 0 01.102.066l-1.414 1.414zm1.187.493c.629 0 1.131-.317 1.495-.712.354-.383.635-.895.87-1.468l-1.85-.76c-.192.467-.364.735-.49.872-.115.125-.12.068-.025.068v2zm2.351-2.147l1.36-3-1.822-.826-1.36 3 1.822.826zm1.329-3.889l-8.76-16.2-1.759.952 8.76 16.2 1.759-.952zm-8.764-16.206c-.6-1.092-1.207-1.962-1.836-2.486l-1.28 1.536c.331.276.791.873 1.364 1.914l1.752-.964zm-1.79-2.446c-.688-.647-1.586-.912-2.566-.912v2c.621 0 .975.162 1.195.368l1.371-1.456zm-2.566-.912c.269 0 .507.113.672.278a.88.88 0 01.217.346c.039.116.031.187.031.136h-2c0 .11.006.3.072.496.056.17.317.744 1.008.744v-2zm.92.76c0-.05.008.02-.031.136a.88.88 0 01-.217.346.952.952 0 01-.672.278V2c-.691 0-.952.573-1.008.744a1.565 1.565 0 00-.072.496h2zm-.945.76l1.6.04.05-2-1.6-.04-.05 2zm1.559.038c.813.054 1.517.082 2.106.082v-2c-.53 0-1.187-.025-1.973-.078l-.133 1.996zm2.106.082c1.005 0 2.074-.027 3.208-.081l-.095-1.998a65.676 65.676 0 01-3.113.079v2zm3.185-.08l1.6-.04-.05-2-1.6.04.05 2zm1.575-.04a.907.907 0 01-.804-.493.728.728 0 01-.07-.208l-.005-.044-.001-.015h2c0-.131-.011-.378-.135-.627a1.092 1.092 0 00-.985-.613v2zm-.88-.76l.001-.015.005-.044a.728.728 0 01.07-.208.907.907 0 01.804-.493v2a1.092 1.092 0 00.985-.613c.124-.249.135-.496.135-.627h-2zm.88-.76c-.919 0-1.758.111-2.403.438a2.23 2.23 0 00-.87.756 2.022 2.022 0 00-.327 1.126h2c0-.048.009-.045-.001-.029-.008.011.007-.02.104-.07.222-.112.683-.221 1.497-.221v-2zm-3.6 2.32c0 .537.209 1.083.476 1.588l1.768-.936c-.213-.402-.244-.602-.244-.652h-2zm.482 1.598l7.44 13.68 1.757-.956-7.44-13.68-1.757.956zm9.227 13.619l6.12-13.36-1.818-.833-6.12 13.36 1.818.832zm6.133-13.389c.233-.554.398-1.112.398-1.628h-2c0 .124-.048.393-.241.852l1.843.776zM134.057 5c0-.43-.104-.858-.353-1.238a2.347 2.347 0 00-.979-.826l-.856 1.808c.123.058.155.104.162.114.004.007.026.04.026.142h2zm-1.332-2.064c-.713-.338-1.683-.456-2.788-.456v2c1.029 0 1.632.122 1.932.264l.856-1.808zm-2.788-.456a.907.907 0 01.805.493.75.75 0 01.075.252v.015h-2c0 .131.011.378.136.627a1.092 1.092 0 00.984.613v-2zm.88.76v.015l-.006.044a.75.75 0 01-.069.208.907.907 0 01-.805.493V2a1.092 1.092 0 00-.984.613 1.393 1.393 0 00-.136.627h2zm-.904.76l1.64.04.049-2-1.64-.04-.049 2zm1.605.038c.923.055 1.769.082 2.539.082v-2c-.723 0-1.53-.026-2.421-.078l-.118 1.996zm2.539.082a21.5 21.5 0 001.723-.083l-.166-1.994a19.21 19.21 0 01-1.557.077v2zm1.666-.08l1.56-.04-.051-2-1.56.04.051 2zm2.187 24.08l-.569.822.014.01.015.01.54-.842zm5.96-5.32l-.869-.494-.003.004.872.49zm2.52-7.32l-.98-.198-.002.009.982.189zm.08-11.12l-.74.673.008.008.008.009.724-.69zm13.72-.64l.268.964.024-.007.025-.008-.317-.949zm-1 .76l-.894-.447-.013.026-.012.027.919.394zm0 22.08l-.928.371.015.039.019.037.894-.447zm1.28 1.4l.056-.998-.021-.002h-.02l-.015 1zm-2.76-.04l.015-1h-.029l.014 1zm-2.84.04l-.014-1h-.02l-.021.002.055.998zm.28-.64l-.267-.963-.008.002-.007.002.282.959zm.96-.76l-.906-.423-.007.014-.006.015.919.394zm.12-21.96l.94-.342-.94.342zm-6.84-.48l.317.949-.317-.949zm-.88.88l.916.4.005-.01.004-.01-.925-.38zm-1.12 11.08l-.986-.167-.001.008.987.159zm-2.8 8.68l-.88-.474-.004.008.884.466zm-5.24 2.72c-.455 0-.731-.093-.899-.201l-1.081 1.682c.578.372 1.262.519 1.98.519v-2zm-.87-.182a.135.135 0 01-.053-.06.58.58 0 01-.037-.238h-2c0 .76.278 1.476.951 1.942l1.139-1.644zm-.09-.298c0-.102.017-.145.02-.151.001-.001-.002 0 .007-.007.038-.028.215-.122.693-.122v-2c-.668 0-1.351.12-1.887.518-.591.44-.833 1.088-.833 1.762h2zm.72-.28h.84v-2h-.84v2zm.84 0c2.036 0 3.613-1.331 4.792-3.43l-1.744-.98c-1.007 1.795-2.044 2.41-3.048 2.41v2zm4.79-3.426c1.187-2.092 2.058-4.642 2.632-7.625l-1.964-.378c-.545 2.83-1.355 5.16-2.407 7.015l1.739.988zm2.631-7.616c.598-2.966.899-5.846.899-8.638h-2c0 2.648-.285 5.395-.86 8.242l1.961.396zm.899-8.638c0-1.34-.286-2.54-1.076-3.37l-1.448 1.38c.277.29.524.876.524 1.99h2zm-1.06-3.353c-.841-.925-2.29-1.207-3.9-1.207v2c1.537 0 2.195.305 2.42.553l1.48-1.346zm-3.9-1.207a.91.91 0 01.805.493.75.75 0 01.069.208c.004.02.005.035.006.044v.015h-2c0 .131.011.378.136.627a1.092 1.092 0 00.984.613v-2zm.88.76v.015c-.001.01-.002.024-.006.044a.75.75 0 01-.069.208.9.9 0 01-.805.493V2a1.092 1.092 0 00-.984.613 1.393 1.393 0 00-.136.627h2zm-.88.76h19.12V2h-19.12v2zm19.12 0a.907.907 0 01-.804-.493.763.763 0 01-.07-.208l-.005-.044-.001-.015h2c0-.131-.011-.378-.135-.627A1.095 1.095 0 00162.43 2v2zm-.88-.76l.001-.015.005-.044a.763.763 0 01.07-.208.907.907 0 01.804-.493v2a1.095 1.095 0 00.985-.613c.124-.249.135-.496.135-.627h-2zm.88-.76c-1.035 0-1.916.078-2.556.291l.633 1.898c.32-.107.932-.189 1.923-.189v-2zm-2.507.276c-.695.194-1.29.602-1.627 1.277l1.789.894c.035-.071.108-.17.373-.243l-.535-1.928zm-1.652 1.33c-.243.568-.321 1.324-.321 2.154h2c0-.77.083-1.187.159-1.366l-1.838-.788zm-.321 2.154v18.52h2V6.24h-2zm0 18.52c0 .837.08 1.591.312 2.171l1.857-.742c-.088-.22-.169-.666-.169-1.429h-2zm.346 2.247c.337.675.932 1.083 1.627 1.276l.535-1.927c-.265-.073-.338-.172-.373-.243l-1.789.894zm1.627 1.276c.617.172 1.477.237 2.507.237v-2c-.996 0-1.629-.068-1.972-.163l-.535 1.927zm2.507.237a.907.907 0 01-.804-.493.762.762 0 01-.07-.208l-.005-.044-.001-.015h2c0-.131-.011-.378-.135-.627a1.095 1.095 0 00-.985-.613v2zm-.88-.76l.001-.015.005-.044a.762.762 0 01.07-.208.907.907 0 01.804-.493v2a1.095 1.095 0 00.985-.613c.124-.249.135-.496.135-.627h-2zm.88-.76a36.66 36.66 0 01-1.904-.038l-.111 1.997a38.31 38.31 0 002.015.041v-2zm-1.945-.04l-2.76-.04-.029 2 2.76.04.029-2zm-2.789-.04l-2.84.04.028 2 2.84-.04-.028-2zm-2.881.041c-.453.026-1.085.039-1.905.039v2c.834 0 1.509-.013 2.016-.041l-.111-1.997zM152.91 27a.91.91 0 01.805.493.749.749 0 01.069.208c.004.02.005.035.006.044v.015h-2c0 .131.011.378.136.627a1.092 1.092 0 00.984.613v-2zm.88.76v.015c-.001.01-.002.024-.006.044a.749.749 0 01-.069.208.9.9 0 01-.805.493v-2a1.092 1.092 0 00-.984.613 1.393 1.393 0 00-.136.627h2zm-.88.76c1.05 0 1.921-.064 2.522-.24l-.564-1.92c-.305.09-.927.16-1.958.16v2zm2.508-.236c.699-.195 1.305-.615 1.611-1.33l-1.838-.788c-.013.032-.048.118-.308.19l.535 1.927zm1.598-1.301c.281-.6.374-1.377.374-2.223h-2c0 .754-.093 1.177-.186 1.377l1.812.846zm.374-2.223V6.4h-2v18.36h2zm0-18.36c0-.47-.013-.878-.044-1.219-.028-.322-.077-.65-.176-.923l-1.879.684.007.027.018.085c.013.075.027.175.038.305.023.26.036.604.036 1.041h2zm-.22-2.142c-.252-.692-.827-1.062-1.45-1.196l-.419 1.956c.076.016.081.031.055.011a.195.195 0 01-.041-.044.166.166 0 01-.024-.043l1.879-.684zm-1.45-1.196c-.494-.106-1.361-.142-2.49-.142v2c1.165 0 1.818.044 2.071.098l.419-1.956zm-2.49-.142h-2.04v2h2.04v-2zm-2.04 0c-.829 0-1.56.066-2.116.251l.633 1.898c.243-.082.712-.149 1.483-.149v-2zm-2.116.251c-.722.24-1.211.775-1.488 1.448l1.849.762c.096-.233.193-.286.272-.312l-.633-1.898zm-1.48 1.428c-.274.626-.364 1.48-.364 2.441h2c0-.906.097-1.411.196-1.64l-1.832-.8zm-.364 2.441c0 2.653-.273 5.61-.826 8.873l1.972.334c.568-3.35.854-6.42.854-9.207h-2zm-.827 8.88c-.519 3.218-1.422 6.001-2.693 8.367l1.761.947c1.395-2.595 2.359-5.598 2.907-8.995l-1.975-.318zm-2.697 8.374c-1.191 2.26-2.649 3.186-4.356 3.186v2c2.667 0 4.703-1.554 6.125-4.254l-1.769-.932zm38.4-8.894l.583-.813-.583.813zm1.08 9.08l-.861-.509-.004.008-.004.007.869.494zm-2.84 2.72l.463.887-.463-.887zm-6.68.84l.083-.997h-.011l-.072.997zm-1.44-.08l-.047.999h.002l.045-.999zm-1.88-.04v-1h-.015l.015 1zm-2.64.04l-.015-1h-.019l-.018.001.052.999zm-2.08-.44v1h.026l-.026-1zm2.24-.24l-.267-.963-.008.002-.007.002.282.959zm1-.76l-.894-.447.894.447zm0-22.04l-.919.394.012.027.013.026.894-.447zm-.96-.76l-.282.96.007.001.008.003.267-.964zm-2.2-.24l.027-1h-.027v1zm0-.48l.021-1h-.021v1zm1.92.04l.05-.999h-.029l-.021.999zm5.64 0l-.02-1h-.013l-.012.001.045.999zm1.96-.04V2h-.02l.02 1zm0 .48v-1h-.025l.025 1zm-3.28 1.04l-.906-.423-.007.014-.006.015.919.394zm-.24 9.8h-1v1.211l1.19-.23-.19-.981zm8.28 11.68l-.716-.697h-.001l.717.697zm-.16-9.76l-.698.716.698-.716zm-8.12-1.16l-.204-.979-.796.166v.813h1zm.72 11.72l.665-.747-.665.747zm3.76-11.92c2.416 0 4.156.485 5.338 1.333l1.165-1.626c-1.645-1.179-3.852-1.707-6.503-1.707v2zm5.338 1.333c1.065.764 1.702 2.08 1.702 4.227h2c0-2.546-.776-4.59-2.537-5.853l-1.165 1.626zm1.702 4.227c0 1.362-.309 2.53-.901 3.531l1.722 1.018c.795-1.345 1.179-2.871 1.179-4.549h-2zm-.909 3.546c-.569 1.002-1.373 1.774-2.433 2.327l.925 1.774c1.392-.727 2.482-1.768 3.247-3.113l-1.739-.988zm-2.433 2.327c-1.066.556-2.303.847-3.738.847v2c1.712 0 3.275-.35 4.663-1.073l-.925-1.774zm-3.738.847a29.5 29.5 0 01-2.397-.116l-.166 1.992c.978.082 1.834.124 2.563.124v-2zm-2.408-.117a59.34 59.34 0 00-1.466-.082l-.091 1.998c.582.026 1.053.053 1.414.079l.143-1.995zm-1.464-.082a40.953 40.953 0 00-1.928-.041v2c.681 0 1.292.013 1.833.039l.095-1.998zm-1.943-.04l-2.64.04.03 1.999 2.64-.04-.03-2zm-2.677.04c-.481.026-1.155.039-2.028.039v2c.887 0 1.6-.013 2.133-.041l-.105-1.998zm-2.028.039c.269 0 .507.113.672.278a.88.88 0 01.217.346c.039.116.031.187.031.136h-2c0 .11.006.3.072.496.056.17.317.744 1.008.744v-2zm.92.76c0-.05.008.02-.031.136a.88.88 0 01-.217.346.953.953 0 01-.672.278v-2c-.691 0-.952.573-1.008.744a1.565 1.565 0 00-.072.496h2zm-.894.76c1.048-.027 1.908-.108 2.496-.28l-.564-1.92c-.318.094-.952.174-1.983.2l.051 2zm2.482-.276c.695-.194 1.289-.602 1.627-1.277l-1.789-.894c-.036.071-.108.17-.373.244l.535 1.927zm1.627-1.277c.294-.588.385-1.369.385-2.207h-2c0 .762-.095 1.155-.174 1.313l1.789.894zm.385-2.207V6.24h-2v18.52h2zm0-18.52c0-.838-.091-1.619-.385-2.207l-1.789.894c.079.158.174.551.174 1.313h2zm-.361-2.154c-.306-.715-.912-1.135-1.611-1.33l-.535 1.928c.26.072.295.158.308.19l1.838-.788zm-1.597-1.325c-.586-.173-1.431-.254-2.455-.28l-.053 1.999c1.002.026 1.624.105 1.944.2l.564-1.92zm-2.482-.281a.907.907 0 01.805.493.75.75 0 01.075.252v.015h-2c0 .131.011.378.136.627a1.092 1.092 0 00.984.613v-2zm.88.76v.015l-.006.044a.75.75 0 01-.069.208.907.907 0 01-.805.493V2a1.092 1.092 0 00-.984.613 1.393 1.393 0 00-.136.627h2zm-.901.76l1.92.04.042-2-1.92-.04-.042 2zm1.891.039a56.56 56.56 0 002.77.081v-2c-.724 0-1.613-.026-2.67-.079l-.1 1.998zm2.77.081c.794 0 1.784-.027 2.966-.081l-.091-1.998a65.476 65.476 0 01-2.875.079v2zm2.941-.08l1.96-.04-.041-2-1.96.04.041 2zm1.939-.04a.952.952 0 01-.672-.278.887.887 0 01-.216-.346c-.039-.116-.032-.187-.032-.136h2c0-.11-.006-.3-.071-.496-.057-.17-.318-.744-1.009-.744v2zm-.92-.76c0 .05-.007-.02.032-.136a.887.887 0 01.216-.346.952.952 0 01.672-.278v2c.691 0 .952-.573 1.009-.744.065-.196.071-.387.071-.496h-2zm.895-.76c-1.054.027-1.917.108-2.522.276l.535 1.928c.355-.1 1.011-.178 2.038-.204l-.051-2zm-2.522.276c-.721.2-1.312.64-1.639 1.341l1.812.846c.047-.1.123-.193.362-.26l-.535-1.927zm-1.652 1.37c-.244.57-.321 1.343-.321 2.194h2c0-.802.084-1.23.159-1.406l-1.838-.788zm-.321 2.194v8h2v-8h-2zm1.19 8.982a22.604 22.604 0 014.29-.422v-2c-1.533 0-3.09.153-4.669.458l.379 1.964zm3.45 13.138c2.271 0 4.148-.499 5.357-1.743l-1.434-1.394c-.657.676-1.873 1.137-3.923 1.137v2zm5.357-1.743c1.216-1.25 1.723-3.087 1.723-5.297h-2c0 1.95-.452 3.179-1.156 3.903l1.433 1.394zm1.723-5.297c0-2.51-.552-4.56-1.902-5.876l-1.396 1.432c.784.764 1.298 2.155 1.298 4.444h2zm-1.902-5.876c-1.312-1.28-3.146-1.844-5.338-1.844v2c1.862 0 3.121.476 3.942 1.276l1.396-1.432zm-5.338-1.844c-1.123 0-2.353.144-3.684.421l.408 1.958c1.229-.256 2.32-.379 3.276-.379v-2zm-4.48 1.4v9.68h2v-9.68h-2zm0 9.68c0 1.087.28 2.098 1.056 2.787l1.329-1.494c-.185-.164-.385-.513-.385-1.293h-2zm1.056 2.787c.42.373.97.585 1.54.71.582.127 1.269.183 2.044.183v-2c-.691 0-1.224-.05-1.616-.137-.403-.088-.579-.197-.639-.25l-1.329 1.494zM186.143 5l-.707-.707-.006.005-.005.006.718.696zm-1.8 4.36l-.984-.179-.016.089v.09h1zm-.44 0l-.994-.11-.006.055v.055h1zm.36-3.76l.996.086-.996-.086zm2.8-2.6l.035-1h-.035v1zm13.04.04l-.015-1h-.015l.03 1zm2.72-.04V2h-.015l.015 1zm2.12-.2l-.268-.964-.007.002-.007.003.282.959zm.92-.8l.948.316.013-.036.009-.037-.97-.243zm.44 0l.995.103.005-.051V2h-1zm-.24 3.52l-.999-.05.999.05zm-.6 3.84h1v-.02l-.001-.018-.999.038zM204.183 5l-.741.672.005.005.006.006.73-.683zm-7.44 21.56l.894-.447-.894.447zm1.08.76l-.243.97.243-.97zm.4.64l.05-.999h-.037l-.013.999zm-3.12-.04l.013-1h-.027l.014 1zm-3 .04l-.014-1h-.018l-.018.001.05.999zm.32-.64l.242.97-.242-.97zm1.08-.76l-.883-.47-.006.011-.006.012.895.447zm.04-22.04l-.881.474.008.015.009.015.864-.504zm-1.04-.64l-.206.979.025.005.025.004.156-.988zm-2.56-1.16c-1.84 0-3.403.469-4.507 1.573l1.414 1.414c.602-.602 1.572-.987 3.093-.987v-2zm-4.518 1.584c-1.034 1.067-1.681 2.758-2.066 4.877l1.968.358c.361-1.988.915-3.204 1.534-3.843l-1.436-1.392zm-2.082 5.056a.95.95 0 01.278-.672.887.887 0 01.346-.217c.116-.038.187-.031.136-.031v2c.109 0 .3-.006.496-.071.171-.057.744-.318.744-1.009h-2zm.76-.92h.002a.318.318 0 01.042.004.74.74 0 01.177.048.913.913 0 01.36.263c.145.174.219.39.219.605h-2c0 .241.082.48.244.675.147.177.319.267.434.313.214.086.418.092.522.092v-2zm.794 1.03c.108-.971.228-2.234.362-3.784l-1.992-.172a160.57 160.57 0 01-.358 3.736l1.988.22zm.362-3.784c.134-1.553.204-2.748.204-3.566h-2c0 .729-.064 1.854-.196 3.394l1.992.172zm.204-3.566a.805.805 0 01-.243.557.803.803 0 01-.557.243v-2a1.2 1.2 0 00-.857.343 1.2 1.2 0 00-.343.857h2zm-.8.8a.74.74 0 01-.46-.182.82.82 0 01-.3-.618h2c0-.274-.091-.644-.42-.918a1.268 1.268 0 00-.82-.282v2zm-.76-.8c0 .37.12.723.361 1.018.227.278.521.454.802.568.542.221 1.239.294 1.997.294V2c-.682 0-1.065-.074-1.243-.146-.079-.033-.056-.04-.008.018a.413.413 0 01.091.248h-2zM187.028 4c2.281.08 4.974.12 8.075.12v-2c-3.086 0-5.753-.04-8.005-.12l-.07 2zm8.075.12c1.584 0 3.261-.027 5.03-.08l-.06-2c-1.752.054-3.408.08-4.97.08v2zm5.015-.08l2.72-.04-.03-2-2.72.04.03 2zm2.705-.04c.978 0 1.805-.065 2.402-.24l-.564-1.92c-.31.092-.897.16-1.838.16v2zm2.387-.236c.734-.204 1.343-.671 1.601-1.448l-1.897-.632a.12.12 0 01-.037.061.533.533 0 01-.202.091l.535 1.928zm1.623-1.521a.81.81 0 01-.335.47.726.726 0 01-.395.127v-2c-.19 0-.458.037-.715.208a1.19 1.19 0 00-.495.71l1.94.485zm-.73.597a.776.776 0 01-.475-.18.857.857 0 01-.325-.66h2c0-.274-.097-.638-.425-.9a1.231 1.231 0 00-.775-.26v2zm-.795-.943c-.083.8-.164 1.995-.244 3.572l1.998.102c.079-1.57.158-2.722.236-3.468l-1.99-.206zm-.244 3.572a80.213 80.213 0 00-.121 3.891h2c0-.963.039-2.224.119-3.79l-1.998-.1zm-.121 3.891a.95.95 0 01.278-.672.887.887 0 01.346-.217c.116-.038.187-.031.136-.031v2c.109 0 .3-.006.496-.071.171-.057.744-.318.744-1.009h-2zm.76-.92c-.051 0 .02-.007.136.031a.89.89 0 01.346.217.952.952 0 01.278.672h-2c0 .69.573.952.744 1.009.196.065.387.071.496.071v-2zm.759.882c-.082-2.142-.521-3.906-1.549-5.005l-1.46 1.366c.518.554.933 1.697 1.011 3.715l1.998-.076zm-1.538-4.994c-1.046-1.154-2.666-1.608-4.581-1.608v2c1.658 0 2.598.4 3.099.952l1.482-1.344zm-4.581-1.608c-1.203 0-2.148.051-2.766.181l.412 1.958c.395-.084 1.157-.139 2.354-.139v-2zm-2.766.181c-.698.147-1.347.503-1.715 1.185l1.761.948c.006-.011.05-.109.366-.175l-.412-1.958zm-1.715 1.185c-.313.581-.399 1.386-.399 2.234h2c0-.805.1-1.174.16-1.286l-1.761-.948zm-.399 2.234v18.44h2V6.32h-2zm0 18.44c0 .858.09 1.656.385 2.247l1.789-.894c-.077-.155-.174-.558-.174-1.353h-2zm.385 2.247c.356.711 1.011 1.103 1.732 1.283l.485-1.94c-.345-.087-.41-.202-.428-.237l-1.789.894zm1.732 1.283c.659.165 1.603.23 2.763.23v-2c-1.133 0-1.87-.068-2.278-.17l-.485 1.94zm2.763.23a.907.907 0 01-.805-.493.749.749 0 01-.075-.252v-.015h2c0-.131-.011-.378-.136-.627a1.092 1.092 0 00-.984-.613v2zm-.88-.76v-.015l.006-.044a.749.749 0 01.069-.208.907.907 0 01.805-.493v2a1.092 1.092 0 00.984-.613c.125-.249.136-.496.136-.627h-2zm.88-.76c-.873 0-1.561-.013-2.07-.039l-.1 1.998c.557.028 1.282.041 2.17.041v-2zm-2.107-.04l-3.12-.04-.026 2 3.12.04.026-2zm-3.147-.04l-3 .04.027 2 3-.04-.027-2zm-3.036.041a45.67 45.67 0 01-2.15.039v2c.939 0 1.692-.013 2.25-.041l-.1-1.998zm-2.15.039c.269 0 .507.113.672.278.14.14.196.285.216.346.039.116.032.187.032.136h-2c0 .11.006.3.071.496.057.17.318.744 1.009.744v-2zm.92.76c0-.05.007.02-.032.136a.886.886 0 01-.216.346.953.953 0 01-.672.278v-2c-.691 0-.952.573-1.009.744a1.588 1.588 0 00-.071.496h2zm-.92.76c1.16 0 2.103-.065 2.762-.23l-.485-1.94c-.407.102-1.144.17-2.277.17v2zm2.762-.23c.721-.18 1.377-.572 1.732-1.283l-1.789-.894c-.017.035-.082.15-.428.237l.485 1.94zm1.72-1.26c.329-.616.438-1.414.438-2.27h-2c0 .744-.105 1.146-.203 1.33l1.765.94zm.438-2.27V6.24h-2v18.52h2zm0-18.52c0-.835-.083-1.652-.416-2.224l-1.728 1.008.009.02a.725.725 0 01.023.063c.018.057.037.137.055.244.035.216.057.509.057.889h2zm-.4-2.194c-.377-.701-1.051-1.041-1.764-1.154l-.312 1.976a.76.76 0 01.272.084c.028.017.036.03.043.042l1.761-.948zM192.709 2.9c-.618-.13-1.563-.181-2.766-.181v2c1.197 0 1.958.055 2.354.139l.412-1.958zm37.813 25.019l.05-.999-.05.999zm-4.56 0l-.059-.998h-.004l.063.998zm.2-.68l-.381-.925.381.925zm.16-2.68l.912-.41-.003-.007-.004-.008-.905.425zm-4.6-9.8l.905-.425-.27-.575h-.635v1zm-7.56 0v-1h-.664l-.258.611.922.389zm-3.44 8.16l-.922-.389-.003.008.925.381zm1.28 5l.059-.998h-.007l-.052.998zm-5.04 0l-.059-.998h-.008l.067.998zm-.12-.8l.466.885.008-.004.008-.005-.482-.876zm1.48-1.48l-.832-.555-.005.008.837.547zm1.56-3.08l-.921-.39-.001.003.922.387zm8.44-19.92l-.832-.555-.052.078-.037.087.921.39zm.52 0l-.949.316.019.058.027.055.903-.429zm9.44 19.88l.909-.418-.006-.01-.903.428zm2.32 4l-.735.678.007.008.006.006.722-.692zm-16.08-12.6l-.922-.388-.584 1.388h1.506v-1zm6.8 0v1h1.58l-.676-1.428-.904.428zm-3.6-7.6l.904-.428-.958-2.021-.868 2.06.922.389zm15.16 22.2a.868.868 0 01-.712-.385.787.787 0 01-.114-.263.536.536 0 01-.014-.112h2c0-.16-.021-.454-.208-.735a1.134 1.134 0 00-.952-.505v2zm-.84-.76a.54.54 0 01.014-.112.787.787 0 01.114-.263.868.868 0 01.712-.385v2c.345 0 .717-.153.952-.505.187-.28.208-.576.208-.735h-2zm.84-.76c-.48 0-1.246-.026-2.31-.079l-.1 1.998a53.89 53.89 0 002.41.081v-2zm-2.31-.079a53.145 53.145 0 00-2.37-.081v2c.453 0 1.205.026 2.27.079l.1-1.998zm-2.37-.081c-.614 0-1.382.028-2.299.082l.118 1.996a38.48 38.48 0 012.181-.078v-2zm-2.303.082c-.847.053-1.475.078-1.897.078v2c.485 0 1.163-.028 2.022-.082l-.125-1.996zm-1.897.078a.875.875 0 01.712.385.787.787 0 01.114.263.54.54 0 01.014.112h-2c0 .16.021.454.208.735.235.352.607.505.952.505v-2zm.84.76a.536.536 0 01-.014.112.787.787 0 01-.114.263.875.875 0 01-.712.385v-2c-.345 0-.717.153-.952.505-.187.28-.208.576-.208.735h2zm-.84.76c1.012 0 1.897-.09 2.541-.355l-.762-1.85c-.263.109-.818.205-1.779.205v2zm2.541-.355a2.13 2.13 0 00.945-.727c.251-.354.354-.758.354-1.158h-2c0 .03-.004.039-.002.034a.12.12 0 01.016-.032c.009-.012.014-.015.006-.009a.393.393 0 01-.081.042l.762 1.85zm1.299-1.885c0-.605-.258-1.35-.608-2.13l-1.825.82c.344.767.433 1.169.433 1.31h2zm-.615-2.145l-4.6-9.8-1.81.85 4.6 9.8 1.81-.85zm-5.505-10.375h-7.56v2h7.56v-2zm-8.482.611l-3.44 8.16 1.843.777 3.44-8.16-1.843-.777zm-3.443 8.168c-.394.957-.635 1.845-.635 2.621h2c0-.397.132-1.003.485-1.86l-1.85-.76zm-.635 2.621c0 1.124.499 2.046 1.464 2.627.884.532 2.081.733 3.456.733v-2c-1.239 0-2.002-.192-2.424-.447-.342-.205-.496-.463-.496-.913h-2zm4.92 3.36a.819.819 0 01-.618-.3.736.736 0 01-.182-.46h2a1.27 1.27 0 00-.282-.82 1.182 1.182 0 00-.918-.42v2zm-.8-.76c0-.034.003-.246.182-.46a.819.819 0 01.618-.3v2c.273 0 .644-.09.918-.42a1.27 1.27 0 00.282-.82h-2zm.8-.76c-.45 0-1.12-.025-2.021-.078l-.118 1.996c.912.054 1.629.082 2.139.082v-2zm-2.028-.079a52.03 52.03 0 00-2.692-.081v2c.724 0 1.586.026 2.587.079l.105-1.998zm-2.692-.081c-.718 0-1.538.028-2.459.082l.118 1.996a40.424 40.424 0 012.341-.078v-2zm-2.467.082c-.787.053-1.43.078-1.933.078v2c.563 0 1.254-.028 2.066-.082l-.133-1.996zm-1.933.078c.14 0 .411.05.618.3a.736.736 0 01.182.46h-2c0 .194.037.526.282.82.274.33.644.42.918.42v-2zm.8.76a.736.736 0 01-.182.46.819.819 0 01-.618.3v-2c-.274 0-.644.09-.918.42a1.27 1.27 0 00-.282.82h2zm-.8.76c.861 0 1.658-.153 2.346-.515l-.932-1.77c-.326.172-.782.285-1.414.285v2zm2.362-.524c.719-.395 1.323-1.025 1.835-1.809l-1.674-1.094c-.395.603-.778.96-1.125 1.15l.964 1.753zm1.83-1.801c.531-.797 1.079-1.89 1.65-3.248l-1.844-.774c-.55 1.308-1.041 2.269-1.47 2.912l1.664 1.11zm1.649-3.245l8.44-19.92-1.842-.78-8.44 19.92 1.842.78zm8.351-19.755a.756.756 0 01-.328.274.582.582 0 01-.224.051v-2c-.327 0-.807.107-1.112.565l1.664 1.11zm-.552.325c-.019 0-.137 0-.287-.076a.847.847 0 01-.422-.488l1.898-.632c-.237-.71-.918-.804-1.189-.804v2zm-.663-.451l9.44 19.88 1.806-.858-9.44-19.88-1.806.858zm9.434 19.868c.909 1.978 1.737 3.441 2.494 4.261l1.47-1.356c-.523-.567-1.242-1.77-2.146-3.74l-1.818.835zm2.507 4.275c.818.853 1.835 1.308 3.002 1.308v-2c-.593 0-1.097-.211-1.559-.692l-1.443 1.384zM214.522 14.92h6.8v-2h-6.8v2zm7.704-1.428l-3.6-7.6-1.808.856 3.6 7.6 1.808-.856zm-5.426-7.56l-3.2 7.6 1.844.776 3.2-7.6-1.844-.776zm41.768 23.748l-.787.618.002.002.785-.62zm-21.92-2.36l-.255-.967-.013.003.268.964zm1-.76l-.906-.423-.007.014-.006.015.919.394zm0-22.08l-.919.394.011.027.013.026.895-.447zm-1-.76l-.316.949.03.01.031.008.255-.967zm-2.24-.72l.02-1h-.02v1zm2 .04l.047-.999h-.027l-.02.999zm5.6 0l-.02-1h-.013l-.013.001.046.999zm2-.04V2h-.02l.02 1zm-2.28.72l.267.964.025-.007.024-.008-.316-.949zm-1 .76l-.895-.447-.013.026-.011.027.919.394zm-.12 22l-.965.263.011.04.014.039.94-.342zm.72.56l-.21.978.21-.978zm12.16 0l-.184-.983-.012.002.196.981zm.8-.56l.94.342.004-.013.004-.013-.948-.316zm-.12-22l-.919.394.011.027.013.026.895-.447zm-.96-.76l-.316.949.024.008.024.007.268-.964zm-2.28-.72l.02-1h-.02v1zm2 .04l.045-.999h-.025l-.02.999zm5.6 0l-.02-1h-.014l-.014.001.048.999zm2-.04V2h-.02l.02 1zm-2.28.72l.267.964.017-.005.017-.005-.301-.954zm-1 .76l-.895-.447-.013.026-.011.027.919.394zm-.12 22.28l-.97.242.009.038.012.036.949-.316zm.72.64l-.275.962.032.009.033.007.21-.978zm2.56.2l-.895.447.073.145.115.115.707-.707zm.04 1.56l-.997-.083-.002.021v.022l.999.04zm.48 6.32c0-2.776-.452-5-1.576-6.42l-1.569 1.24c.69.872 1.145 2.516 1.145 5.18h2zm-1.574-6.418c-1.147-1.46-3.005-2.062-5.266-2.062v2c1.952 0 3.08.518 3.693 1.298l1.573-1.236zM254.088 27h-19.68v2h19.68v-2zm-19.68 0c.269 0 .507.113.672.278.14.14.196.285.216.346.039.116.032.187.032.136h-2c0 .11.006.3.071.496.057.17.318.744 1.009.744v-2zm.92.76c0-.05.007.02-.032.136a.886.886 0 01-.216.346.953.953 0 01-.672.278v-2c-.691 0-.952.573-1.009.744a1.588 1.588 0 00-.071.496h2zm-.92.76c1.031 0 1.89-.065 2.507-.236l-.535-1.927c-.343.095-.976.163-1.972.163v2zm2.494-.233c.711-.187 1.35-.598 1.665-1.333l-1.838-.788c-.005.011-.033.107-.336.187l.509 1.934zm1.652-1.304c.28-.6.374-1.377.374-2.223h-2c0 .754-.093 1.177-.186 1.377l1.812.846zm.374-2.223V6.24h-2v18.52h2zm0-18.52c0-.838-.091-1.619-.386-2.207l-1.789.894c.079.158.175.551.175 1.313h2zm-.361-2.154c-.315-.735-.954-1.146-1.665-1.333l-.509 1.934c.303.08.331.176.336.187l1.838-.788zm-1.603-1.315c-.64-.213-1.521-.291-2.556-.291v2c.991 0 1.603.082 1.924.189l.632-1.898zm-2.556-.291c.269 0 .507.113.672.278.14.14.196.285.216.346.039.116.032.187.032.136h-2c0 .11.006.3.071.496.057.17.318.744 1.009.744v-2zm.92.76c0-.05.007.02-.032.136a.887.887 0 01-.216.346.952.952 0 01-.672.278V2c-.691 0-.952.573-1.009.744a1.588 1.588 0 00-.071.496h2zm-.94.76l2 .04.04-2-2-.04-.04 2zm1.972.039c1.128.054 2.052.081 2.768.081v-2c-.671 0-1.56-.026-2.673-.079l-.095 1.998zm2.768.081c.768 0 1.744-.027 2.925-.081l-.091-1.998a64.919 64.919 0 01-2.834.079v2zm2.9-.08l2-.04-.04-2-2 .04.04 2zm1.98-.04a.952.952 0 01-.672-.278.88.88 0 01-.217-.346c-.039-.116-.031-.187-.031-.136h2c0-.11-.006-.3-.072-.496-.056-.17-.317-.744-1.008-.744v2zm-.92-.76c0 .05-.008-.02.031-.136a.88.88 0 01.217-.346.952.952 0 01.672-.278v2c.691 0 .952-.573 1.008-.744.066-.196.072-.387.072-.496h-2zm.92-.76c-1.059 0-1.955.078-2.596.291l.632 1.898c.319-.107.943-.189 1.964-.189v-2zm-2.548.276c-.695.194-1.289.602-1.627 1.277l1.789.894c.036-.071.109-.17.373-.243l-.535-1.928zm-1.651 1.33c-.244.568-.321 1.324-.321 2.154h2c0-.77.082-1.187.159-1.366l-1.838-.788zm-.321 2.154v18.44h2V6.24h-2zm0 18.44c0 .884.034 1.62.155 2.063l1.93-.526c-.039-.143-.085-.607-.085-1.537h-2zm.18 2.142c.252.692.827 1.062 1.45 1.196l.419-1.956c-.076-.016-.081-.031-.055-.011.013.01.028.025.041.044.014.018.021.035.025.043l-1.88.684zm1.45 1.196c.495.106 1.361.142 2.49.142v-2c-1.165 0-1.818-.044-2.071-.098l-.419 1.956zm2.49.142h7.48v-2h-7.48v2zm7.48 0c1.184 0 2.083-.037 2.596-.14l-.392-1.96c-.287.057-.989.1-2.204.1v2zm2.584-.137c.623-.117 1.283-.453 1.556-1.201l-1.88-.684a.269.269 0 01.086-.117c.009-.006.006-.003-.015.006a.709.709 0 01-.115.03l.368 1.966zm1.564-1.227c.165-.494.212-1.248.212-2.116h-2c0 .892-.06 1.338-.109 1.484l1.897.632zm.212-2.116V6.24h-2v18.44h2zm0-18.44c0-.838-.091-1.619-.386-2.207l-1.789.894c.079.158.175.551.175 1.313h2zm-.361-2.154c-.307-.715-.912-1.135-1.612-1.33l-.535 1.928c.261.072.295.158.309.19l1.838-.788zm-1.563-1.315c-.641-.213-1.537-.291-2.596-.291v2c1.021 0 1.645.082 1.964.189l.632-1.898zm-2.596-.291a.907.907 0 01.804.493.728.728 0 01.076.267h-2c0 .131.011.378.135.627a1.092 1.092 0 00.985.613v-2zm.88.76l-.001.015a.728.728 0 01-.075.252.907.907 0 01-.804.493V2a1.092 1.092 0 00-.985.613 1.403 1.403 0 00-.135.627h2zm-.9.76l2 .04.04-2-2-.04-.04 2zm1.974.039c1.181.054 2.144.081 2.886.081v-2a64.48 64.48 0 01-2.795-.079l-.091 1.998zm2.886.081c.742 0 1.679-.027 2.807-.081l-.095-1.998a59.235 59.235 0 01-2.712.079v2zm2.78-.08l2-.04-.04-2-2 .04.04 2zm1.98-.04a.952.952 0 01-.672-.278.88.88 0 01-.217-.346c-.039-.116-.031-.187-.031-.136h2c0-.11-.006-.3-.072-.496-.056-.17-.317-.744-1.008-.744v2zm-.92-.76c0 .05-.008-.02.031-.136a.88.88 0 01.217-.346.952.952 0 01.672-.278v2c.691 0 .952-.573 1.008-.744.066-.196.072-.387.072-.496h-2zm.92-.76c-1.041 0-1.925.08-2.581.286l.602 1.908c.357-.113.993-.194 1.979-.194v-2zm-2.548.276c-.695.194-1.289.602-1.627 1.277l1.789.894c.036-.071.109-.17.373-.243l-.535-1.928zm-1.651 1.33c-.244.568-.321 1.324-.321 2.154h2c0-.77.082-1.187.159-1.366l-1.838-.788zm-.321 2.154v18.52h2V6.24h-2zm0 18.52c0 .99.035 1.782.15 2.242l1.94-.485c-.045-.18-.09-.72-.09-1.757h-2zm.171 2.316c.228.684.759 1.104 1.394 1.285l.55-1.922c-.073-.021-.084-.038-.071-.026a.127.127 0 01.019.022c.006.009.007.013.006.009l-1.898.632zm1.459 1.302c.493.105 1.331.142 2.41.142v-2c-1.108 0-1.737-.043-1.991-.098l-.419 1.956zm2.41.142c.078 0 .078.006.033-.004a.733.733 0 01-.19-.073.921.921 0 01-.378-.396l1.789-.894a1.085 1.085 0 00-.453-.466 1.277 1.277 0 00-.334-.123 2.18 2.18 0 00-.467-.044v2zm-.347-.213a.814.814 0 01-.177-.258c-.025-.058-.034-.1-.037-.113-.004-.023.001-.01.001.064h2c0-.14-.008-.3-.04-.456a1.26 1.26 0 00-.333-.651l-1.414 1.414zm-.213-.307c0 .436-.013.793-.037 1.077l1.993.166c.03-.356.044-.772.044-1.243h-2zm-.039 1.12c-.055 1.355-.081 3.478-.081 6.36h2c0-2.878.027-4.968.079-6.28l-1.998-.08zm-.081 6.36c0-.14.051-.41.3-.618a.74.74 0 01.46-.182v2c.194 0 .526-.037.82-.282.329-.274.42-.644.42-.918h-2zm.76-.8c.087 0 .337.023.557.243.22.22.243.47.243.557h-2c0 .22.056.57.343.857a1.2 1.2 0 00.857.343v-2zm28.421-6.72l.056-.998-.021-.002h-.02l-.015 1zm-2.76-.04l.015-1h-.028l.013 1zm-2.92.04l-.013-1h-.021l-.021.002.055.998zm.36-.64l-.267-.963.267.963zm.96-.76l-.906-.423-.007.014-.006.015.919.394zm.28-18.32h1V5.706l-1.73 1.851.73.683zm-14.88 15.92l-.73-.683-.27.288v.395h1zm.24 2.4l-.928.371.015.039.019.037.894-.447zm1.32 1.4l.056-.998-.021-.002h-.021l-.014 1zm-2.88-.04l.014-1h-.028l.014 1zm-2.76.04l-.014-1h-.021l-.02.002.055.998zm.24-.64l-.254-.967-.013.003.267.964zm1-.76l-.906-.423-.007.014-.006.015.919.394zm0-22.08l-.919.394.012.027.013.026.894-.447zm-.96-.76l-.316.949.024.008.025.007.267-.964zm-2.24-.72l.02-1h-.02v1zm2.04.04l.048-.999h-.028l-.02.999zm5.6 0l-.02-1h-.013l-.012.001.045.999zm1.92-.04V2h-.02l.02 1zm-2.28.72l-.301-.954-.007.003-.008.002.316.949zm-1 .84l-.906-.423-.007.014-.006.015.919.394zm-.24 18.24h-1v2.525l1.729-1.84-.729-.685zm14.88-15.84l.729.685.271-.289V6.96h-1zm-.28-2.4l-.928.371.015.039.019.037.894-.447zm-.96-.84l.317-.949-.317.949zm-2.28-.72l.021-1h-.021v1zm1.92.04l.046-.999h-.025l-.021.999zm5.68 0l-.02-1h-.012l-.013.001.045.999zm2-.04V2h-.02l.02 1zm-2.24.72l.268.964.025-.007.024-.008-.317-.949zm-1 .76l-.894-.447-.013.026-.012.027.919.394zm0 22.08l-.928.371.015.039.019.037.894-.447zm3.24 1.96a.953.953 0 01-.672-.278.886.886 0 01-.216-.346c-.039-.116-.032-.187-.032-.136h2c0-.11-.005-.3-.071-.496-.057-.17-.318-.744-1.009-.744v2zm-.92-.76c0 .05-.007-.02.032-.136a.886.886 0 01.216-.346.953.953 0 01.672-.278v2c.691 0 .952-.573 1.009-.744.066-.196.071-.387.071-.496h-2zm.92-.76c-.846 0-1.492-.013-1.944-.038l-.111 1.997c.507.028 1.195.041 2.055.041v-2zm-1.985-.04l-2.76-.04-.029 2 2.76.04.029-2zm-2.788-.04l-2.92.04.027 2 2.92-.04-.027-2zm-2.962.041c-.454.026-1.073.039-1.865.039v2c.809 0 1.469-.013 1.976-.041l-.111-1.997zm-1.865.039c.27 0 .508.113.672.278a.88.88 0 01.217.346c.039.116.031.187.031.136h-2c0 .11.006.3.072.496.057.17.317.744 1.008.744v-2zm.92.76c0-.05.008.02-.031.136a.88.88 0 01-.217.346.949.949 0 01-.672.278v-2c-.691 0-.951.573-1.008.744a1.565 1.565 0 00-.072.496h2zm-.92.76c1.055 0 1.93-.065 2.548-.236l-.535-1.927c-.342.094-.987.163-2.013.163v2zm2.548-.236c.699-.195 1.305-.615 1.612-1.33l-1.839-.788c-.013.032-.048.118-.308.19l.535 1.927zm1.599-1.301c.28-.6.373-1.377.373-2.223h-2c0 .754-.093 1.177-.186 1.377l1.813.846zm.373-2.223V8.24h-2v16.52h2zm-1.73-17.203l-14.88 15.92 1.461 1.366 14.88-15.92-1.461-1.366zm-15.15 16.603v.6h2v-.6h-2zm0 .6c0 .837.08 1.591.312 2.171l1.857-.742c-.088-.22-.169-.666-.169-1.429h-2zm.346 2.247c.338.675.932 1.083 1.627 1.276l.535-1.927c-.265-.073-.337-.172-.373-.243l-1.789.894zm1.627 1.276c.618.172 1.493.237 2.547.237v-2c-1.025 0-1.67-.069-2.012-.163l-.535 1.927zm2.547.237a.953.953 0 01-.672-.278.886.886 0 01-.216-.346c-.039-.116-.032-.187-.032-.136h2c0-.11-.005-.3-.071-.496-.057-.17-.318-.744-1.009-.744v2zm-.92-.76c0 .05-.007-.02.032-.136a.886.886 0 01.216-.346.953.953 0 01.672-.278v2c.691 0 .952-.573 1.009-.744.066-.196.071-.387.071-.496h-2zm.92-.76a36.66 36.66 0 01-1.904-.038l-.111 1.997a38.31 38.31 0 002.015.041v-2zm-1.946-.04l-2.88-.04-.028 2 2.88.04.028-2zm-2.908-.04l-2.76.04.029 2 2.76-.04-.029-2zm-2.801.041a36.37 36.37 0 01-1.945.039v2c.86 0 1.548-.013 2.056-.041l-.111-1.997zm-1.945.039c.27 0 .508.113.672.278a.88.88 0 01.217.346c.039.116.031.187.031.136h-2c0 .11.006.3.072.496.057.17.317.744 1.008.744v-2zm.92.76c0-.05.008.02-.031.136a.88.88 0 01-.217.346.949.949 0 01-.672.278v-2c-.691 0-.951.573-1.008.744a1.565 1.565 0 00-.072.496h2zm-.92.76c1.031 0 1.891-.065 2.508-.236l-.535-1.927c-.343.095-.977.163-1.973.163v2zm2.495-.233c.71-.187 1.349-.598 1.665-1.333l-1.839-.788c-.005.011-.032.107-.335.187l.509 1.934zm1.652-1.304c.28-.6.373-1.377.373-2.223h-2c0 .754-.093 1.177-.186 1.377l1.813.846zm.373-2.223V6.24h-2v18.52h2zm0-18.52c0-.838-.091-1.619-.385-2.207l-1.789.894c.079.158.174.551.174 1.313h2zm-.36-2.154c-.307-.715-.913-1.135-1.612-1.33l-.535 1.928c.26.072.295.158.308.19l1.839-.788zm-1.563-1.315c-.64-.213-1.521-.291-2.557-.291v2c.992 0 1.604.082 1.924.189l.633-1.898zm-2.557-.291c.27 0 .508.113.672.278a.88.88 0 01.217.346c.039.116.031.187.031.136h-2c0 .11.006.3.072.496.057.17.317.744 1.008.744v-2zm.92.76c0-.05.008.02-.031.136a.88.88 0 01-.217.346.949.949 0 01-.672.278V2c-.691 0-.951.573-1.008.744a1.565 1.565 0 00-.072.496h2zm-.939.76l2.04.04.039-2-2.04-.04-.039 2zm2.012.039c1.127.054 2.038.081 2.727.081v-2c-.643 0-1.519-.026-2.632-.079l-.095 1.998zm2.727.081c.794 0 1.784-.027 2.966-.081l-.091-1.998a65.476 65.476 0 01-2.875.079v2zm2.941-.08l1.92-.04-.041-2-1.92.04.041 2zm1.899-.04a.952.952 0 01-.672-.278.887.887 0 01-.216-.346c-.039-.116-.032-.187-.032-.136h2c0-.11-.005-.3-.071-.496-.057-.17-.318-.744-1.009-.744v2zm-.92-.76c0 .05-.007-.02.032-.136a.887.887 0 01.216-.346.952.952 0 01.672-.278v2c.691 0 .952-.573 1.009-.744.066-.196.071-.387.071-.496h-2zm.92-.76c-1.04 0-1.924.08-2.581.286l.602 1.908c.358-.113.993-.194 1.979-.194v-2zm-2.596.291c-.699.233-1.27.68-1.59 1.366l1.813.846c.053-.114.148-.227.41-.314l-.633-1.898zm-1.603 1.395c-.243.568-.321 1.324-.321 2.154h2c0-.77.083-1.187.16-1.366l-1.839-.788zm-.321 2.154V22.8h2V6.32h-2zm1.729 17.165l14.88-15.84-1.457-1.37-14.88 15.84 1.457 1.37zM285.469 6.96v-.64h-2v.64h2zm0-.64c0-.838-.091-1.619-.385-2.207l-1.789.894c.079.158.174.551.174 1.313h2zm-.351-2.131c-.289-.722-.867-1.183-1.572-1.418l-.633 1.898c.255.085.317.184.348.262l1.857-.742zm-1.572-1.418c-.642-.213-1.538-.291-2.597-.291v2c1.022 0 1.645.082 1.964.189l.633-1.898zm-2.597-.291c.27 0 .508.113.672.278a.88.88 0 01.217.346c.039.116.031.187.031.136h-2c0 .11.006.3.072.496.057.17.317.744 1.008.744v-2zm.92.76c0-.05.008.02-.031.136a.88.88 0 01-.217.346.949.949 0 01-.672.278V2c-.691 0-.951.573-1.008.744a1.565 1.565 0 00-.072.496h2zm-.94.76l1.92.04.041-2-1.92-.04-.041 2zm1.895.039a66.95 66.95 0 002.965.081v-2a65.42 65.42 0 01-2.874-.079l-.091 1.998zm2.965.081c.689 0 1.627-.027 2.806-.081l-.091-1.998c-1.168.053-2.07.079-2.715.079v2zm2.78-.08l2-.04-.04-2-2 .04.04 2zm1.98-.04a.952.952 0 01-.672-.278.887.887 0 01-.216-.346c-.039-.116-.032-.187-.032-.136h2c0-.11-.005-.3-.071-.496-.057-.17-.318-.744-1.009-.744v2zm-.92-.76c0 .05-.007-.02.032-.136a.887.887 0 01.216-.346.952.952 0 01.672-.278v2c.691 0 .952-.573 1.009-.744.066-.196.071-.387.071-.496h-2zm.92-.76c-1.035 0-1.916.078-2.556.291l.633 1.898c.32-.107.932-.189 1.923-.189v-2zm-2.507.276c-.695.194-1.289.602-1.627 1.277l1.789.894c.036-.071.108-.17.373-.243l-.535-1.928zm-1.652 1.33c-.243.568-.321 1.324-.321 2.154h2c0-.77.083-1.187.16-1.366l-1.839-.788zm-.321 2.154v18.52h2V6.24h-2zm0 18.52c0 .837.08 1.591.312 2.171l1.857-.742c-.088-.22-.169-.666-.169-1.429h-2zm.346 2.247c.338.675.932 1.083 1.627 1.276l.535-1.927c-.265-.073-.337-.172-.373-.243l-1.789.894zm1.627 1.276c.617.172 1.477.237 2.507.237v-2c-.996 0-1.629-.068-1.972-.163l-.535 1.927zm30.39-.323l.056-.998-.021-.002h-.02l-.015 1zm-2.76-.04l.015-1h-.029l.014 1zm-2.92.04l-.014-1h-.02l-.021.002.055.998zm.36-.64l-.267-.963.267.963zm.96-.76l-.906-.423-.007.014-.006.015.919.394zm.28-18.32h1V5.706l-1.73 1.851.73.683zm-14.88 15.92l-.73-.683-.27.288v.395h1zm.24 2.4l-.928.371.015.039.019.037.894-.447zm1.32 1.4l.056-.998-.021-.002h-.021l-.014 1zm-2.88-.04l.014-1h-.028l.014 1zm-2.76.04l-.014-1h-.021l-.02.002.055.998zm.24-.64l-.254-.967-.013.003.267.964zm1-.76l-.906-.423-.007.014-.006.015.919.394zm0-22.08l-.919.394.012.027.013.026.894-.447zm-.96-.76l-.316.949.024.008.025.007.267-.964zm-2.24-.72l.02-1h-.02v1zm2.04.04l.048-.999h-.028l-.02.999zm5.6 0l-.021-1h-.012l-.012.001.045.999zm1.92-.04V2h-.021l.021 1zm-2.28.72l-.301-.954-.007.003-.008.002.316.949zm-1 .84l-.906-.423-.007.014-.006.015.919.394zm-.24 18.24h-1v2.525l1.729-1.84-.729-.685zm14.88-15.84l.729.685.271-.289V6.96h-1zm-.28-2.4l-.928.371.015.039.019.037.894-.447zm-.96-.84l.316-.949-.316.949zm-2.28-.72l.021-1h-.021v1zm1.92.04l.046-.999h-.025l-.021.999zm5.68 0l-.02-1h-.013l-.012.001.045.999zm2-.04V2h-.02l.02 1zm-2.24.72l.268.964.024-.007.024-.008-.316-.949zm-1 .76l-.894-.447-.013.026-.012.027.919.394zm0 22.08l-.928.371.015.039.019.037.894-.447zm3.24 1.96a.953.953 0 01-.672-.278.886.886 0 01-.216-.346c-.039-.116-.032-.187-.032-.136h2c0-.11-.006-.3-.071-.496-.057-.17-.318-.744-1.009-.744v2zm-.92-.76c0 .05-.007-.02.032-.136a.886.886 0 01.216-.346.953.953 0 01.672-.278v2c.691 0 .952-.573 1.009-.744.065-.196.071-.387.071-.496h-2zm.92-.76c-.846 0-1.492-.013-1.944-.038l-.111 1.997c.507.028 1.195.041 2.055.041v-2zm-1.985-.04l-2.76-.04-.029 2 2.76.04.029-2zm-2.789-.04l-2.92.04.028 2 2.92-.04-.028-2zm-2.961.041c-.454.026-1.073.039-1.865.039v2c.808 0 1.469-.013 1.976-.041l-.111-1.997zm-1.865.039c.269 0 .507.113.672.278a.88.88 0 01.217.346c.039.116.031.187.031.136h-2c0 .11.006.3.072.496.056.17.317.744 1.008.744v-2zm.92.76c0-.05.008.02-.031.136a.88.88 0 01-.217.346.953.953 0 01-.672.278v-2c-.691 0-.952.573-1.008.744a1.565 1.565 0 00-.072.496h2zm-.92.76c1.055 0 1.929-.065 2.548-.236l-.535-1.927c-.342.094-.987.163-2.013.163v2zm2.548-.236c.699-.195 1.305-.615 1.611-1.33l-1.838-.788c-.013.032-.048.118-.308.19l.535 1.927zm1.598-1.301c.28-.6.374-1.377.374-2.223h-2c0 .754-.093 1.177-.186 1.377l1.812.846zm.374-2.223V8.24h-2v16.52h2zm-1.73-17.203l-14.88 15.92 1.461 1.366 14.88-15.92-1.461-1.366zm-15.15 16.603v.6h2v-.6h-2zm0 .6c0 .837.08 1.591.312 2.171l1.857-.742c-.088-.22-.169-.666-.169-1.429h-2zm.346 2.247c.337.675.931 1.083 1.627 1.276l.535-1.927c-.265-.073-.338-.172-.373-.243l-1.789.894zm1.627 1.276c.618.172 1.493.237 2.547.237v-2c-1.025 0-1.671-.069-2.012-.163l-.535 1.927zm2.547.237a.953.953 0 01-.672-.278.886.886 0 01-.216-.346c-.039-.116-.032-.187-.032-.136h2c0-.11-.006-.3-.071-.496-.057-.17-.318-.744-1.009-.744v2zm-.92-.76c0 .05-.007-.02.032-.136a.886.886 0 01.216-.346.953.953 0 01.672-.278v2c.691 0 .952-.573 1.009-.744.065-.196.071-.387.071-.496h-2zm.92-.76a36.66 36.66 0 01-1.904-.038l-.111 1.997a38.31 38.31 0 002.015.041v-2zm-1.946-.04l-2.88-.04-.028 2 2.88.04.028-2zm-2.908-.04l-2.76.04.029 2 2.76-.04-.029-2zm-2.801.041a36.37 36.37 0 01-1.945.039v2c.86 0 1.548-.013 2.056-.041l-.111-1.997zm-1.945.039c.269 0 .507.113.672.278a.88.88 0 01.217.346c.039.116.031.187.031.136h-2c0 .11.006.3.072.496.056.17.317.744 1.008.744v-2zm.92.76c0-.05.008.02-.031.136a.88.88 0 01-.217.346.953.953 0 01-.672.278v-2c-.691 0-.952.573-1.008.744a1.565 1.565 0 00-.072.496h2zm-.92.76c1.031 0 1.891-.065 2.508-.236l-.535-1.927c-.343.095-.977.163-1.973.163v2zm2.495-.233c.71-.187 1.349-.598 1.664-1.333l-1.838-.788c-.005.011-.033.107-.335.187l.509 1.934zm1.651-1.304c.28-.6.374-1.377.374-2.223h-2c0 .754-.093 1.177-.186 1.377l1.812.846zm.374-2.223V6.24h-2v18.52h2zm0-18.52c0-.838-.091-1.619-.385-2.207l-1.789.894c.079.158.174.551.174 1.313h2zm-.361-2.154c-.306-.715-.912-1.135-1.611-1.33l-.535 1.928c.26.072.295.158.308.19l1.838-.788zm-1.563-1.315c-.639-.213-1.52-.291-2.556-.291v2c.991 0 1.604.082 1.924.189l.632-1.898zm-2.556-.291c.269 0 .507.113.672.278a.88.88 0 01.217.346c.039.116.031.187.031.136h-2c0 .11.006.3.071.496.057.17.318.744 1.009.744v-2zm.92.76c0-.05.008.02-.031.136a.88.88 0 01-.217.346.952.952 0 01-.672.278V2c-.691 0-.952.573-1.009.744a1.588 1.588 0 00-.071.496h2zm-.939.76l2.04.04.039-2-2.04-.04-.039 2zm2.012.039a59.64 59.64 0 002.727.081v-2c-.644 0-1.519-.026-2.632-.079l-.095 1.998zm2.727.081c.794 0 1.784-.027 2.966-.081l-.091-1.998a65.476 65.476 0 01-2.875.079v2zm2.941-.08l1.92-.04-.042-2-1.92.04.042 2zm1.899-.04a.952.952 0 01-.672-.278.887.887 0 01-.216-.346c-.039-.116-.032-.187-.032-.136h2c0-.11-.006-.3-.071-.496-.057-.17-.318-.744-1.009-.744v2zm-.92-.76c0 .05-.007-.02.032-.136a.887.887 0 01.216-.346.952.952 0 01.672-.278v2c.691 0 .952-.573 1.009-.744.065-.196.071-.387.071-.496h-2zm.92-.76c-1.04 0-1.925.08-2.581.286l.602 1.908c.357-.113.993-.194 1.979-.194v-2zm-2.596.291c-.699.233-1.27.68-1.59 1.366l1.812.846c.054-.114.149-.227.41-.314l-.632-1.898zm-1.603 1.395c-.243.568-.321 1.324-.321 2.154h2c0-.77.083-1.187.159-1.366l-1.838-.788zm-.321 2.154V22.8h2V6.32h-2zm1.729 17.165l14.88-15.84-1.458-1.37-14.88 15.84 1.458 1.37zM315.352 6.96v-.64h-2v.64h2zm0-.64c0-.838-.091-1.619-.385-2.207l-1.789.894c.079.158.174.551.174 1.313h2zm-.351-2.131c-.289-.722-.867-1.183-1.573-1.418l-.632 1.898c.255.085.316.184.348.262l1.857-.742zm-1.573-1.418c-.641-.213-1.537-.291-2.596-.291v2c1.021 0 1.645.082 1.964.189l.632-1.898zm-2.596-.291c.269 0 .507.113.672.278a.88.88 0 01.217.346c.039.116.031.187.031.136h-2c0 .11.006.3.072.496.056.17.317.744 1.008.744v-2zm.92.76c0-.05.008.02-.031.136a.88.88 0 01-.217.346.952.952 0 01-.672.278V2c-.691 0-.952.573-1.008.744a1.565 1.565 0 00-.072.496h2zm-.941.76l1.92.04.042-2-1.92-.04-.042 2zm1.896.039a66.91 66.91 0 002.965.081v-2a65.42 65.42 0 01-2.874-.079l-.091 1.998zm2.965.081c.689 0 1.627-.027 2.806-.081l-.091-1.998a63.657 63.657 0 01-2.715.079v2zm2.78-.08l2-.04-.04-2-2 .04.04 2zm1.98-.04a.952.952 0 01-.672-.278.887.887 0 01-.216-.346c-.039-.116-.032-.187-.032-.136h2c0-.11-.006-.3-.071-.496-.057-.17-.318-.744-1.009-.744v2zm-.92-.76c0 .05-.007-.02.032-.136a.887.887 0 01.216-.346.952.952 0 01.672-.278v2c.691 0 .952-.573 1.009-.744.065-.196.071-.387.071-.496h-2zm.92-.76c-1.035 0-1.916.078-2.556.291l.632 1.898c.321-.107.933-.189 1.924-.189v-2zm-2.507.276c-.696.194-1.29.602-1.627 1.277l1.789.894c.035-.071.108-.17.373-.243l-.535-1.928zm-1.652 1.33c-.243.568-.321 1.324-.321 2.154h2c0-.77.083-1.187.159-1.366l-1.838-.788zm-.321 2.154v18.52h2V6.24h-2zm0 18.52c0 .837.08 1.591.312 2.171l1.857-.742c-.088-.22-.169-.666-.169-1.429h-2zm.346 2.247c.337.675.931 1.083 1.627 1.276l.535-1.927c-.265-.073-.338-.172-.373-.243l-1.789.894zm1.627 1.276c.617.172 1.476.237 2.507.237v-2c-.996 0-1.629-.068-1.972-.163l-.535 1.927z" fill="#A4C700"/></svg>