<svg width="316" height="30" fill="none" xmlns="http://www.w3.org/2000/svg"><path d="M13.28 13.92l-.362-.932.286 1.93.076-.998zm5.08 2.12l-.7.715.008.007.008.007.684-.729zM16.4 27.2l.47.882.008-.003-.478-.879zm-6.92.84l.077-.997H9.55l-.071.997zm-1.32-.08l.053-.999-.053.999zm-1.68-.04v-1h-.015l.015 1zm-2.72.04l-.015-1h-.02l-.02.002.055.998zm.2-.64l.268.963.024-.006.024-.008-.316-.949zm1-.8l-.894-.447.894.447zm0-22.04l-.92.394.012.027.014.026.894-.447zM4 3.72l-.316.949.024.008.024.007L4 3.72zM1.8 3l.02-1H1.8v1zm1.96.04l.048-.999H3.78l-.02.999zm4.04.04l-.062-.998h-.005l.067.998zM8.88 3l.09.996h.006L8.88 3zm7.36 1.36l-.661.75.01.01.651-.76zm.44 7.24l.767.642.008-.01-.775-.632zM8.76 3.64l-.294-.956-.011.004-.011.003.316.949zm-.72.76l-.928-.371.928.371zm-.24 9.52h-1v.978l.978.022.022-1zm1.8.04l-.022 1H9.6v-1zm4.32-1.48l.726.687.01-.01-.736-.677zm.16-7.6l-.76.65.01.012.011.012.739-.674zm2 21.08l-.726-.688.726.688zm-.36-9.24l-.73.684.008.008.722-.692zm-4.88-1.92l-.031 1h.019l.012-1zm-3.04.08l-.068-.998-.932.064v.934h1zm.28 11.48l-.894.447.012.025.014.024.868-.496zm1.16.84l-.316.949.026.008.027.008.263-.965zm3.964-12.283c1.916.146 3.374.777 4.456 1.838l1.4-1.43c-1.478-1.446-3.407-2.228-5.704-2.402l-.152 1.994zm4.472 1.852c1.099 1.032 1.644 2.299 1.644 3.871h2c0-2.108-.762-3.908-2.276-5.33l-1.368 1.46zm1.644 3.871c0 1.241-.302 2.34-.896 3.323l1.712 1.034c.793-1.311 1.184-2.772 1.184-4.357h-2zm-.896 3.323c-.597.988-1.424 1.773-2.502 2.358l.956 1.758c1.375-.748 2.469-1.777 3.258-3.082l-1.712-1.034zm-2.495 2.355c-1.04.555-2.223.842-3.569.842v2c1.641 0 3.152-.353 4.51-1.078l-.94-1.764zm-3.569.842c-.85 0-1.784-.039-2.803-.117l-.154 1.994c1.061.082 2.047.123 2.957.123v-2zm-2.809-.117a73.32 73.32 0 00-1.338-.082l-.106 1.998c.503.026.936.052 1.302.079l.142-1.995zm-1.338-.082a33.115 33.115 0 00-1.733-.041v2c.6 0 1.141.013 1.627.039l.106-1.998zm-1.748-.04l-2.72.04.03 1.999 2.72-.04-.03-2zm-2.76.04A38.36 38.36 0 011.72 27v2c.886 0 1.588-.013 2.095-.041l-.11-1.997zM1.72 27a.95.95 0 01.672.278.89.89 0 01.217.346c.038.116.031.187.031.136h-2c0 .11.006.3.071.496.057.17.318.744 1.009.744v-2zm.92.76c0-.05.007.02-.031.136a.89.89 0 01-.217.346.952.952 0 01-.672.278v-2c-.69 0-.952.573-1.009.744a1.577 1.577 0 00-.071.496h2zm-.92.76c1.03 0 1.89-.065 2.508-.236l-.536-1.927c-.343.095-.976.163-1.972.163v2zm2.556-.251c.675-.225 1.249-.642 1.578-1.302l-1.788-.894c-.044.087-.137.203-.422.298l.632 1.898zm1.578-1.302c.295-.588.386-1.369.386-2.207h-2c0 .762-.095 1.155-.174 1.313l1.788.894zm.386-2.207V6.24h-2v18.52h2zm0-18.52c0-.838-.091-1.619-.386-2.207l-1.788.894c.079.158.174.551.174 1.313h2zm-.36-2.154c-.307-.715-.913-1.135-1.612-1.33l-.536 1.928c.261.072.295.158.309.19l1.838-.788zM4.315 2.771C3.678 2.56 2.812 2.48 1.8 2.48v2c.961 0 1.562.081 1.884.189l.632-1.898zM1.8 2.48a.908.908 0 01.804.493.74.74 0 01.076.267h-2c0 .131.011.378.136.627a1.092 1.092 0 00.984.613v-2zm.88.76v.015l-.006.044a.74.74 0 01-.07.208A.908.908 0 011.8 4V2a1.092 1.092 0 00-.984.613 1.399 1.399 0 00-.136.627h2zm-.9.76l1.96.04.04-2L1.82 2l-.04 2zm1.932.039a60.66 60.66 0 002.768.081v-2c-.67 0-1.56-.026-2.672-.079L3.712 4.04zm2.768.081c.498 0 .96-.014 1.387-.042l-.134-1.996c-.374.025-.791.038-1.253.038v2zm1.382-.042c.433-.027.803-.054 1.109-.082l-.182-1.992c-.28.026-.63.052-1.051.078l.124 1.996zm1.114-.083c.8-.077 1.54-.115 2.224-.115v-2c-.757 0-1.562.042-2.416.125l.192 1.99zM11.2 3.88c2.115 0 3.514.469 4.379 1.23l1.322-1.5c-1.375-1.212-3.336-1.73-5.701-1.73v2zm4.39 1.24c.881.755 1.33 1.736 1.33 3.04h2c0-1.843-.671-3.395-2.03-4.56l-1.3 1.52zm1.33 3.04c0 1.044-.33 1.969-1.015 2.808l1.55 1.264c.969-1.188 1.465-2.556 1.465-4.072h-2zm-1.007 2.798c-.698.834-1.681 1.519-2.995 2.03l.724 1.864c1.566-.609 2.85-1.47 3.805-2.61l-1.533-1.284zM10.32 2.48c-.72 0-1.361.053-1.854.204l.588 1.912c.2-.062.599-.116 1.266-.116v-2zm-1.876.211c-.673.225-1.096.746-1.332 1.338l1.856.742a.558.558 0 01.098-.173l.01-.01c-.001.001-.002.001 0 0l-.632-1.897zM7.112 4.03c-.235.586-.312 1.388-.312 2.29h2c0-.857.083-1.336.168-1.549L7.112 4.03zM6.8 6.32v7.6h2v-7.6h-2zm.978 8.6l1.8.04.044-2-1.8-.04-.044 2zm1.822.04c2.1 0 3.855-.533 5.046-1.793l-1.453-1.374c-.674.713-1.8 1.167-3.593 1.167v2zm5.056-1.803c1.136-1.233 1.664-2.826 1.664-4.677h-2c0 1.455-.405 2.53-1.136 3.322l1.472 1.356zM16.32 8.48c0-1.686-.472-3.145-1.501-4.274l-1.478 1.348c.624.684.979 1.625.979 2.926h2zm-1.48-4.25c-1.056-1.232-2.64-1.75-4.52-1.75v2c1.533 0 2.456.415 3 1.05l1.52-1.3zm-3.08 24.21c2.1 0 3.855-.533 5.046-1.793l-1.453-1.374c-.674.713-1.8 1.167-3.593 1.167v2zm5.046-1.792c1.188-1.255 1.714-2.974 1.714-5.008h-2c0 1.7-.434 2.86-1.166 3.632l1.452 1.376zm1.714-5.008c0-2.238-.67-4.141-2.078-5.612l-1.444 1.384c.992 1.036 1.522 2.413 1.522 4.228h2zm-2.07-5.603c-1.398-1.493-3.307-2.208-5.597-2.237l-.026 2c1.87.024 3.214.59 4.163 1.603l1.46-1.366zM10.871 13.8a32.18 32.18 0 00-3.139.081l.136 1.996a30.247 30.247 0 012.94-.079l.063-1.998zM6.8 14.88v9.88h2v-9.88h-2zm0 9.88c0 .758.098 1.472.386 2.047l1.788-.894c-.085-.172-.174-.525-.174-1.153h-2zm.412 2.096c.374.655 1.006 1.057 1.712 1.293l.632-1.898c-.414-.138-.556-.296-.608-.387l-1.736.992zm1.765 1.309c.715.195 1.66.275 2.783.275v-2c-1.063 0-1.798-.08-2.257-.205l-.526 1.93zm21.328-1.405l-.522.853.007.005.007.004.508-.862zm-4.48-4.72l-.887.461.003.008.004.006.88-.475zm.52-13.56l.814.58.004-.005-.818-.575zm5.32-4.44l-.412-.912-.004.002.416.91zm13.36.32l-.53.848.008.005.522-.853zm4.4 4.68l-.887.462.005.01.882-.472zm-5.52 17.68l-.478-.879-.004.003.482.876zm-.68-.4l-.515-.858-.007.005.522.853zm3.44-3.88l-.895-.447-.005.011.9.436zm-.12-12.76l-.902.432.902-.432zm-3.96-4.56l-.546.838.006.004.54-.842zm-12.8 1.2l-.753-.658.753.658zM28.705 21l-.913.41.002.004.91-.414zm3.92 4.88l-.582.814.01.006.572-.82zm4.32 1.6c-2.32 0-4.355-.534-6.133-1.582l-1.015 1.724c2.115 1.246 4.507 1.858 7.148 1.858v-2zm-6.119-1.573a11.287 11.287 0 01-4.122-4.343l-1.759.951a13.288 13.288 0 004.838 5.098l1.043-1.706zm-4.114-4.328c-.963-1.852-1.447-3.866-1.447-6.059h-2c0 2.5.555 4.833 1.672 6.981l1.775-.922zm-1.447-6.059c0-2.57.646-4.707 1.894-6.46L25.53 7.9c-1.524 2.14-2.265 4.697-2.265 7.62h2zm1.898-6.465c1.286-1.83 2.921-3.194 4.917-4.105l-.83-1.82c-2.325 1.062-4.236 2.659-5.724 4.775l1.637 1.15zm4.913-4.103c2.065-.932 4.152-1.392 6.269-1.392v-2c-2.417 0-4.783.527-7.092 1.568l.823 1.824zm6.269-1.392c2.369 0 4.407.559 6.15 1.648l1.06-1.696c-2.098-1.31-4.513-1.952-7.21-1.952v2zm6.158 1.653c1.77 1.081 3.108 2.508 4.035 4.289l1.774-.924c-1.1-2.112-2.695-3.806-4.766-5.071l-1.043 1.706zm4.04 4.298a11.968 11.968 0 011.442 5.729h2c0-2.353-.562-4.581-1.678-6.671l-1.764.942zm1.442 5.729c0 2.24-.588 4.281-1.766 6.146l1.691 1.068c1.382-2.189 2.075-4.6 2.075-7.214h-2zm-1.766 6.146c-1.186 1.878-2.778 3.361-4.792 4.455l.955 1.758c2.306-1.253 4.154-2.97 5.528-5.145l-1.69-1.068zm-4.796 4.458c-1.981 1.09-4.135 1.636-6.478 1.636v2c2.67 0 5.156-.627 7.442-1.884l-.964-1.752zm-5.078 2.796c1.983 0 3.792-.484 5.401-1.467l-1.043-1.706c-1.271.777-2.715 1.173-4.358 1.173v2zm5.394-1.463c1.652-.99 2.924-2.44 3.826-4.301l-1.8-.872c-.752 1.551-1.773 2.69-3.055 3.458l1.03 1.715zm3.82-4.29c.937-1.874 1.386-4.06 1.386-6.527h-2c0 2.227-.405 4.093-1.175 5.633l1.79.894zm1.386-6.527c0-2.632-.49-5.01-1.499-7.112l-1.803.864c.859 1.792 1.302 3.867 1.302 6.248h2zm-1.499-7.112c-1.008-2.103-2.448-3.77-4.322-4.97l-1.079 1.684c1.54.987 2.74 2.36 3.598 4.15l1.803-.864zM43.13 4.282C41.267 3.07 39.1 2.48 36.665 2.48v2c2.099 0 3.877.504 5.374 1.478l1.091-1.676zM36.665 2.48c-3.17 0-5.758 1.034-7.633 3.182l1.506 1.316c1.43-1.639 3.429-2.498 6.127-2.498v-2zm-7.633 3.182c-1.858 2.127-2.727 4.987-2.727 8.458h2c0-3.142.783-5.482 2.233-7.142l-1.506-1.316zm-2.727 8.458c0 2.634.49 5.068 1.487 7.29l1.825-.82c-.87-1.938-1.312-4.09-1.312-6.47h-2zm1.49 7.294c.998 2.198 2.412 3.968 4.248 5.28l1.163-1.628c-1.524-1.088-2.723-2.571-3.59-4.48l-1.822.828zm4.257 5.286c1.855 1.296 3.964 1.94 6.293 1.94v-2c-1.938 0-3.643-.529-5.148-1.58l-1.145 1.64zm47.078 1.26l.055-.998-.02-.002h-.02l-.015 1zm-2.72-.04l.014-1h-.028l.014 1zm-2.84.04l-.014-1h-.021l-.02.002.055.998zm1.24-1.4l.919.394.005-.011.004-.012-.928-.371zm.08-21.96l-.965.263.01.04.015.039.94-.342zm-14.32.04l.94.342.004-.013.004-.013-.948-.316zm.08 21.92l-.929.371.016.039.018.037.895-.447zm.96.76l-.282.96.007.002.007.002.268-.964zm.32.64l.055-.998-.02-.002h-.021l-.014 1zm-2.88-.04l.014-1h-.029l.015 1zm-2.72.04l-.015-1h-.02l-.02.002.055.998zm.24-.64l-.255-.967-.013.003.268.964zm1-.76l-.907-.423-.006.014-.006.015.919.394zm0-21.76l-.943.333.008.024.01.024.925-.381zm-.6-1.76l-.033 1h.017l.016-1zM79.81 3V2h-.018l.018 1zm-1.48 1.2l-.707-.707-.01.01-.01.01.727.687zm-.44 22.36l-.929.371.016.039.018.037.895-.447zm3.24 1.96a.907.907 0 01-.805-.493.738.738 0 01-.075-.252v-.015h2c0-.131-.011-.378-.136-.627a1.092 1.092 0 00-.984-.613v2zm-.88-.76v-.015c.001-.01.002-.024.006-.044a.738.738 0 01.07-.208.907.907 0 01.804-.493v2a1.092 1.092 0 00.984-.613c.125-.249.136-.496.136-.627h-2zm.88-.76a37.34 37.34 0 01-1.945-.038l-.11 1.997c.507.028 1.195.041 2.055.041v-2zm-1.986-.04l-2.72-.04-.029 2 2.72.04.03-2zm-2.748-.04l-2.84.04.028 2 2.84-.04-.028-2zm-2.882.041c-.453.026-1.085.039-1.904.039v2c.834 0 1.508-.013 2.015-.041l-.11-1.997zM71.61 27a.907.907 0 01.804.493.738.738 0 01.075.252v.015h-2c0 .131.012.378.136.627a1.092 1.092 0 00.984.613v-2zm.88.76l-.001.015a.738.738 0 01-.075.252.908.908 0 01-.804.493v-2a1.092 1.092 0 00-.985.613 1.398 1.398 0 00-.135.627h2zm-.88.76c1.03 0 1.89-.065 2.507-.236l-.535-1.927c-.343.095-.976.163-1.972.163v2zm2.507-.236c.7-.195 1.305-.615 1.612-1.33l-1.838-.788c-.014.032-.048.118-.309.19l.535 1.927zm1.621-1.353c.232-.58.312-1.334.312-2.171h-2c0 .763-.08 1.208-.169 1.429l1.857.742zm.312-2.171V6.4h-2v18.36h2zm0-18.36c0-.47-.014-.878-.044-1.219-.029-.322-.078-.65-.177-.923l-1.88.684.009.027.017.085c.014.075.027.175.039.305.023.26.036.604.036 1.041h2zm-.195-2.063c-.206-.752-.808-1.14-1.436-1.275L74 5.018c.076.016.066.028.024-.006a.317.317 0 01-.1-.149l1.93-.526zm-1.436-1.275c-.494-.106-1.36-.142-2.49-.142v2c1.166 0 1.819.044 2.071.098l.42-1.956zm-2.49-.142h-8.2v2h8.2v-2zm-8.2 0c-1.184 0-2.083.037-2.595.14l.392 1.96c.287-.057.988-.1 2.204-.1v-2zm-2.595.14c-.665.132-1.267.527-1.513 1.264l1.897.632a.203.203 0 01-.06.079c-.024.02-.017.003.068-.014l-.392-1.962zM59.63 4.297c-.098.27-.147.594-.176.911-.03.335-.044.734-.044 1.191h2c0-.423.013-.757.036-1.01a3.391 3.391 0 01.055-.38.154.154 0 01.009-.028l-1.88-.684zM59.41 6.4v18.36h2V6.4h-2zm0 18.36c0 .837.08 1.591.311 2.171l1.857-.742c-.088-.22-.168-.666-.168-1.429h-2zm.345 2.247c.328.656.892 1.072 1.572 1.272l.565-1.918c-.226-.067-.302-.157-.348-.248l-1.789.894zm1.587 1.276c.618.172 1.493.237 2.548.237v-2c-1.026 0-1.671-.069-2.013-.163l-.535 1.927zm2.548.237a.952.952 0 01-.672-.278.889.889 0 01-.217-.346c-.039-.116-.031-.187-.031-.136h2c0-.11-.006-.3-.072-.496-.056-.17-.317-.744-1.008-.744v2zm-.92-.76c0 .05-.008-.02.031-.136a.889.889 0 01.217-.346.952.952 0 01.672-.278v2c.69 0 .951-.573 1.008-.744.066-.196.072-.387.072-.496h-2zm.92-.76c-.82 0-1.452-.013-1.905-.038l-.11 1.997c.506.028 1.18.041 2.015.041v-2zm-1.946-.04l-2.88-.04-.028 2 2.88.04.028-2zm-2.909-.04l-2.72.04.03 2 2.72-.04-.03-2zm-2.76.041A37.34 37.34 0 0154.33 27v2c.86 0 1.548-.013 2.055-.041l-.11-1.997zM54.33 27c.269 0 .507.113.672.278a.89.89 0 01.216.346c.04.116.032.187.032.136h-2c0 .11.006.3.071.496.057.17.318.744 1.009.744v-2zm.92.76c0-.05.007.02-.032.136a.89.89 0 01-.216.346.952.952 0 01-.672.278v-2c-.691 0-.952.573-1.009.744a1.578 1.578 0 00-.071.496h2zm-.92.76c1.03 0 1.89-.065 2.507-.236l-.535-1.927c-.343.095-.976.163-1.972.163v2zm2.494-.233c.71-.187 1.35-.598 1.665-1.333l-1.838-.788c-.005.011-.033.107-.336.187l.51 1.934zm1.652-1.304c.28-.6.374-1.377.374-2.223h-2c0 .754-.093 1.177-.187 1.377l1.813.846zm.374-2.223V6.72h-2v18.04h2zm0-18.04c0-.88-.096-1.671-.356-2.3l-1.849.76c.114.278.205.767.205 1.54h2zm-.337-2.253c-.268-.758-.83-1.283-1.555-1.589l-.776 1.844c.288.12.392.263.445.41l1.886-.665zm-1.555-1.589c-.69-.29-1.58-.398-2.588-.398v2c.911 0 1.487.105 1.812.242l.776-1.844zM54.37 2.48c.269 0 .507.113.672.278a.89.89 0 01.216.346c.04.116.032.187.032.136h-2c0 .11.006.3.071.496.057.17.318.744 1.009.744v-2zm.92.76c0-.05.007.02-.032.136a.89.89 0 01-.216.346.952.952 0 01-.672.278V2c-.691 0-.952.573-1.009.744a1.578 1.578 0 00-.071.496h2zm-.92.76c.897 0 1.753.013 2.567.04l.065-2A81.769 81.769 0 0054.37 2v2zm2.584.04c3.473.053 7.118.08 10.936.08v-2c-3.809 0-7.444-.027-10.905-.08l-.03 2zm10.936.08c3.474 0 7.453-.04 11.938-.12l-.036-2c-4.476.08-8.443.12-11.902.12v2zM79.81 4h1.32V2h-1.32v2zm1.32 0a.908.908 0 01-.805-.493.738.738 0 01-.075-.252V3.24h2c0-.131-.011-.378-.136-.627A1.092 1.092 0 0081.13 2v2zm-.88-.76v-.015c.001-.01.002-.024.006-.044a.738.738 0 01.07-.208.908.908 0 01.804-.493v2a1.092 1.092 0 00.984-.613c.125-.249.136-.496.136-.627h-2zm.88-.76c-1.415 0-2.72.226-3.507 1.013l1.414 1.414c.173-.173.734-.427 2.093-.427v-2zm-3.527 1.033c-.726.768-.953 1.94-.953 3.207h2c0-1.133.225-1.641.407-1.833l-1.454-1.374zM76.65 6.72v18.04h2V6.72h-2zm0 18.04c0 .837.08 1.591.311 2.171l1.857-.742c-.088-.22-.168-.666-.168-1.429h-2zm.345 2.247c.338.675.932 1.083 1.627 1.276l.535-1.927c-.265-.073-.337-.172-.373-.243l-1.789.894zm1.627 1.276c.617.172 1.477.237 2.508.237v-2c-.996 0-1.63-.068-1.973-.163l-.535 1.927zm11.956-1.803l-.882.47.019.037.022.034.841-.541zm1.32.8l-.242.97.009.002.233-.972zm.56.68l.044-1h-.032l-.012 1zm-3.48-.04l.012-1h-.027l.015 1zm-2.68.04l-.015-1h-.019l-.018.001.052.999zm.16-.64l-.267-.963-.008.002-.007.002.282.959zm.96-.76l.92.394.004-.011.005-.012-.929-.371zm0-22.08l-.919.394.92-.394zm-.96-.76l-.333.943.032.011.034.01.267-.964zm-2.2-.72l.02-1h-.02v1zm2 .04l.048-.999h-.028l-.02.999zm4.92-.04V2h-.048l-.048.005.096.995zm1.52-.04l.039 1 .019-.001.019-.002-.077-.997zm7.68 1.56l-.598.802.007.005.591-.807zm.92 9.44l-.806-.591-.005.005-.004.006.815.58zm-3.32 2.68l.396.918-.396-.918zm-6.12.68l.255-.967-.126-.033h-.129v1zm-.08-.44l-.832-.555-.074.112-.043.127.95.316zm.16-.08l-.447.894.098.05.107.026.242-.97zm5.88-1.56l-.683-.73-.008.007.691.723zm.12-9.92l-.73.683.007.008.723-.691zm-6.48-1.68l.243.97-.243-.97zm-.92.76l.895.447.006-.012.005-.012-.906-.423zm-1.28 20.2c0 .897.105 1.727.438 2.35l1.764-.94c-.094-.177-.202-.6-.202-1.41h-2zm.479 2.42c.432.672 1.15 1.038 1.919 1.23l.485-1.94c-.511-.128-.673-.296-.722-.37l-1.682 1.08zm1.928 1.232c.787.19 1.926.268 3.353.268v-2c-1.4 0-2.34-.081-2.886-.212l-.467 1.944zm3.353.268a.908.908 0 01-.804-.493.738.738 0 01-.075-.252v-.015h2a1.4 1.4 0 00-.136-.627 1.092 1.092 0 00-.984-.613v2zm-.88-.76v-.015l.006-.044a.738.738 0 01.07-.208.907.907 0 01.804-.493v2a1.092 1.092 0 00.985-.613 1.4 1.4 0 00.135-.627h-2zm.88-.76c-1.088 0-1.925-.013-2.516-.04l-.087 2c.634.027 1.505.04 2.603.04v-2zm-2.548-.04l-3.48-.04-.023 2 3.48.04.023-2zm-3.507-.04l-2.68.04.03 2 2.68-.04-.03-2zm-2.717.041c-.482.026-1.142.039-1.988.039v2c.86 0 1.56-.013 2.093-.041l-.105-1.998zM84.258 27a.95.95 0 01.672.278c.14.14.196.285.217.346.039.116.031.187.031.136h-2c0 .11.006.3.071.496.057.17.318.744 1.01.744v-2zm.92.76c0-.05.008.02-.031.136a.889.889 0 01-.217.346.952.952 0 01-.672.278v-2c-.69 0-.952.573-1.009.744a1.578 1.578 0 00-.07.496h2zm-.92.76c1.026 0 1.882-.064 2.482-.24l-.564-1.92c-.306.09-.917.16-1.918.16v2zm2.468-.236c.7-.195 1.305-.615 1.611-1.33l-1.838-.788c-.013.032-.048.118-.308.19l.535 1.927zm1.62-1.353c.233-.58.312-1.334.312-2.171h-2c0 .763-.08 1.208-.168 1.429l1.857.742zm.312-2.171V6.24h-2v18.52h2zm0-18.52c0-.83-.077-1.586-.32-2.154l-1.839.788c.077.179.16.596.16 1.366h2zm-.32-2.154c-.307-.715-.913-1.135-1.612-1.33l-.535 1.928c.26.072.294.158.308.19l1.838-.788zM86.79 2.777c-.624-.22-1.503-.297-2.533-.297v2c.997 0 1.585.083 1.867.183l.666-1.886zm-2.533-.297a.95.95 0 01.672.278.89.89 0 01.217.346c.039.116.031.187.031.136h-2c0 .11.006.3.071.496.057.17.318.744 1.01.744v-2zm.92.76c0-.05.008.02-.031.136a.89.89 0 01-.217.346.952.952 0 01-.672.278V2c-.69 0-.952.573-1.009.744a1.578 1.578 0 00-.07.496h2zm-.94.76l2 .04.04-2-2-.04-.04 2zm1.973.039a60.21 60.21 0 002.727.081v-2c-.644 0-1.52-.026-2.632-.079L86.21 4.04zm2.727.081c.706 0 1.485-.042 2.336-.125l-.192-1.99c-.802.077-1.516.115-2.144.115v2zm2.24-.12c.34 0 .864-.014 1.559-.04l-.077-2c-.692.027-1.182.04-1.482.04v2zm1.597-.043c.676-.052 1.25-.077 1.723-.077v-2c-.54 0-1.166.028-1.877.083l.154 1.994zm1.723-.077c2.31 0 4.039.515 5.282 1.442l1.196-1.604c-1.69-1.26-3.882-1.838-6.478-1.838v2zm5.29 1.447c1.18.864 1.83 2.196 1.83 4.193h2c0-2.483-.843-4.485-2.649-5.807l-1.182 1.614zm1.83 4.193c0 1.587-.394 2.85-1.126 3.849l1.613 1.182c1.027-1.4 1.513-3.098 1.513-5.031h-2zm-1.135 3.86a6.777 6.777 0 01-2.901 2.342l.792 1.836a8.777 8.777 0 003.739-3.018l-1.63-1.16zm-2.901 2.342a9.503 9.503 0 01-3.804.798v2c1.58 0 3.115-.323 4.596-.962l-.792-1.836zm-3.804.798c-.724 0-1.271-.063-1.665-.167l-.51 1.934c.62.163 1.353.233 2.175.233v-2zm-1.92-.2a.895.895 0 01.768.436c.118.197.112.363.112.364h-2c0 .134.014.4.173.665.207.345.568.535.947.535v-2zm.88.8c0 .033-.006.06-.011.076l-1.898-.632a1.755 1.755 0 00-.09.556h2zm-.128.315a.787.787 0 01-.305.26.911.911 0 01-.814 0l.894-1.79a1.085 1.085 0 00-.974 0c-.25.126-.395.315-.465.42l1.664 1.11zm-.914.335c.52.13 1.084.19 1.682.19v-2a4.96 4.96 0 01-1.197-.13l-.485 1.94zm1.682.19c2 0 3.733-.661 5.131-1.997l-1.382-1.446c-1.002.957-2.23 1.443-3.749 1.443v2zm5.123-1.99c1.483-1.386 2.157-3.337 2.157-5.69h-2c0 1.967-.552 3.322-1.523 4.23l1.366 1.46zm2.157-5.69c0-2.292-.628-4.218-1.997-5.65l-1.446 1.38c.925.968 1.443 2.348 1.443 4.27h2zm-1.99-5.643c-1.348-1.443-3.086-2.157-5.13-2.157v2c1.53 0 2.725.513 3.67 1.523l1.46-1.366zm-5.13-2.157c-.969 0-1.768.051-2.322.19l.485 1.94c.299-.075.886-.13 1.837-.13v-2zm-2.322.19c-.72.18-1.27.635-1.584 1.307l1.812.846c.06-.128.124-.18.257-.213l-.485-1.94zm-1.572 1.283c-.3.599-.386 1.446-.386 2.367h2c0-.892.1-1.325.175-1.473l-1.79-.894zm-.386 2.367V24.6h2V6.32h-2zm23.039 20.44l-.522.853.007.005.007.004.508-.862zm-4.48-4.72l-.887.461.003.008.004.006.88-.475zm.52-13.56l.814.58.004-.005-.818-.575zm5.32-4.44l-.411-.912-.005.002.416.91zm13.36.32l-.53.848.008.005.522-.853zm4.4 4.68l-.887.462.005.01.882-.472zm-5.52 17.68l-.477-.879-.005.003.482.876zm-.68-.4l-.515-.858-.007.005.522.853zm3.44-3.88l-.895-.447-.005.011.9.436zm-.12-12.76l-.902.432.902-.432zm-3.96-4.56l-.546.838.006.004.54-.842zm-12.8 1.2l-.753-.658.753.658zM110.697 21l-.912.41.002.004.91-.414zm3.92 4.88l-.581.814.008.006.573-.82zm4.32 1.6c-2.32 0-4.354-.534-6.133-1.582l-1.015 1.724c2.116 1.246 4.507 1.858 7.148 1.858v-2zm-6.119-1.573a11.289 11.289 0 01-4.121-4.343l-1.76.951a13.289 13.289 0 004.838 5.098l1.043-1.706zm-4.114-4.328c-.963-1.852-1.447-3.866-1.447-6.059h-2c0 2.5.555 4.833 1.673 6.981l1.774-.922zm-1.447-6.059c0-2.57.646-4.707 1.894-6.46l-1.629-1.16c-1.524 2.14-2.265 4.697-2.265 7.62h2zm1.898-6.465c1.286-1.83 2.922-3.194 4.917-4.105l-.831-1.82c-2.324 1.062-4.235 2.659-5.722 4.775l1.636 1.15zm4.913-4.103c2.065-.932 4.152-1.392 6.269-1.392v-2c-2.417 0-4.783.527-7.091 1.568l.822 1.824zm6.269-1.392c2.369 0 4.407.559 6.15 1.648l1.06-1.696c-2.097-1.31-4.512-1.952-7.21-1.952v2zm6.158 1.653c1.769 1.081 3.108 2.508 4.035 4.289l1.774-.924c-1.1-2.112-2.695-3.806-4.766-5.071l-1.043 1.706zm4.04 4.298a11.971 11.971 0 011.442 5.729h2c0-2.353-.561-4.581-1.678-6.671l-1.764.942zm1.442 5.729c0 2.24-.588 4.281-1.766 6.146l1.691 1.068c1.383-2.189 2.075-4.6 2.075-7.214h-2zm-1.766 6.146c-1.186 1.878-2.778 3.361-4.791 4.455l.954 1.758c2.306-1.253 4.155-2.97 5.528-5.145l-1.691-1.068zm-4.796 4.458c-1.981 1.09-4.135 1.636-6.478 1.636v2c2.67 0 5.156-.627 7.442-1.884l-.964-1.752zm-5.078 2.796c1.983 0 3.793-.484 5.401-1.467l-1.043-1.706c-1.271.777-2.715 1.173-4.358 1.173v2zm5.394-1.463c1.652-.99 2.924-2.44 3.826-4.301l-1.8-.872c-.752 1.551-1.773 2.69-3.055 3.458l1.029 1.715zm3.82-4.29c.937-1.874 1.386-4.06 1.386-6.527h-2c0 2.227-.405 4.093-1.175 5.633l1.789.894zm1.386-6.527c0-2.632-.491-5.01-1.498-7.112l-1.804.864c.859 1.792 1.302 3.867 1.302 6.248h2zm-1.498-7.112c-1.009-2.103-2.449-3.77-4.323-4.97l-1.079 1.684c1.54.987 2.74 2.36 3.598 4.15l1.804-.864zm-4.317-4.966c-1.863-1.212-4.031-1.802-6.465-1.802v2c2.099 0 3.877.504 5.374 1.478l1.091-1.676zm-6.465-1.802c-3.169 0-5.758 1.034-7.633 3.182l1.506 1.316c1.431-1.639 3.429-2.498 6.127-2.498v-2zm-7.633 3.182c-1.857 2.127-2.727 4.987-2.727 8.458h2c0-3.142.783-5.482 2.233-7.142l-1.506-1.316zm-2.727 8.458c0 2.634.491 5.068 1.488 7.29l1.824-.82c-.87-1.938-1.312-4.09-1.312-6.47h-2zm1.49 7.294c.999 2.198 2.413 3.968 4.249 5.28l1.162-1.628c-1.524-1.088-2.723-2.571-3.591-4.48l-1.82.828zm4.257 5.286c1.855 1.296 3.964 1.94 6.293 1.94v-2c-1.938 0-3.643-.529-5.148-1.58l-1.145 1.64zm41.358-23.78l-.181.984.181-.984zm3.12 1.04l-.506.863.049.028.051.023.406-.914zm.44.36l-.929.371.05.123.079.106.8-.6zm.16.6l-.996.09.001.008.995-.098zm.44 4.48h1v-.049l-.005-.049-.995.098zm-.2.16v1h.099l.097-.02-.196-.98zm-.24-.12l-.962.275.006.02.007.021.949-.316zm-3.28-4.52l-.531.847.008.005.008.005.515-.857zm-11.2-.12l.501.865.011-.006-.512-.859zm-3.52 3.76l-.892-.453.892.453zm.28 12.52l-.901.434.004.009.897-.443zm4.16 5l-.578.816.006.004.572-.82zm10.68.28l.593.806.009-.008-.602-.798zm3.24-4.88l.946.323.054-.157v-.166h-1zm.36-.08l-.447.894.063.032.068.023.316-.949zm.12.12l.992.123.008-.061v-.062h-1zm-.56 4.52l.986.164.004-.02.002-.021-.992-.123zm-.2.64l-.8-.6-.017.022-.015.023.832.555zm-.44.28l.389.921.008-.003.009-.004-.406-.914zm-15.64-.4l-.522.853.006.004.006.003.51-.86zm-4.72-4.96l.892-.452-.892.452zm.52-12.92l.82.573-.82-.573zm5.4-4.52l.43.903-.43-.903zm7.2-.6c1.217 0 2.45.114 3.699.344l.362-1.968a22.445 22.445 0 00-4.061-.376v2zm3.699.344c1.242.228 2.158.545 2.795.919l1.012-1.726c-.91-.533-2.074-.909-3.445-1.16l-.362 1.967zm2.895.97c.067.03.079.044.063.03a.53.53 0 01-.146-.213l1.857-.742c-.204-.51-.662-.77-.962-.903l-.812 1.828zm.046.046a.516.516 0 01-.062-.104c-.007-.016-.008-.021-.004-.008a.986.986 0 01.014.07c.005.035.011.079.016.133l1.992-.182c-.028-.303-.093-.758-.356-1.109l-1.6 1.2zm-.035.098l.44 4.48 1.99-.196-.44-4.48-1.99.196zm.435 4.382a.88.88 0 01.325-.68.645.645 0 01.279-.14l.392 1.96c.14-.027.368-.09.579-.26.252-.2.425-.513.425-.88h-2zm.8-.84c.019 0 .137 0 .287.076a.85.85 0 01.422.488l-1.898.632c.237.71.918.804 1.189.804v-2zm.721.605c-.645-2.26-1.878-3.993-3.727-5.102l-1.029 1.714c1.351.811 2.306 2.09 2.833 3.938l1.923-.55zm-3.71-5.092c-1.769-1.11-3.926-1.633-6.411-1.633v2c2.208 0 3.972.464 5.349 1.327l1.062-1.694zm-6.411-1.633c-2.181 0-4.136.49-5.832 1.501l1.024 1.718c1.344-.802 2.935-1.219 4.808-1.219v-2zm-5.821 1.495c-1.694.98-3 2.38-3.911 4.172l1.783.906c.743-1.461 1.784-2.568 3.13-3.348l-1.002-1.73zm-3.911 4.172c-.909 1.789-1.348 3.829-1.348 6.093h2c0-2.002.387-3.723 1.131-5.187l-1.783-.906zm-1.348 6.093c0 2.62.536 5.063 1.619 7.314l1.802-.867c-.944-1.964-1.421-4.108-1.421-6.447h-2zm1.623 7.323c1.106 2.24 2.596 4.04 4.479 5.373l1.156-1.632c-1.584-1.121-2.867-2.653-3.841-4.627l-1.794.886zm4.485 5.377c1.917 1.337 4.008 2.02 6.252 2.02v-2c-1.81 0-3.506-.543-5.108-1.66l-1.144 1.64zm6.252 2.02c2.112 0 3.991-.576 5.593-1.755l-1.186-1.61c-1.225.901-2.679 1.365-4.407 1.365v2zm5.602-1.762c1.615-1.219 2.792-3.036 3.584-5.355l-1.892-.646c-.702 2.054-1.685 3.49-2.897 4.405l1.205 1.596zm3.638-5.678a.895.895 0 01-.36.71.813.813 0 01-.48.17v-2c-.15 0-.444.023-.72.23-.33.248-.44.606-.44.89h2zm-.84.88a.566.566 0 01-.247-.066l.894-1.788a1.437 1.437 0 00-.647-.146v2zm-.116-.011a.779.779 0 01-.301-.192.904.904 0 01-.263-.637h2c0-.718-.593-.998-.804-1.069l-.632 1.898zm-.557-.952l-.56 4.52 1.985.246.56-4.52-1.985-.246zm-.554 4.479a2.083 2.083 0 01-.058.266l-.007.021c.003-.005.018-.038.052-.083l1.6 1.2c.139-.185.217-.39.264-.542a3.95 3.95 0 00.122-.534l-1.973-.328zm-.045.25a.74.74 0 01.119-.14c.022-.018.033-.024.026-.02a2.422 2.422 0 01-.159.08l.812 1.828a3.28 3.28 0 00.421-.22 1.49 1.49 0 00.445-.42l-1.664-1.109zm.003-.087c-2.274.96-4.675 1.441-7.211 1.441v2c2.797 0 5.463-.532 7.989-1.599l-.778-1.842zm-7.211 1.441c-3.069 0-5.562-.614-7.53-1.78l-1.02 1.72c2.351 1.394 5.219 2.06 8.55 2.06v-2zm-7.518-1.773c-1.994-1.221-3.43-2.743-4.35-4.559l-1.784.904c1.106 2.184 2.817 3.969 5.09 5.36l1.044-1.705zm-4.35-4.559a12.804 12.804 0 01-1.412-5.868h-2c0 2.373.544 4.634 1.628 6.772l1.784-.904zm-1.412-5.868c0-2.256.621-4.254 1.86-6.027l-1.64-1.146c-1.481 2.12-2.22 4.522-2.22 7.173h2zm1.86-6.027c1.256-1.799 2.919-3.194 5.01-4.19l-.86-1.806c-2.389 1.138-4.326 2.755-5.79 4.85l1.64 1.146zm5.01-4.19c2.101-1 4.354-1.503 6.77-1.503v-2c-2.704 0-5.251.564-7.63 1.697l.86 1.806zm27.583 14.817l-.163-.987-.149.025-.136.068.448.894zm-.16-.28l-.993.124.008.06.015.059.97-.243zm.08-1.48l-.162-.987-.079.013-.076.025.317.949zm8.56-1.4l.161.987.15-.025.136-.068-.447-.894zm.12.24l-.99.141.009.068.019.066.962-.275zm0 1.2l-.962-.275-.019.066-.009.068.99.141zm-.12.32l.163.987.149-.025.135-.068-.447-.894zm-8.928.506a.965.965 0 01.938.043c.193.121.28.273.298.305.045.079.044.114.022.024l-1.94.485c.03.123.083.311.181.483.045.078.159.262.379.4.289.18.672.221 1.017.048l-.895-1.788zm1.28.49a4.49 4.49 0 01-.032-.556h-2c0 .277.015.545.047.804l1.985-.248zm-.032-.556c0-.239.01-.373.019-.432.005-.034.003.005-.026.076a.825.825 0 01-.123.206.943.943 0 01-.434.299l-.633-1.898c-.46.154-.625.546-.661.635a1.692 1.692 0 00-.101.386c-.031.208-.041.46-.041.728h2zm-.719.187l8.56-1.4-.323-1.974-8.56 1.4.323 1.974zm8.846-1.493a.959.959 0 01-1.272-.407c-.056-.113-.056-.184-.045-.106l1.98-.282a1.674 1.674 0 00-.146-.506 1.083 1.083 0 00-.431-.461 1.037 1.037 0 00-.981-.026l.895 1.788zm-1.289-.38c.026.09.042.196.042.326h2c0-.297-.038-.59-.119-.875l-1.923.55zm.042.326c0 .13-.016.236-.042.325l1.923.55a3.19 3.19 0 00.119-.875h-2zm-.07.459c-.009.061-.013.054.003.01a.712.712 0 01.085-.157.898.898 0 01.334-.286l.895 1.788c.384-.192.521-.542.559-.643.057-.15.086-.305.104-.43l-1.98-.282zm.707-.526l-8.48 1.4.326 1.974 8.48-1.4-.326-1.974zm19.067 9.267l-.522.853.007.005.007.004.508-.862zm-4.48-4.72l-.887.461.003.008.004.006.88-.475zm.52-13.56l.814.58.004-.005-.818-.575zm5.32-4.44l-.412-.912-.004.002.416.91zm13.36.32l-.53.848.008.005.522-.853zm4.4 4.68l-.887.462.005.01.882-.472zm-5.52 17.68l-.478-.879-.004.003.482.876zm-.68-.4l-.515-.858-.007.005.522.853zm3.44-3.88l-.895-.447-.005.011.9.436zm-.12-12.76l-.902.432.902-.432zm-3.96-4.56l-.546.838.006.004.54-.842zm-12.8 1.2l-.753-.658.753.658zM198.119 21l-.913.41.002.004.911-.414zm3.92 4.88l-.582.814.009.006.573-.82zm4.32 1.6c-2.32 0-4.355-.534-6.133-1.582l-1.015 1.724c2.115 1.246 4.507 1.858 7.148 1.858v-2zm-6.119-1.573a11.291 11.291 0 01-4.122-4.343l-1.759.951a13.289 13.289 0 004.838 5.098l1.043-1.706zm-4.114-4.328c-.963-1.852-1.447-3.866-1.447-6.059h-2c0 2.5.555 4.833 1.673 6.981l1.774-.922zm-1.447-6.059c0-2.57.646-4.707 1.894-6.46l-1.629-1.16c-1.524 2.14-2.265 4.697-2.265 7.62h2zm1.898-6.465c1.286-1.83 2.921-3.194 4.917-4.105l-.831-1.82c-2.324 1.062-4.235 2.659-5.722 4.775l1.636 1.15zm4.913-4.103c2.065-.932 4.152-1.392 6.269-1.392v-2c-2.417 0-4.783.527-7.092 1.568l.823 1.824zm6.269-1.392c2.369 0 4.407.559 6.15 1.648l1.06-1.696c-2.098-1.31-4.512-1.952-7.21-1.952v2zm6.158 1.653c1.769 1.081 3.108 2.508 4.035 4.289l1.774-.924c-1.1-2.112-2.695-3.806-4.766-5.071l-1.043 1.706zm4.04 4.298a11.971 11.971 0 011.442 5.729h2c0-2.353-.562-4.581-1.678-6.671l-1.764.942zm1.442 5.729c0 2.24-.588 4.281-1.766 6.146l1.691 1.068c1.382-2.189 2.075-4.6 2.075-7.214h-2zm-1.766 6.146c-1.186 1.878-2.778 3.361-4.792 4.455l.955 1.758c2.306-1.253 4.155-2.97 5.528-5.145l-1.691-1.068zm-4.796 4.458c-1.981 1.09-4.135 1.636-6.478 1.636v2c2.67 0 5.156-.627 7.442-1.884l-.964-1.752zm-5.078 2.796c1.983 0 3.792-.484 5.401-1.467l-1.043-1.706c-1.271.777-2.715 1.173-4.358 1.173v2zm5.394-1.463c1.652-.99 2.924-2.44 3.826-4.301l-1.8-.872c-.752 1.551-1.773 2.69-3.055 3.458l1.029 1.715zm3.82-4.29c.937-1.874 1.386-4.06 1.386-6.527h-2c0 2.227-.405 4.093-1.175 5.633l1.789.894zm1.386-6.527c0-2.632-.491-5.01-1.499-7.112l-1.803.864c.859 1.792 1.302 3.867 1.302 6.248h2zm-1.499-7.112c-1.008-2.103-2.448-3.77-4.322-4.97l-1.079 1.684c1.54.987 2.74 2.36 3.598 4.15l1.803-.864zm-4.316-4.966c-1.863-1.212-4.031-1.802-6.465-1.802v2c2.099 0 3.877.504 5.374 1.478l1.091-1.676zm-6.465-1.802c-3.169 0-5.758 1.034-7.633 3.182l1.506 1.316c1.431-1.639 3.429-2.498 6.127-2.498v-2zm-7.633 3.182c-1.857 2.127-2.727 4.987-2.727 8.458h2c0-3.142.783-5.482 2.233-7.142l-1.506-1.316zm-2.727 8.458c0 2.634.491 5.068 1.487 7.29l1.825-.82c-.87-1.938-1.312-4.09-1.312-6.47h-2zm1.489 7.294c.999 2.198 2.414 3.968 4.25 5.28l1.162-1.628c-1.524-1.088-2.723-2.571-3.591-4.48l-1.821.828zm4.258 5.286c1.855 1.296 3.964 1.94 6.293 1.94v-2c-1.938 0-3.643-.529-5.148-1.58l-1.145 1.64zM225.322 5l-.707-.707-.005.005-.006.006.718.696zm-1.799 4.36l-.984-.179-.016.089v.09h1zm-.44 0l-.994-.11-.006.055v.055h1zm.36-3.76l.996.086-.996-.086zm2.799-2.6l.036-1h-.036v1zm13.041.04l-.015-1h-.016l.031 1zm2.72-.04V2h-.015l.015 1zm2.119-.2l-.267-.964-.007.002-.008.003.282.959zm.92-.8l.949.316.012-.036.01-.037-.971-.243zm.44 0l.995.103.005-.051V2h-1zm-.24 3.52l-.998-.05.998.05zm-.599 3.84h1v-.02l-.001-.018-.999.038zM243.363 5l-.741.672.005.005.005.006.731-.683zm-7.44 21.56l.894-.447-.894.447zm1.08.76l-.243.97.243-.97zm.399.64l.05-.999h-.037l-.013.999zm-3.119-.04l.012-1h-.026l.014 1zm-3 .04l-.014-1h-.018l-.018.001.05.999zm.319-.64l.243.97-.243-.97zm1.08-.76l-.882-.47-.006.011-.006.012.894.447zm.041-22.04l-.881.474.008.015.009.015.864-.504zm-1.041-.64l-.206.979.025.005.026.004.155-.988zm-2.56-1.16c-1.839 0-3.402.469-4.507 1.573l1.415 1.414c.602-.602 1.572-.987 3.092-.987v-2zm-4.518 1.584c-1.034 1.067-1.68 2.758-2.065 4.877l1.967.358c.362-1.988.915-3.204 1.535-3.843l-1.437-1.392zm-2.081 5.056a.95.95 0 01.277-.672.894.894 0 01.346-.217c.117-.038.187-.031.137-.031v2c.109 0 .299-.006.496-.071.17-.057.744-.318.744-1.009h-2zm.76-.92c-.001 0 0 0 0 0-.001 0 0 0 0 0h.002a.318.318 0 01.042.004.74.74 0 01.177.048.944.944 0 01.579.868h-2c0 .241.082.48.244.675.147.177.319.267.434.313.213.086.418.092.522.092v-2zm.793 1.03c.108-.971.229-2.234.363-3.784l-1.993-.172a161.444 161.444 0 01-.357 3.736l1.987.22zm.363-3.784c.134-1.553.204-2.748.204-3.566h-2c0 .729-.064 1.854-.197 3.394l1.993.172zm.204-3.566a.805.805 0 01-.243.557.805.805 0 01-.558.243v-2a1.2 1.2 0 00-.857.343 1.198 1.198 0 00-.342.857h2zm-.801.8a.74.74 0 01-.46-.182.818.818 0 01-.299-.618h2c0-.274-.091-.644-.42-.918a1.269 1.269 0 00-.821-.282v2zm-.759-.8c0 .37.119.723.361 1.018.227.278.521.454.801.568.543.221 1.239.294 1.997.294V2c-.681 0-1.065-.074-1.242-.146-.08-.033-.056-.04-.009.018a.408.408 0 01.092.248h-2zM226.207 4c2.282.08 4.974.12 8.076.12v-2c-3.086 0-5.754-.04-8.005-.12l-.071 2zm8.076.12c1.584 0 3.261-.027 5.03-.08l-.061-2c-1.751.054-3.407.08-4.969.08v2zm5.014-.08l2.72-.04-.029-2-2.72.04.029 2zm2.706-.04c.978 0 1.804-.065 2.402-.24l-.565-1.92c-.309.092-.896.16-1.837.16v2zm2.387-.236c.734-.204 1.342-.671 1.601-1.448l-1.897-.632c-.013.037-.024.05-.038.061a.515.515 0 01-.201.091l.535 1.928zm1.623-1.521a.808.808 0 01-.336.47.724.724 0 01-.394.127v-2c-.191 0-.459.037-.715.208a1.196 1.196 0 00-.496.71l1.941.485zm-.73.597a.775.775 0 01-.475-.18.859.859 0 01-.326-.66h2c0-.274-.096-.638-.425-.9a1.229 1.229 0 00-.774-.26v2zm-.795-.943c-.083.8-.164 1.995-.244 3.572l1.997.102c.08-1.57.159-2.722.236-3.468l-1.989-.206zm-.244 3.572a79.13 79.13 0 00-.122 3.891h2c0-.963.04-2.224.119-3.79l-1.997-.1zm-.122 3.891a.95.95 0 01.278-.672.894.894 0 01.346-.217c.117-.038.187-.031.137-.031v2c.109 0 .299-.006.496-.071.17-.057.743-.318.743-1.009h-2zm.761-.92c-.051 0 .019-.007.136.031.061.02.205.077.346.217a.952.952 0 01.278.672h-2c0 .69.573.952.743 1.009.197.065.387.071.497.071v-2zm.759.882c-.083-2.142-.521-3.906-1.549-5.005l-1.461 1.366c.519.554.934 1.697 1.011 3.715l1.999-.076zm-1.539-4.994c-1.046-1.154-2.666-1.608-4.58-1.608v2c1.658 0 2.598.4 3.099.952l1.481-1.344zm-4.58-1.608c-1.203 0-2.149.051-2.767.181l.413 1.958c.395-.084 1.156-.139 2.354-.139v-2zm-2.767.181c-.697.147-1.347.503-1.714 1.185l1.761.948c.006-.011.05-.109.366-.175l-.413-1.958zm-1.714 1.185c-.313.581-.399 1.386-.399 2.234h2c0-.805.1-1.174.16-1.286l-1.761-.948zm-.399 2.234v18.44h2V6.32h-2zm0 18.44c0 .858.089 1.656.385 2.247l1.789-.894c-.078-.155-.174-.558-.174-1.353h-2zm.385 2.247c.356.711 1.011 1.103 1.732 1.283l.485-1.94c-.346-.087-.41-.202-.428-.237l-1.789.894zm1.732 1.283c.659.165 1.602.23 2.763.23v-2c-1.134 0-1.87-.068-2.278-.17l-.485 1.94zm2.763.23a.91.91 0 01-.805-.493.749.749 0 01-.069-.208c-.004-.02-.005-.035-.006-.044v-.015h2c0-.131-.012-.378-.136-.627a1.094 1.094 0 00-.984-.613v2zm-.88-.76v-.015c.001-.01.002-.024.006-.044a.749.749 0 01.069-.208.91.91 0 01.805-.493v2a1.094 1.094 0 00.984-.613c.124-.249.136-.496.136-.627h-2zm.88-.76a42.82 42.82 0 01-2.071-.039l-.099 1.998c.557.028 1.282.041 2.17.041v-2zm-2.108-.04l-3.12-.04-.025 2 3.12.04.025-2zm-3.146-.04l-3 .04.027 2 3-.04-.027-2zm-3.036.041a45.7 45.7 0 01-2.15.039v2c.939 0 1.692-.013 2.249-.041l-.099-1.998zm-2.15.039c.269 0 .507.113.672.278.14.14.196.285.216.346.039.116.032.187.032.136h-2c0 .11.005.3.071.496.057.17.318.744 1.009.744v-2zm.92.76c0-.05.007.02-.032.136a.886.886 0 01-.216.346.953.953 0 01-.672.278v-2c-.691 0-.952.573-1.009.744a1.558 1.558 0 00-.071.496h2zm-.92.76c1.16 0 2.103-.065 2.762-.23l-.485-1.94c-.408.102-1.144.17-2.277.17v2zm2.762-.23c.721-.18 1.376-.572 1.732-1.283l-1.789-.894c-.018.035-.082.15-.428.237l.485 1.94zm1.72-1.26c.329-.616.438-1.414.438-2.27h-2c0 .744-.105 1.146-.203 1.33l1.765.94zm.438-2.27V6.24h-2v18.52h2zm0-18.52c0-.835-.083-1.652-.417-2.224l-1.727 1.008.009.02a.725.725 0 01.023.063c.018.057.037.137.054.244.036.216.058.509.058.889h2zm-.4-2.194c-.378-.701-1.051-1.041-1.765-1.154l-.311 1.976a.745.745 0 01.271.084c.029.017.037.03.044.042l1.761-.948zM231.889 2.9c-.618-.13-1.564-.181-2.767-.181v2c1.198 0 1.959.055 2.354.139l.413-1.958zm28.305 11.019l-.362-.932.286 1.93.076-.998zm5.08 2.12l-.7.715.008.007.008.007.684-.729zm-1.96 11.16l.471.882.007-.003-.478-.879zm-6.92.84l.077-.997h-.006l-.071.997zm-1.32-.08l.053-.999-.053.999zm-1.68-.04v-1h-.015l.015 1zm-2.72.04l-.015-1h-.02l-.02.002.055.998zm.2-.64l.268.963.024-.006.024-.008-.316-.949zm1-.8l-.894-.447.894.447zm0-22.04l-.919.394.011.027.014.026.894-.447zm-.96-.76l-.316.949.024.008.024.007.268-.964zm-2.2-.72l.02-1h-.02v1zm1.96.04l.048-.999h-.028l-.02.999zm4.04.04l-.062-.998h-.004l.066.998zm1.08-.08l.091.996h.005L255.794 3zm7.36 1.36l-.661.75.01.01.651-.76zm.44 7.24l.767.642.008-.01-.775-.632zm-7.92-7.96l-.294-.956-.011.004-.011.003.316.949zm-.72.76l-.928-.371.928.371zm-.24 9.52h-1v.978l.978.022.022-1zm1.8.04l-.022 1h.022v-1zm4.32-1.48l.727.687.009-.01-.736-.677zm.16-7.6l-.759.65.01.012.01.012.739-.674zm2 21.08l-.726-.688.726.688zm-.36-9.24l-.73.684.008.008.722-.692zm-4.88-1.92l-.031 1h.018l.013-1zm-3.04.08l-.068-.998-.932.064v.934h1zm.28 11.48l-.894.447.012.025.014.024.868-.496zm1.16.84l-.316.949.026.008.027.008.263-.965zm3.964-12.283c1.916.146 3.374.777 4.456 1.838l1.4-1.43c-1.478-1.446-3.407-2.228-5.704-2.402l-.152 1.994zm4.472 1.852c1.099 1.032 1.644 2.299 1.644 3.871h2c0-2.108-.761-3.908-2.276-5.33l-1.368 1.46zm1.644 3.871c0 1.241-.302 2.34-.896 3.323l1.712 1.034c.793-1.311 1.184-2.772 1.184-4.357h-2zm-.896 3.323c-.597.988-1.424 1.773-2.501 2.358l.955 1.758c1.375-.748 2.469-1.777 3.258-3.082l-1.712-1.034zm-2.495 2.355c-1.041.555-2.223.842-3.569.842v2c1.641 0 3.152-.353 4.511-1.078l-.942-1.764zm-3.569.842c-.85 0-1.784-.039-2.803-.117l-.154 1.994a38.75 38.75 0 002.957.123v-2zm-2.809-.117a73.523 73.523 0 00-1.338-.082l-.106 1.998c.503.026.936.052 1.302.079l.142-1.995zm-1.338-.082a33.161 33.161 0 00-1.733-.041v2c.599 0 1.141.013 1.627.039l.106-1.998zm-1.748-.04l-2.72.04.03 1.999 2.72-.04-.03-2zm-2.76.04a38.4 38.4 0 01-1.985.039v2c.886 0 1.588-.013 2.096-.041l-.111-1.997zm-1.985.039c.269 0 .507.113.672.278a.89.89 0 01.217.346c.039.116.031.187.031.136h-2c0 .11.006.3.071.496.057.17.318.744 1.009.744v-2zm.92.76c0-.05.008.02-.031.136a.892.892 0 01-.217.346.953.953 0 01-.672.278v-2c-.691 0-.952.573-1.009.744a1.588 1.588 0 00-.071.496h2zm-.92.76c1.031 0 1.891-.065 2.508-.236l-.536-1.927c-.343.095-.976.163-1.972.163v2zm2.556-.251c.675-.225 1.249-.642 1.578-1.302l-1.788-.894c-.044.087-.137.203-.422.298l.632 1.898zm1.578-1.302c.295-.588.386-1.369.386-2.207h-2c0 .762-.095 1.155-.174 1.313l1.788.894zm.386-2.207V6.24h-2v18.52h2zm0-18.52c0-.838-.091-1.619-.386-2.207l-1.788.894c.079.158.174.551.174 1.313h2zm-.361-2.154c-.306-.715-.912-1.135-1.611-1.33l-.536 1.928c.261.072.295.158.309.19l1.838-.788zM251.23 2.77c-.638-.212-1.504-.291-2.516-.291v2c.961 0 1.562.081 1.884.189l.632-1.898zm-2.516-.291a.907.907 0 01.804.493.728.728 0 01.076.267h-2c0 .131.011.378.136.627a1.092 1.092 0 00.984.613v-2zm.88.76l-.001.015a.728.728 0 01-.075.252.907.907 0 01-.804.493V2a1.092 1.092 0 00-.984.613 1.393 1.393 0 00-.136.627h2zm-.9.76l1.96.04.04-2-1.96-.04-.04 2zm1.932.039c1.128.054 2.052.081 2.768.081v-2c-.671 0-1.56-.026-2.672-.079l-.096 1.998zm2.768.081c.498 0 .961-.014 1.387-.042l-.133-1.996c-.375.025-.792.038-1.254.038v2zm1.382-.042c.433-.027.803-.054 1.109-.082l-.181-1.992c-.281.026-.631.052-1.052.078l.124 1.996zm1.114-.083c.8-.077 1.541-.115 2.224-.115v-2c-.757 0-1.562.042-2.416.125l.192 1.99zm2.224-.115c2.115 0 3.514.469 4.379 1.23l1.322-1.5c-1.375-1.212-3.336-1.73-5.701-1.73v2zm4.389 1.24c.882.755 1.331 1.736 1.331 3.04h2c0-1.843-.671-3.395-2.029-4.56l-1.302 1.52zm1.331 3.04c0 1.044-.33 1.969-1.015 2.808l1.55 1.264c.969-1.188 1.465-2.556 1.465-4.072h-2zm-1.006 2.798c-.699.834-1.682 1.519-2.996 2.03l.725 1.864c1.565-.609 2.849-1.47 3.804-2.61l-1.533-1.284zm-5.594-8.478c-.72 0-1.361.053-1.854.204l.588 1.912c.2-.062.599-.116 1.266-.116v-2zm-1.876.211c-.673.225-1.096.746-1.332 1.338l1.857.742a.554.554 0 01.097-.173l.01-.01c-.001.001-.002.001 0 0l-.632-1.897zm-1.332 1.338c-.235.587-.312 1.389-.312 2.291h2c0-.857.083-1.336.169-1.549l-1.857-.742zm-.312 2.291v7.6h2v-7.6h-2zm.978 8.6l1.8.04.044-2-1.8-.04-.044 2zm1.822.04c2.101 0 3.855-.533 5.047-1.793l-1.453-1.374c-.675.713-1.801 1.167-3.594 1.167v2zm5.056-1.803c1.136-1.233 1.664-2.826 1.664-4.677h-2c0 1.455-.405 2.53-1.135 3.322l1.471 1.356zm1.664-4.677c0-1.686-.472-3.145-1.501-4.274l-1.478 1.348c.624.684.979 1.625.979 2.926h2zm-1.481-4.25c-1.055-1.232-2.639-1.75-4.519-1.75v2c1.533 0 2.456.415 3.001 1.05l1.518-1.3zm-3.079 24.21c2.101 0 3.855-.533 5.047-1.793l-1.453-1.374c-.675.713-1.801 1.167-3.594 1.167v2zm5.046-1.792c1.189-1.255 1.714-2.974 1.714-5.008h-2c0 1.7-.434 2.86-1.166 3.632l1.452 1.376zm1.714-5.008c0-2.238-.67-4.141-2.078-5.612l-1.444 1.384c.992 1.036 1.522 2.413 1.522 4.228h2zm-2.07-5.603c-1.398-1.493-3.307-2.208-5.597-2.237l-.026 2c1.87.024 3.214.59 4.163 1.603l1.46-1.366zm-5.579-2.236a32.31 32.31 0 00-3.139.081l.136 1.996a30.251 30.251 0 012.941-.079l.062-1.998zm-4.071 1.079v9.88h2v-9.88h-2zm0 9.88c0 .758.098 1.472.386 2.047l1.788-.894c-.085-.172-.174-.525-.174-1.153h-2zm.412 2.096c.374.655 1.006 1.057 1.712 1.293l.632-1.898c-.414-.138-.556-.296-.608-.387l-1.736.992zm1.765 1.309c.715.195 1.66.275 2.783.275v-2c-1.063 0-1.798-.08-2.257-.205l-.526 1.93zm32.328-6.125l.983.18.017-.09v-.09h-1zm.36-.04l-.447.894.063.032.068.023.316-.949zm.12.12l.99.141.01-.07v-.071h-1zm-.52 5.76l.707.707-.707-.707zm-15.04-.56l-.268-.963-.007.002-.007.002.282.959zm.96-.76l-.906-.423-.007.014-.006.015.919.394zm0-22.08l-.919.394.011.027.013.026.895-.447zm-.96-.76l-.333.943.032.011.033.01.268-.964zm14.24-.36h-1v.016l1-.016zm.08 4.92h1v-.016l-1 .016zm-.2.16v1h.099l.097-.02-.196-.98zm-.24-.12l-.999.057.008.133.042.126.949-.316zm-1.28-3.28l-.719.695.006.006.006.006.707-.707zm-7.6-.96l.298.954.017-.005.018-.006-.333-.943zm-.92.76l-.895-.447-.007.014-.006.014.908.419zm-.24 9.72h-1v1h1v-1zm7.6-.64l-.606-.795-.01.007-.009.007.625.781zm1.32-2.16l1 .012v-.012h-1zm-.04 3.24l-1-.012V15h1zm.04 1.76l1-.02-.001-.024-.001-.023-.998.067zm.04 1.92h1v-.02l-1 .02zm-1.36-2.52l-.671.741.008.008.009.008.654-.757zm-7.6-.76v-1h-1v1h1zm.24 10.84l-.908.42.908-.42zm.88.72l.298-.954-.298.954zm8.4-1.16l-.728-.685.728.685zm2.72-3.76a.944.944 0 01-.513.834.819.819 0 01-.327.086v-2a1.26 1.26 0 00-.567.126 1.062 1.062 0 00-.593.954h2zm-.84.92a.566.566 0 01-.247-.066l.894-1.788a1.44 1.44 0 00-.647-.146v2zm-.116-.011a.779.779 0 01-.301-.192.904.904 0 01-.263-.637h2c0-.718-.593-.998-.804-1.069l-.632 1.898zm-.554-.97a38.358 38.358 0 00-.37 5.421h2c0-1.797.117-3.51.35-5.139l-1.98-.282zm-.37 5.421c0 .026-.004.009.011-.036a.506.506 0 01.122-.191l1.414 1.414c.36-.36.453-.82.453-1.187h-2zm.133-.227a.639.639 0 01.284-.173c.027-.007.014 0-.057 0v2c.168 0 .356-.013.542-.06a1.37 1.37 0 00.645-.353l-1.414-1.414zm.227-.173h-16.76v2h16.76v-2zm-16.76 0c.269 0 .507.113.672.278.14.14.196.285.216.346.039.116.032.187.032.136h-2c0 .11.006.3.071.496.057.17.318.744 1.009.744v-2zm.92.76c0-.05.007.02-.032.136a.886.886 0 01-.216.346.953.953 0 01-.672.278v-2c-.691 0-.952.573-1.009.744a1.588 1.588 0 00-.071.496h2zm-.92.76c1.025 0 1.882-.064 2.482-.24l-.564-1.92c-.307.09-.917.16-1.918.16v2zm2.467-.236c.7-.195 1.305-.615 1.612-1.33l-1.838-.788c-.014.032-.048.118-.309.19l.535 1.927zm1.599-1.301c.28-.6.374-1.377.374-2.223h-2c0 .754-.093 1.177-.186 1.377l1.812.846zm.374-2.223V6.24h-2v18.52h2zm0-18.52c0-.838-.092-1.619-.386-2.207l-1.789.894c.079.158.175.551.175 1.313h2zm-.361-2.154c-.307-.715-.912-1.135-1.612-1.33l-.535 1.928c.261.072.295.158.309.19l1.838-.788zm-1.546-1.309c-.625-.22-1.504-.297-2.533-.297v2c.997 0 1.584.083 1.867.183l.666-1.886zm-2.533-.297c.269 0 .507.113.672.278.14.14.196.285.216.346.039.116.032.187.032.136h-2c0 .11.006.3.071.496.057.17.318.744 1.009.744v-2zm.92.76c0-.05.007.02-.032.136a.887.887 0 01-.216.346.952.952 0 01-.672.278V2c-.691 0-.952.573-1.009.744a1.588 1.588 0 00-.071.496h2zm-.92.76h16.08V2h-16.08v2zm16.08 0a.65.65 0 01-.437-.203.65.65 0 01-.203-.437h2a1.36 1.36 0 00-.383-.977 1.36 1.36 0 00-.977-.383v2zm-.64-.624l.08 4.92 2-.032-.08-4.92-2 .032zm.08 4.904a.88.88 0 01.325-.68.645.645 0 01.279-.14l.392 1.96c.14-.027.368-.09.578-.26a1.12 1.12 0 00.426-.88h-2zm.8-.84c.018 0 .137 0 .287.076.181.09.345.26.421.488l-1.897.632c.237.71.918.804 1.189.804v-2zm.758.823c-.09-1.584-.578-2.937-1.571-3.93l-1.414 1.414c.553.554.918 1.387.988 2.63l1.997-.114zm-1.559-3.918c-.991-1.025-2.293-1.505-3.799-1.505v2c1.053 0 1.805.32 2.361.895l1.438-1.39zm-3.799-1.505h-2.44v2h2.44v-2zm-2.44 0c-.961 0-1.794.079-2.413.297l.666 1.886c.287-.102.841-.183 1.747-.183v-2zm-2.379.286c-.665.208-1.198.632-1.516 1.267l1.789.894c.056-.111.136-.194.324-.253l-.597-1.908zm-1.529 1.295c-.253.549-.332 1.26-.332 2.019h2c0-.681.081-1.036.148-1.18l-1.816-.84zm-.332 2.019v8.12h2V6.44h-2zm1 9.12h4.88v-2h-4.88v2zm4.88 0c1.334 0 2.534-.211 3.344-.86l-1.249-1.56c-.257.204-.87.42-2.095.42v2zm3.326-.845c.904-.688 1.234-1.774 1.234-2.955h-2c0 .845-.23 1.2-.446 1.365l1.212 1.59zm1.234-2.955a.95.95 0 01-.278.672.887.887 0 01-.346.217c-.116.039-.187.031-.136.031v-2c-.109 0-.3.006-.496.071-.171.057-.744.318-.744 1.009h2zm-.76.92c.051 0-.02.008-.136-.031a.887.887 0 01-.346-.217.952.952 0 01-.278-.672h2c0-.69-.573-.952-.744-1.009a1.576 1.576 0 00-.496-.071v2zm-.76-.932l-.04 3.24 2 .024.04-3.24-2-.024zm-.04 3.252c0 .78.013 1.392.042 1.826l1.996-.133a27.254 27.254 0 01-.038-1.693h-2zm.04 1.78l.04 1.92 2-.04-.04-1.92-2 .04zm.04 1.9a.95.95 0 01.278-.672.887.887 0 01.346-.217c.116-.038.187-.031.136-.031v2c.109 0 .3-.006.496-.071.171-.057.744-.318.744-1.009h-2zm.76-.92c-.051 0 .02-.008.136.031.061.02.205.076.346.217a.952.952 0 01.278.672h-2c0 .69.573.952.744 1.009.196.065.387.071.496.071v-2zm.76.92c0-1.314-.327-2.5-1.227-3.277l-1.307 1.514c.274.236.534.73.534 1.763h2zm-1.209-3.261c-.841-.761-2.102-1.019-3.511-1.019v2c1.258 0 1.89.249 2.169.502l1.342-1.484zm-3.511-1.019h-4.76v2h4.76v-2zm-5.76 1v9.2h2v-9.2h-2zm0 9.2c0 .78.077 1.507.332 2.06l1.816-.84c-.066-.14-.148-.506-.148-1.22h-2zm.332 2.06c.299.647.844 1.053 1.489 1.255l.597-1.91c-.207-.064-.249-.138-.27-.184l-1.816.838zm1.489 1.255c.579.18 1.373.245 2.299.245v-2c-.887 0-1.427-.069-1.702-.154l-.597 1.909zm2.299.245h3.2v-2h-3.2v2zm3.2 0c1.547 0 2.88-.56 3.928-1.675l-1.456-1.37c-.659.7-1.459 1.045-2.472 1.045v2zm3.928-1.675c1.02-1.084 1.658-2.532 1.975-4.265l-1.967-.36c-.269 1.467-.778 2.525-1.464 3.255l1.456 1.37zM294.463 5l-.707-.707-.006.005-.005.006.718.696zm-1.8 4.36l-.984-.179-.016.089v.09h1zm-.44 0l-.994-.11-.006.055v.055h1zm.36-3.76l.996.086-.996-.086zm2.8-2.6l.035-1h-.035v1zm13.04.04l-.015-1h-.015l.03 1zm2.72-.04V2h-.015l.015 1zm2.12-.2l-.268-.964-.007.002-.007.003.282.959zm.92-.8l.949.316.012-.036.009-.037-.97-.243zm.44 0l.995.103.005-.051V2h-1zm-.24 3.52l-.999-.05.999.05zm-.6 3.84h1v-.02l-.001-.018-.999.038zM312.503 5l-.741.672.005.005.006.006.73-.683zm-7.44 21.56l.895-.447-.895.447zm1.08.76l-.242.97.242-.97zm.4.64l.05-.999h-.037l-.013.999zm-3.12-.04l.013-1h-.026l.013 1zm-3 .04l-.013-1h-.019l-.018.001.05.999zm.32-.64l.243.97-.243-.97zm1.08-.76l-.882-.47-.006.011-.006.012.894.447zm.04-22.04l-.88.474.008.015.008.015.864-.504zm-1.04-.64l-.206.979.025.005.025.004.156-.988zm-2.56-1.16c-1.839 0-3.403.469-4.507 1.573l1.414 1.414c.603-.602 1.573-.987 3.093-.987v-2zm-4.518 1.584c-1.034 1.067-1.681 2.758-2.066 4.877l1.968.358c.361-1.988.915-3.204 1.534-3.843l-1.436-1.392zm-2.082 5.056a.95.95 0 01.278-.672.887.887 0 01.346-.217c.116-.038.187-.031.136-.031v2c.109 0 .3-.006.496-.071.171-.057.744-.318.744-1.009h-2zm.76-.92h.01l.035.004a.752.752 0 01.177.048.912.912 0 01.359.263c.145.174.219.39.219.605h-2a1.054 1.054 0 00.679.988c.213.086.417.092.521.092v-2zm.794 1.03c.108-.971.229-2.234.362-3.784l-1.992-.172a155.21 155.21 0 01-.358 3.736l1.988.22zm.362-3.784c.134-1.553.204-2.748.204-3.566h-2c0 .729-.063 1.854-.196 3.394l1.992.172zm.204-3.566a.8.8 0 01-.243.557.802.802 0 01-.557.243v-2a1.2 1.2 0 00-.857.343 1.2 1.2 0 00-.343.857h2zm-.8.8a.74.74 0 01-.46-.182.82.82 0 01-.3-.618h2c0-.274-.091-.644-.42-.918a1.268 1.268 0 00-.82-.282v2zm-.76-.8c0 .37.12.723.361 1.018.228.278.521.454.802.568.542.221 1.239.294 1.997.294V2c-.682 0-1.065-.074-1.243-.146-.079-.033-.055-.04-.008.018a.413.413 0 01.091.248h-2zM295.348 4c2.282.08 4.974.12 8.075.12v-2c-3.085 0-5.753-.04-8.005-.12l-.07 2zm8.075.12c1.585 0 3.261-.027 5.03-.08l-.06-2c-1.751.054-3.408.08-4.97.08v2zm5.015-.08l2.72-.04-.03-2-2.72.04.03 2zm2.705-.04c.978 0 1.805-.065 2.402-.24l-.564-1.92c-.309.092-.896.16-1.838.16v2zm2.388-.236c.733-.204 1.342-.671 1.601-1.448l-1.898-.632a.12.12 0 01-.037.061.524.524 0 01-.202.091l.536 1.928zm1.622-1.521a.802.802 0 01-.335.47.726.726 0 01-.395.127v-2c-.19 0-.458.037-.715.208a1.194 1.194 0 00-.495.71l1.94.485zm-.73.597a.778.778 0 01-.475-.18.857.857 0 01-.325-.66h2c0-.274-.097-.638-.425-.9a1.23 1.23 0 00-.775-.26v2zm-.795-.943c-.082.8-.163 1.995-.244 3.572l1.998.102c.08-1.57.159-2.722.236-3.468l-1.99-.206zm-.244 3.572a80.213 80.213 0 00-.121 3.891h2c0-.963.039-2.224.119-3.79l-1.998-.1zm-.121 3.891a.95.95 0 01.278-.672.887.887 0 01.346-.217c.116-.038.187-.031.136-.031v2c.109 0 .3-.006.496-.071.171-.057.744-.318.744-1.009h-2zm.76-.92c-.051 0 .02-.007.136.031a.89.89 0 01.346.217.952.952 0 01.278.672h-2c0 .69.573.952.744 1.009.196.065.387.071.496.071v-2zm.759.882c-.082-2.142-.52-3.906-1.549-5.005l-1.46 1.366c.518.554.933 1.697 1.011 3.715l1.998-.076zm-1.538-4.994c-1.046-1.154-2.666-1.608-4.581-1.608v2c1.659 0 2.599.4 3.099.952l1.482-1.344zm-4.581-1.608c-1.203 0-2.148.051-2.766.181l.412 1.958c.396-.084 1.157-.139 2.354-.139v-2zm-2.766.181c-.698.147-1.347.503-1.714 1.185l1.761.948c.006-.011.05-.109.365-.175l-.412-1.958zm-1.714 1.185c-.313.581-.4 1.386-.4 2.234h2c0-.805.1-1.174.161-1.286l-1.761-.948zm-.4 2.234v18.44h2V6.32h-2zm0 18.44c0 .858.09 1.656.386 2.247l1.789-.894c-.078-.155-.175-.558-.175-1.353h-2zm.386 2.247c.355.711 1.011 1.103 1.732 1.283l.485-1.94c-.346-.087-.411-.202-.428-.237l-1.789.894zm1.732 1.283c.659.165 1.602.23 2.762.23v-2c-1.133 0-1.87-.068-2.277-.17l-.485 1.94zm2.762.23a.907.907 0 01-.804-.493.728.728 0 01-.075-.252l-.001-.015h2c0-.131-.011-.378-.135-.627a1.092 1.092 0 00-.985-.613v2zm-.88-.76l.001-.015a.728.728 0 01.075-.252.907.907 0 01.804-.493v2a1.092 1.092 0 00.985-.613c.124-.249.135-.496.135-.627h-2zm.88-.76c-.872 0-1.56-.013-2.07-.039l-.1 1.998c.557.028 1.283.041 2.17.041v-2zm-2.107-.04l-3.12-.04-.026 2 3.12.04.026-2zm-3.146-.04l-3 .04.026 2 3-.04-.026-2zm-3.037.041a45.67 45.67 0 01-2.15.039v2c.94 0 1.692-.013 2.25-.041l-.1-1.998zm-2.15.039c.269 0 .507.113.672.278a.89.89 0 01.217.346c.039.116.031.187.031.136h-2c0 .11.006.3.071.496.057.17.318.744 1.009.744v-2zm.92.76c0-.05.008.02-.031.136a.892.892 0 01-.217.346.953.953 0 01-.672.278v-2c-.691 0-.952.573-1.009.744a1.588 1.588 0 00-.071.496h2zm-.92.76c1.16 0 2.104-.065 2.763-.23l-.485-1.94c-.408.102-1.145.17-2.278.17v2zm2.763-.23c.721-.18 1.376-.572 1.732-1.283l-1.789-.894c-.018.035-.083.15-.428.237l.485 1.94zm1.719-1.26c.33-.616.438-1.414.438-2.27h-2c0 .744-.105 1.146-.202 1.33l1.764.94zm.438-2.27V6.24h-2v18.52h2zm0-18.52c0-.835-.082-1.652-.416-2.224l-1.728 1.008.01.02a1.708 1.708 0 01.077.307c.035.216.057.509.057.889h2zm-.399-2.194c-.378-.701-1.052-1.041-1.765-1.154l-.312 1.976a.753.753 0 01.272.084c.029.017.037.03.044.042l1.761-.948zM301.029 2.9c-.618-.13-1.563-.181-2.766-.181v2c1.197 0 1.959.055 2.354.139l.412-1.958z" fill="#A4C700"/></svg>