<svg width="165" height="30" fill="none" xmlns="http://www.w3.org/2000/svg"><path d="M8 26.76l-.521.853.006.005.007.004L8 26.76zm-4.48-4.72l-.887.461.003.008.004.006.88-.475zm.52-13.56l.814.58.004-.005-.818-.575zm5.32-4.44l-.411-.912-.004.002.415.91zm13.36.32l-.53.848.009.005.521-.853zm4.4 4.68l-.887.462.005.01.882-.472zM21.6 26.72l-.477-.879-.005.003.482.876zm-.68-.4l-.515-.858-.006.005.521.853zm3.44-3.88l-.895-.447-.005.011.9.436zm-.12-12.76l-.902.432.902-.432zm-3.96-4.56l-.546.838.007.004.539-.842zm-12.8 1.2l-.753-.658.753.658zM6.4 21l-.912.41.002.004L6.4 21zm3.92 4.88l-.581.814.008.006.573-.82zm4.32 1.6c-2.32 0-4.354-.534-6.132-1.582l-1.016 1.724C9.608 28.868 12 29.48 14.64 29.48v-2zm-6.119-1.573A11.288 11.288 0 014.4 21.564l-1.76.951a13.287 13.287 0 004.839 5.098l1.042-1.706zm-4.114-4.328c-.963-1.852-1.447-3.866-1.447-6.059h-2c0 2.5.556 4.833 1.673 6.981l1.774-.922zM2.96 15.52c0-2.57.646-4.707 1.894-6.46L3.226 7.9C1.7 10.04.96 12.597.96 15.52h2zm1.898-6.465C6.144 7.225 7.78 5.86 9.775 4.95l-.83-1.82C6.62 4.192 4.709 5.79 3.222 7.905l1.636 1.15zm4.913-4.103c2.065-.932 4.152-1.392 6.269-1.392v-2c-2.417 0-4.783.527-7.091 1.568l.822 1.824zM16.04 3.56c2.369 0 4.407.559 6.15 1.648l1.06-1.696c-2.097-1.31-4.512-1.952-7.21-1.952v2zm6.159 1.653c1.768 1.081 3.107 2.508 4.034 4.289l1.774-.924c-1.1-2.112-2.695-3.806-4.766-5.071L22.2 5.213zm4.039 4.298a11.968 11.968 0 011.442 5.729h2c0-2.353-.561-4.581-1.678-6.671l-1.764.942zm1.442 5.729c0 2.24-.588 4.281-1.765 6.146l1.69 1.068c1.383-2.189 2.075-4.6 2.075-7.214h-2zm-1.765 6.146c-1.187 1.878-2.778 3.361-4.792 4.455l.954 1.758c2.306-1.253 4.155-2.97 5.528-5.145l-1.69-1.068zm-4.797 4.458c-1.981 1.09-4.135 1.636-6.478 1.636v2c2.67 0 5.157-.627 7.442-1.884l-.964-1.752zM16.04 28.64c1.983 0 3.793-.484 5.402-1.467l-1.043-1.706c-1.272.777-2.715 1.173-4.359 1.173v2zm5.395-1.463c1.65-.99 2.923-2.44 3.825-4.301l-1.8-.872c-.751 1.551-1.772 2.69-3.055 3.458l1.03 1.715zm3.82-4.29c.936-1.874 1.385-4.06 1.385-6.527h-2c0 2.227-.405 4.093-1.174 5.633l1.788.894zm1.385-6.527c0-2.632-.49-5.01-1.498-7.112l-1.804.864c.86 1.792 1.302 3.867 1.302 6.248h2zm-1.498-7.112c-1.008-2.103-2.45-3.77-4.323-4.97l-1.078 1.684c1.54.987 2.739 2.36 3.597 4.15l1.804-.864zm-4.316-4.966C18.963 3.07 16.794 2.48 14.36 2.48v2c2.1 0 3.877.504 5.375 1.478l1.09-1.676zM14.36 2.48c-3.169 0-5.758 1.034-7.633 3.182l1.506 1.316c1.431-1.639 3.43-2.498 6.127-2.498v-2zM6.727 5.662C4.87 7.79 4 10.65 4 14.12h2c0-3.142.784-5.482 2.233-7.142L6.727 5.662zM4 14.12c0 2.634.491 5.068 1.488 7.29l1.824-.82C6.442 18.653 6 16.5 6 14.12H4zm1.49 7.294c.999 2.198 2.413 3.968 4.249 5.28l1.162-1.628c-1.524-1.088-2.723-2.571-3.59-4.48l-1.821.828zM9.747 26.7c1.855 1.296 3.964 1.94 6.293 1.94v-2c-1.938 0-3.642-.529-5.147-1.58L9.747 26.7zM33.604 5l-.707-.707-.006.005-.005.006.718.696zm-1.8 4.36l-.984-.179-.016.089v.09h1zm-.44 0l-.994-.11-.006.055v.055h1zm.36-3.76l.996.086-.996-.086zm2.8-2.6l.035-1h-.035v1zm13.04.04l-.015-1h-.016l.03 1zm2.72-.04V2h-.015l.015 1zm2.12-.2l-.268-.964-.007.002-.007.003.282.959zm.92-.8l.948.316.013-.036.009-.037-.97-.243zm.44 0l.994.103.006-.051V2h-1zm-.24 3.52l-.999-.05.999.05zm-.6 3.84h1v-.02l-.001-.018-1 .038zM51.644 5l-.741.672.005.005.005.006.73-.683zm-7.44 21.56l.894-.447-.894.447zm1.08.76l-.243.97.243-.97zm.4.64l.05-.999h-.037l-.013.999zm-3.12-.04l.013-1h-.027l.014 1zm-3 .04l-.014-1h-.018l-.018.001.05.999zm.32-.64l.242.97-.242-.97zm1.08-.76l-.883-.47-.006.011-.006.012.895.447zm.04-22.04l-.88.474.007.015.009.015.864-.504zm-1.04-.64l-.206.979.025.005.025.004.156-.988zm-2.56-1.16c-1.84 0-3.403.469-4.507 1.573l1.414 1.414c.602-.602 1.572-.987 3.093-.987v-2zm-4.519 1.584c-1.033 1.067-1.68 2.758-2.065 4.877l1.968.358c.361-1.988.915-3.204 1.534-3.843l-1.437-1.392zm-2.08 5.056a.95.95 0 01.278-.672.89.89 0 01.345-.217c.117-.038.188-.031.137-.031v2c.109 0 .3-.006.496-.071.17-.057.744-.318.744-1.009h-2zm.76-.92h.002a.29.29 0 01.042.004.743.743 0 01.177.048.91.91 0 01.36.263c.145.174.219.39.219.605h-2c0 .241.082.48.244.675.147.177.319.267.434.313.214.086.418.092.522.092v-2zm.794 1.03c.108-.971.228-2.234.362-3.784l-1.993-.172a158.806 158.806 0 01-.357 3.736l1.988.22zm.362-3.784c.134-1.553.204-2.748.204-3.566h-2c0 .729-.064 1.854-.197 3.394l1.993.172zm.204-3.566a.804.804 0 01-.243.557.804.804 0 01-.557.243v-2a1.2 1.2 0 00-.857.343 1.2 1.2 0 00-.343.857h2zm-.8.8a.74.74 0 01-.46-.182.82.82 0 01-.3-.618h2c0-.274-.091-.644-.42-.918a1.268 1.268 0 00-.82-.282v2zm-.76-.8c0 .37.12.723.36 1.018.228.278.522.454.802.568.543.221 1.24.294 1.998.294V2c-.682 0-1.065-.074-1.243-.146-.08-.033-.056-.04-.008.018a.412.412 0 01.09.248h-2zM34.489 4c2.281.08 4.974.12 8.075.12v-2c-3.086 0-5.753-.04-8.005-.12l-.07 2zm8.075.12c1.584 0 3.261-.027 5.03-.08l-.06-2c-1.752.054-3.408.08-4.97.08v2zm5.014-.08l2.72-.04-.029-2-2.72.04.03 2zM50.285 4c.978 0 1.805-.065 2.402-.24l-.564-1.92c-.31.092-.897.16-1.838.16v2zm2.387-.236c.734-.204 1.343-.671 1.601-1.448l-1.897-.632a.121.121 0 01-.037.061.522.522 0 01-.202.091l.535 1.928zm1.623-1.521a.807.807 0 01-.335.47.725.725 0 01-.395.127v-2c-.19 0-.459.037-.715.208a1.193 1.193 0 00-.495.71l1.94.485zm-.73.597a.776.776 0 01-.475-.18.858.858 0 01-.325-.66h2a1.14 1.14 0 00-.426-.9 1.23 1.23 0 00-.774-.26v2zm-.795-.943c-.083.8-.164 1.995-.244 3.572l1.998.102c.08-1.57.158-2.722.235-3.468l-1.989-.206zm-.244 3.572a79.739 79.739 0 00-.121 3.891h2c0-.963.039-2.224.118-3.79l-1.997-.1zm-.121 3.891a.95.95 0 01.278-.672.89.89 0 01.346-.217c.116-.038.187-.031.136-.031v2c.109 0 .3-.006.496-.071.17-.057.744-.318.744-1.009h-2zm.76-.92c-.051 0 .02-.007.136.031a.89.89 0 01.346.217.952.952 0 01.278.672h-2c0 .69.573.952.743 1.009.197.065.388.071.497.071v-2zm.759.882c-.082-2.142-.52-3.906-1.549-5.005l-1.46 1.366c.518.554.933 1.697 1.01 3.715l1.999-.076zm-1.538-4.994C51.34 3.174 49.72 2.72 47.805 2.72v2c1.658 0 2.598.4 3.099.952l1.482-1.344zM47.804 2.72c-1.203 0-2.148.051-2.766.181l.412 1.958c.395-.084 1.157-.139 2.354-.139v-2zm-2.766.181c-.698.147-1.347.503-1.715 1.185l1.761.948c.006-.011.05-.109.366-.175L45.038 2.9zm-1.715 1.185c-.313.581-.4 1.386-.4 2.234h2c0-.805.1-1.174.161-1.286l-1.76-.948zm-.4 2.234v18.44h2V6.32h-2zm0 18.44c0 .858.09 1.656.386 2.247l1.79-.894c-.078-.155-.175-.558-.175-1.353h-2zm.386 2.247c.356.711 1.011 1.103 1.732 1.283l.485-1.94c-.345-.087-.41-.202-.428-.237l-1.789.894zm1.732 1.283c.66.165 1.603.23 2.763.23v-2c-1.134 0-1.87-.068-2.278-.17l-.485 1.94zm2.763.23a.908.908 0 01-.805-.493.74.74 0 01-.075-.252v-.015h2c0-.131-.011-.378-.136-.627a1.093 1.093 0 00-.984-.613v2zm-.88-.76v-.015c.001-.01.002-.024.006-.044a.74.74 0 01.07-.208.908.908 0 01.805-.493v2a1.093 1.093 0 00.983-.613c.125-.249.136-.496.136-.627h-2zm.88-.76c-.873 0-1.56-.013-2.07-.039l-.1 1.998c.557.028 1.282.041 2.17.041v-2zm-2.107-.04l-3.12-.04-.026 2 3.12.04.026-2zm-3.147-.04l-3 .04.027 2 3-.04-.027-2zm-3.036.041a45.67 45.67 0 01-2.15.039v2c.94 0 1.692-.013 2.25-.041l-.1-1.998zm-2.15.039c.269 0 .507.113.672.278a.89.89 0 01.216.346c.04.116.032.187.032.136h-2c0 .11.006.3.071.496.057.17.318.744 1.009.744v-2zm.92.76c0-.05.007.02-.032.136a.89.89 0 01-.216.346.952.952 0 01-.672.278v-2c-.691 0-.952.573-1.009.744a1.575 1.575 0 00-.071.496h2zm-.92.76c1.16 0 2.103-.065 2.762-.23l-.485-1.94c-.407.102-1.144.17-2.277.17v2zm2.762-.23c.721-.18 1.377-.572 1.732-1.283l-1.789-.894c-.017.035-.082.15-.428.237l.485 1.94zm1.72-1.26c.33-.616.438-1.414.438-2.27h-2c0 .744-.105 1.146-.203 1.33l1.765.94zm.438-2.27V6.24h-2v18.52h2zm0-18.52c0-.835-.083-1.652-.416-2.224L40.14 5.024l.01.02a1.789 1.789 0 01.077.307c.035.216.057.509.057.889h2zm-.4-2.194c-.377-.701-1.051-1.041-1.764-1.154l-.312 1.976a.753.753 0 01.272.084c.028.017.036.03.043.042l1.761-.948zM40.17 2.9c-.618-.13-1.563-.181-2.766-.181v2c1.197 0 1.958.055 2.354.139L40.17 2.9zm26.865 11.66l-.332-.943.261 1.94.071-.997zm4.52 1.92l-.707.707.008.008.7-.715zm.52 8.32l-.817-.576-.003.004.82.572zm-3.28 2.72l.42.908.007-.003.007-.004-.434-.901zm-7.84.56l-.248.969.006.001.242-.97zm-2.44-1.12l.634-.774-.07-.057-.078-.043-.486.874zm-.44-.32l-.894.447.028.056.034.052.832-.555zm-.12-.6l.996-.09v-.009l-.002-.008-.994.107zm-.48-4.44h-1v.054l.006.053.994-.107zm.2-.16l-.164-.986-.016.002-.016.003.196.981zm.28.08l.986-.17-.013-.075-.024-.071-.949.316zm2.6 4.8l-.607.794.01.008.597-.802zm8.44-.28l-.806-.591-.004.005-.005.006.815.58zm-.52-9.36l-.682.731.008.008.009.008.665-.747zm-.56-3.68l-.689-.725-.009.009.698.716zm.28-8.36l.764-.646-.764.646zm-7.24 0l.69.725-.69-.725zm-2.4 4.52l-.966-.258-.034.127v.131h1zm-.36.04l-.707.707.167.167.224.075.316-.949zm-.08-.12l-.992-.123-.008.061v.062h1zm.56-4.52l-.986-.164-.004.02-.002.021.992.123zm.16-.64l-.894-.447.894.447zm.44-.28l.317.949.007-.003.007-.002-.33-.944zm11.12.48l-.655.756.009.007.646-.763zm.24 7.92l-.754-.656-.001.001.755.655zm-3.67 3.518c1.665.119 2.932.678 3.883 1.63l1.414-1.415c-1.342-1.343-3.088-2.063-5.155-2.21l-.143 1.994zm3.891 1.637c.966.944 1.46 2.132 1.46 3.645h2c0-2.007-.68-3.726-2.062-5.075l-1.398 1.43zm1.46 3.645c0 1.265-.353 2.383-1.058 3.384l1.635 1.152c.948-1.346 1.422-2.868 1.422-4.536h-2zm-1.06 3.388c-.693.991-1.647 1.791-2.894 2.39l.867 1.803c1.525-.733 2.758-1.747 3.666-3.049l-1.64-1.144zm-2.88 2.384c-1.242.574-2.63.868-4.18.868v2c1.81 0 3.488-.346 5.018-1.052l-.838-1.816zm-4.18.868c-1.012 0-2.01-.123-2.998-.37l-.485 1.94c1.145.287 2.307.43 3.482.43v-2zm-2.992-.369c-.954-.244-1.618-.567-2.055-.925l-1.267 1.548c.736.602 1.699 1.026 2.825 1.315l.497-1.938zM59 26.086a2.97 2.97 0 01-.188-.115c-.013-.01-.01-.009.002.003a.707.707 0 01.092.111l-1.664 1.11c.127.19.294.321.394.394.118.086.253.168.393.245L59 26.086zm-.031.107a.516.516 0 01.025.058l-.01-.037a2.637 2.637 0 01-.034-.264l-1.992.18c.026.288.075.663.222.957l1.789-.894zm-.02-.26l-.48-4.44-1.989.215.48 4.44 1.989-.215zm-.475-4.333a.878.878 0 01-.325.68.645.645 0 01-.279.14l-.392-1.96c-.14.027-.367.09-.578.26a1.123 1.123 0 00-.426.88h2zm-.635.826s-.021.004-.057.004a.702.702 0 01-.192-.029.887.887 0 01-.584-.565l1.897-.632a1.121 1.121 0 00-.764-.726 1.433 1.433 0 00-.63-.024l.33 1.972zm-.87-.736c.404 2.336 1.366 4.192 2.978 5.424l1.215-1.588c-1.109-.848-1.88-2.192-2.222-4.176l-1.971.34zm2.988 5.432c1.525 1.136 3.226 1.718 5.077 1.718v-2c-1.401 0-2.687-.431-3.882-1.322l-1.195 1.604zm5.077 1.718c2.033 0 3.693-.699 4.775-2.22l-1.63-1.16c-.624.879-1.604 1.38-3.145 1.38v2zm4.767-2.209c1.03-1.403 1.513-3.115 1.513-5.071h-2c0 1.618-.395 2.892-1.126 3.889l1.613 1.182zm1.513-5.071c0-2.35-.673-4.288-2.174-5.626l-1.331 1.493c.952.848 1.505 2.163 1.505 4.133h2zm-2.157-5.611C67.71 14.598 65.68 14 63.235 14v2c2.141 0 3.606.522 4.558 1.411l1.365-1.462zM63.235 14a.871.871 0 01.712.385.784.784 0 01.114.263c.014.059.014.1.014.112h-2c0 .16.021.454.208.735.235.352.608.505.952.505v-2zm.84.76c0 .012 0 .053-.014.112a.784.784 0 01-.114.263.871.871 0 01-.712.385v-2c-.344 0-.717.153-.952.505-.187.28-.208.575-.208.735h2zm-.84.76c2.228 0 4.084-.543 5.378-1.804l-1.396-1.432c-.785.765-2.05 1.236-3.982 1.236v2zm5.37-1.795c1.303-1.239 1.91-2.909 1.91-4.885h-2c0 1.544-.459 2.647-1.288 3.435l1.377 1.45zm1.91-4.885c0-1.926-.484-3.578-1.556-4.846l-1.527 1.292c.687.812 1.083 1.96 1.083 3.554h2zM68.96 3.994c-1.087-1.283-2.55-1.914-4.285-1.914v2c1.198 0 2.083.41 2.757 1.206l1.527-1.292zM64.675 2.08c-1.667 0-3.148.636-4.409 1.835l1.379 1.45c.925-.88 1.924-1.285 3.03-1.285v-2zm-4.408 1.835c-1.245 1.182-2.116 2.878-2.678 4.987l1.933.516c.504-1.891 1.233-3.208 2.122-4.053l-1.377-1.45zM57.555 9.16a.938.938 0 01.513-.834.826.826 0 01.327-.086v2c.105 0 .332-.008.567-.126a1.061 1.061 0 00.593-.954h-2zm.84-.92c.055 0 .092.006.106.01.016.003.02.005.01.001l-.632 1.898c.13.043.312.091.516.091v-2zm.507.253l.018.019a.853.853 0 01.13.22.94.94 0 01.065.348h-2c0 .314.142.535.188.605.065.096.135.172.185.222l1.414-1.414zm.206.71l.56-4.52-1.985-.246-.56 4.52 1.985.246zm.554-4.479a4.26 4.26 0 01.082-.388c.004-.012 0 .002-.014.031l-1.79-.894c-.13.26-.2.618-.251.923l1.973.328zm.068-.357a.7.7 0 01-.13.183.47.47 0 01-.078.064c-.019.012-.005 0 .07-.025l-.633-1.898c-.166.056-.345.13-.51.235a1.396 1.396 0 00-.508.547l1.789.894zm-.124.217c1.963-.689 3.824-1.024 5.59-1.024v-2c-2.022 0-4.107.385-6.252 1.136l.662 1.888zm5.59-1.024c2.127 0 3.59.489 4.544 1.316l1.31-1.512c-1.446-1.253-3.449-1.804-5.855-1.804v2zm4.553 1.323C70.76 5.74 71.235 6.76 71.235 8h2c0-1.854-.752-3.421-2.193-4.643l-1.293 1.526zM71.235 8c0 1.199-.427 2.318-1.354 3.384l1.509 1.312C72.596 11.31 73.235 9.734 73.235 8h-2zm-1.355 3.385c-.939 1.083-1.997 1.815-3.177 2.232l.665 1.886c1.54-.543 2.881-1.49 4.023-2.808l-1.511-1.31zM93.473 15.4l.583-.813-.583.813zm1.08 9.08l-.86-.509-.005.008-.004.007.87.494zm-2.84 2.72l.463.887-.463-.887zm-6.68.84l.084-.997h-.012l-.072.997zm-1.44-.08l-.047.999h.002l.045-.999zm-1.88-.04v-1h-.015l.015 1zm-2.64.04l-.015-1h-.018l-.02.001.053.999zm-2.08-.44v1h.026l-.026-1zm2.24-.24l-.267-.963-.007.002-.008.002.282.959zm1-.76l-.894-.447.894.447zm0-22.04l-.919.394.012.027.013.026.894-.447zm-.96-.76l-.282.96.008.001.007.003.267-.964zm-2.2-.24l.027-1h-.027v1zm0-.48l.021-1h-.02v1zm1.92.04l.05-.999h-.029l-.02.999zm5.64 0l-.02-1H84.6l-.012.001.045.999zm1.96-.04V2h-.02l.02 1zm0 .48v-1h-.025l.025 1zm-3.28 1.04l-.906-.423-.007.014-.006.015.92.394zm-.24 9.8h-1v1.211l1.19-.23-.19-.981zm22.4 13.64l.056-.998-.021-.002h-.02l-.015 1zm-2.84-.04l.015-1h-.029l.014 1zm-2.76.04l-.014-1h-.02l-.021.002.055.998zm.24-.64l-.267-.963-.008.002-.007.002.282.959zm.96-.76l-.906-.423-.006.014-.007.015.919.394zm0-22.08l-.919.394.012.027.013.026.894-.447zm-.96-.76l-.332.943.032.011.033.01.267-.964zm-2.2-.72l.02-1h-.02v1zm1.96.04l.048-.999h-.027l-.02.999zm5.64 0l-.021-1h-.013l-.013.001.047.999zm1.88-.04V2h-.021l.021 1zm-2.2.72l-.316-.949-.008.003-.008.003.332.943zm-.96.84l-.906-.423-.006.014-.007.015.919.394zm0 22l-.928.371.004.012.005.01.919-.393zm.92.76l-.282.96.008.002.007.002.267-.964zM91.353 26l-.716-.697.716.697zm-.16-9.76l-.698.716.698-.716zm-8.12-1.16l-.203-.979-.797.166v.813h1zm.72 11.72l.665-.747-.665.747zm3.76-11.92c2.416 0 4.156.485 5.338 1.333l1.165-1.626c-1.645-1.179-3.852-1.707-6.503-1.707v2zm5.338 1.333c1.065.764 1.702 2.08 1.702 4.227h2c0-2.546-.776-4.59-2.537-5.853l-1.165 1.626zm1.702 4.227c0 1.362-.308 2.53-.9 3.531l1.721 1.018c.795-1.345 1.18-2.871 1.18-4.549h-2zm-.909 3.546c-.57 1.002-1.373 1.774-2.433 2.327l.925 1.774c1.393-.727 2.483-1.768 3.247-3.113l-1.739-.988zm-2.433 2.327c-1.066.556-2.303.847-3.738.847v2c1.713 0 3.275-.35 4.663-1.073l-.925-1.774zm-3.738.847c-.657 0-1.454-.038-2.397-.116l-.166 1.992c.978.082 1.834.124 2.563.124v-2zm-2.408-.117a59.103 59.103 0 00-1.466-.082l-.091 1.998c.582.026 1.053.053 1.414.079l.143-1.995zm-1.464-.082a40.944 40.944 0 00-1.928-.041v2c.681 0 1.292.013 1.833.039l.095-1.998zm-1.943-.04l-2.64.04.03 1.999 2.64-.04-.03-2zm-2.677.04a40.97 40.97 0 01-2.028.039v2c.887 0 1.6-.013 2.133-.041l-.105-1.998zM76.993 27c.27 0 .508.113.672.278a.89.89 0 01.217.346c.039.116.031.187.031.136h-2c0 .11.006.3.072.496.057.17.317.744 1.008.744v-2zm.92.76c0-.05.008.02-.03.136a.889.889 0 01-.218.346.952.952 0 01-.672.278v-2c-.69 0-.951.573-1.008.744a1.575 1.575 0 00-.072.496h2zm-.894.76c1.049-.027 1.908-.108 2.497-.28l-.565-1.92c-.318.094-.952.174-1.983.2l.051 2zm2.482-.276c.695-.194 1.29-.602 1.627-1.277l-1.789-.894c-.036.071-.108.17-.373.244l.535 1.927zm1.627-1.277c.294-.588.385-1.369.385-2.207h-2c0 .762-.095 1.155-.174 1.313l1.789.894zm.385-2.207V6.24h-2v18.52h2zm0-18.52c0-.838-.09-1.619-.385-2.207l-1.789.894c.079.158.174.551.174 1.313h2zm-.36-2.154c-.307-.715-.913-1.135-1.612-1.33l-.535 1.928c.26.072.295.158.308.19l1.839-.788zm-1.597-1.325c-.587-.173-1.432-.254-2.456-.28l-.053 1.999c1.002.026 1.624.105 1.944.2l.565-1.92zm-2.483-.281a.908.908 0 01.805.493.74.74 0 01.075.252v.015h-2c0 .131.011.378.136.627a1.092 1.092 0 00.984.613v-2zm.88.76v.015a.74.74 0 01-.075.252.908.908 0 01-.804.493V2a1.092 1.092 0 00-.985.613 1.399 1.399 0 00-.136.627h2zm-.9.76l1.92.04.041-2-1.92-.04-.041 2zm1.89.039a56.56 56.56 0 002.77.081v-2c-.724 0-1.613-.026-2.67-.079l-.1 1.998zm2.77.081c.794 0 1.784-.027 2.966-.081l-.091-1.998a65.476 65.476 0 01-2.875.079v2zm2.94-.08l1.96-.04-.04-2-1.96.04.04 2zm1.94-.04a.952.952 0 01-.672-.278.89.89 0 01-.216-.346c-.039-.116-.032-.187-.032-.136h2c0-.11-.005-.3-.07-.496-.058-.17-.319-.744-1.01-.744v2zm-.92-.76c0 .05-.007-.02.032-.136a.89.89 0 01.216-.346.952.952 0 01.672-.278v2c.691 0 .952-.573 1.01-.744a1.58 1.58 0 00.07-.496h-2zm.895-.76c-1.053.027-1.917.108-2.522.276l.535 1.928c.355-.1 1.011-.178 2.038-.204l-.051-2zm-2.522.276c-.721.2-1.312.64-1.639 1.341l1.813.846c.046-.1.122-.193.361-.26l-.535-1.927zm-1.652 1.37c-.244.57-.32 1.343-.32 2.194h2c0-.802.083-1.23.159-1.406l-1.839-.788zm-.32 2.194v8h2v-8h-2zm1.189 8.982a22.605 22.605 0 014.29-.422v-2c-1.533 0-3.09.153-4.67.458l.38 1.964zm24.13 13.218a.907.907 0 01-.804-.493.715.715 0 01-.069-.208c-.004-.02-.005-.035-.006-.044l-.001-.015h2c0-.131-.011-.378-.135-.627a1.095 1.095 0 00-.985-.613v2zm-.88-.76l.001-.015c.001-.01.002-.024.006-.044a.715.715 0 01.069-.208.907.907 0 01.804-.493v2a1.095 1.095 0 00.985-.613c.124-.249.135-.496.135-.627h-2zm.88-.76c-.791 0-1.411-.013-1.864-.038l-.111 1.997a37.31 37.31 0 001.975.041v-2zm-1.905-.04l-2.84-.04-.029 2 2.84.04.029-2zm-2.869-.04l-2.76.04.029 2 2.76-.04-.029-2zm-2.801.041c-.453.026-1.085.039-1.905.039v2c.835 0 1.509-.013 2.016-.041l-.111-1.997zM97.913 27a.908.908 0 01.805.493.74.74 0 01.075.267h-2c0 .131.011.378.136.627a1.093 1.093 0 00.984.613v-2zm.88.76v.015a.74.74 0 01-.075.252.908.908 0 01-.805.493v-2a1.093 1.093 0 00-.984.613 1.398 1.398 0 00-.136.627h2zm-.88.76c1.026 0 1.882-.064 2.483-.24l-.565-1.92c-.306.09-.916.16-1.918.16v2zm2.468-.236c.699-.195 1.305-.615 1.612-1.33l-1.839-.788c-.013.032-.048.118-.308.19l.535 1.927zm1.599-1.301c.28-.6.373-1.377.373-2.223h-2c0 .754-.092 1.177-.186 1.377l1.813.846zm.373-2.223V6.24h-2v18.52h2zm0-18.52c0-.838-.091-1.619-.385-2.207l-1.789.894c.079.158.174.551.174 1.313h2zm-.36-2.154c-.307-.715-.913-1.135-1.612-1.33l-.535 1.928c.26.072.295.158.308.19l1.839-.788zm-1.547-1.309c-.624-.22-1.503-.297-2.533-.297v2c.998 0 1.585.083 1.868.183l.665-1.886zm-2.533-.297a.908.908 0 01.805.493.74.74 0 01.075.252v.015h-2c0 .131.011.378.136.627a1.092 1.092 0 00.984.613v-2zm.88.76v.015a.74.74 0 01-.075.252.908.908 0 01-.805.493V2a1.092 1.092 0 00-.984.613 1.399 1.399 0 00-.136.627h2zm-.9.76l1.96.04.04-2-1.96-.04-.04 2zm1.933.039c1.128.054 2.065.081 2.807.081v-2c-.698 0-1.6-.026-2.712-.079l-.095 1.998zm2.807.081c.821 0 1.798-.027 2.928-.081l-.095-1.998a60.88 60.88 0 01-2.833.079v2zm2.902-.08l1.88-.04-.043-2-1.88.04.043 2zm1.858-.04a.907.907 0 01-.804-.493.716.716 0 01-.069-.208c-.004-.02-.005-.035-.006-.044l-.001-.015h2c0-.131-.011-.378-.135-.627a1.095 1.095 0 00-.985-.613v2zm-.88-.76l.001-.015c.001-.01.002-.024.006-.044a.716.716 0 01.069-.208.907.907 0 01.804-.493v2a1.095 1.095 0 00.985-.613c.124-.249.135-.496.135-.627h-2zm.88-.76c-1.012 0-1.878.079-2.516.291l.633 1.898c.322-.108.922-.189 1.883-.189v-2zm-2.532.297c-.682.24-1.223.694-1.534 1.36l1.813.846c.062-.134.161-.24.386-.32l-.665-1.886zm-1.547 1.39c-.243.567-.321 1.323-.321 2.153h2c0-.77.083-1.187.16-1.366l-1.839-.788zm-.321 2.153v18.44h2V6.32h-2zm0 18.44c0 .837.08 1.591.312 2.171l1.857-.742c-.088-.22-.169-.666-.169-1.429h-2zm.321 2.194c.298.694.87 1.123 1.557 1.325l.565-1.918c-.22-.065-.261-.142-.283-.195l-1.839.788zm1.572 1.33c.617.17 1.477.236 2.507.236v-2c-.996 0-1.629-.068-1.972-.163l-.535 1.927zm-18.173.156c2.271 0 4.148-.499 5.357-1.743l-1.434-1.394c-.657.676-1.873 1.137-3.923 1.137v2zm5.357-1.743c1.216-1.25 1.723-3.087 1.723-5.297h-2c0 1.95-.452 3.179-1.156 3.903l1.433 1.394zm1.723-5.297c0-2.51-.552-4.56-1.902-5.876l-1.396 1.432c.784.764 1.298 2.155 1.298 4.444h2zm-1.902-5.876c-1.312-1.28-3.146-1.844-5.338-1.844v2c1.862 0 3.121.476 3.942 1.276l1.396-1.432zm-5.338-1.844c-1.123 0-2.353.144-3.683.421l.407 1.958c1.23-.256 2.32-.379 3.276-.379v-2zm-4.48 1.4v9.68h2v-9.68h-2zm0 9.68c0 1.087.28 2.098 1.056 2.787l1.329-1.494c-.185-.164-.385-.513-.385-1.293h-2zm1.056 2.787c.42.373.97.585 1.54.71.582.127 1.27.183 2.044.183v-2c-.691 0-1.224-.05-1.615-.137-.404-.088-.58-.197-.64-.25l-1.329 1.494zm39.448-13.627l-.363-.932.287 1.93.076-.998zm5.08 2.12l-.7.715.008.007.007.007.685-.729zm-1.96 11.16l.47.882.007-.003-.477-.879zm-6.92.84l.077-.997h-.006l-.071.997zm-1.32-.08l.052-.999-.052.999zm-1.68-.04v-1h-.015l.015 1zm-2.72.04l-.015-1h-.02l-.021.002.056.998zm.2-.64l.268.963.024-.006.024-.008-.316-.949zm1-.8l-.895-.447.895.447zm0-22.04l-.919.394.011.027.013.026.895-.447zm-.96-.76l-.316.949.024.008.024.007.268-.964zm-2.2-.72l.02-1h-.02v1zm1.96.04l.047-.999h-.027l-.02.999zm4.04.04l-.062-.998h-.005l.067.998zm1.08-.08l.09.996h.006L118.177 3zm7.36 1.36l-.661.75.01.01.651-.76zm.44 7.24l.766.642.009-.01-.775-.632zm-7.92-7.96l-.294-.956-.011.004-.011.003.316.949zm-.72.76l-.929-.371.929.371zm-.24 9.52h-1v.978l.978.022.022-1zm1.8.04l-.022 1h.022v-1zm4.32-1.48l.726.687.009-.01-.735-.677zm.16-7.6l-.759.65.01.012.01.012.739-.674zm2 21.08l-.726-.688h-.001l.727.688zm-.36-9.24l-.73.684.008.008.722-.692zm-4.88-1.92l-.031 1h.018l.013-1zm-3.04.08l-.068-.998-.932.064v.934h1zm.28 11.48l-.895.447.013.025.014.024.868-.496zm1.16.84l-.316.949.026.008.027.008.263-.965zm3.964-12.283c1.916.146 3.374.777 4.456 1.838l1.4-1.43c-1.478-1.446-3.407-2.228-5.704-2.402l-.152 1.994zm4.471 1.852c1.1 1.032 1.645 2.299 1.645 3.871h2c0-2.108-.762-3.908-2.276-5.33l-1.369 1.46zm1.645 3.871c0 1.241-.302 2.34-.896 3.323l1.712 1.034c.793-1.311 1.184-2.772 1.184-4.357h-2zm-.896 3.323c-.597.988-1.424 1.773-2.502 2.358l.955 1.758c1.376-.748 2.47-1.777 3.259-3.082l-1.712-1.034zm-2.495 2.355c-1.041.555-2.224.842-3.569.842v2c1.641 0 3.152-.353 4.51-1.078l-.941-1.764zm-3.569.842c-.85 0-1.784-.039-2.803-.117l-.154 1.994a38.75 38.75 0 002.957.123v-2zm-2.809-.117a73.134 73.134 0 00-1.339-.082l-.105 1.998c.503.026.936.052 1.302.079l.142-1.995zm-1.339-.082a33.094 33.094 0 00-1.732-.041v2c.599 0 1.141.013 1.627.039l.105-1.998zm-1.747-.04l-2.72.04.03 1.999 2.72-.04-.03-2zm-2.761.04c-.452.026-1.11.039-1.984.039v2c.886 0 1.588-.013 2.095-.041l-.111-1.997zm-1.984.039c.269 0 .507.113.672.278.14.14.196.285.217.346.038.116.031.187.031.136h-2c0 .11.006.3.071.496.057.17.318.744 1.009.744v-2zm.92.76c0-.05.007.02-.031.136a.905.905 0 01-.217.346.953.953 0 01-.672.278v-2c-.691 0-.952.573-1.009.744a1.588 1.588 0 00-.071.496h2zm-.92.76c1.031 0 1.89-.065 2.508-.236l-.536-1.927c-.343.095-.976.163-1.972.163v2zm2.556-.251c.675-.225 1.249-.642 1.578-1.302l-1.789-.894c-.043.087-.136.203-.421.298l.632 1.898zm1.578-1.302c.295-.588.386-1.369.386-2.207h-2c0 .762-.096 1.155-.175 1.313l1.789.894zm.386-2.207V6.24h-2v18.52h2zm0-18.52c0-.838-.091-1.619-.386-2.207l-1.789.894c.079.158.175.551.175 1.313h2zm-.361-2.154c-.306-.715-.912-1.135-1.611-1.33l-.536 1.928c.261.072.295.158.309.19l1.838-.788zm-1.563-1.315c-.638-.212-1.504-.291-2.516-.291v2c.961 0 1.562.081 1.884.189l.632-1.898zm-2.516-.291a.907.907 0 01.804.493.728.728 0 01.076.267h-2c0 .131.011.378.135.627a1.092 1.092 0 00.985.613v-2zm.88.76l-.001.015a.728.728 0 01-.075.252.907.907 0 01-.804.493V2a1.092 1.092 0 00-.985.613 1.403 1.403 0 00-.135.627h2zm-.901.76l1.96.04.041-2-1.96-.04-.041 2zm1.933.039c1.128.054 2.052.081 2.768.081v-2c-.671 0-1.56-.026-2.673-.079l-.095 1.998zm2.768.081c.498 0 .96-.014 1.386-.042l-.133-1.996c-.374.025-.791.038-1.253.038v2zm1.382-.042c.433-.027.803-.054 1.108-.082l-.181-1.992c-.28.026-.63.052-1.051.078l.124 1.996zm1.114-.083c.8-.077 1.54-.115 2.224-.115v-2c-.757 0-1.563.042-2.416.125l.192 1.99zm2.224-.115c2.115 0 3.514.469 4.379 1.23l1.322-1.5c-1.375-1.212-3.336-1.73-5.701-1.73v2zm4.389 1.24c.882.755 1.331 1.736 1.331 3.04h2c0-1.843-.671-3.395-2.029-4.56l-1.302 1.52zm1.331 3.04c0 1.044-.33 1.969-1.015 2.808l1.55 1.264c.969-1.188 1.465-2.556 1.465-4.072h-2zm-1.007 2.798c-.698.834-1.681 1.519-2.996 2.03l.725 1.864c1.566-.609 2.85-1.47 3.804-2.61l-1.533-1.284zm-5.593-8.478c-.72 0-1.361.053-1.854.204l.588 1.912c.2-.062.599-.116 1.266-.116v-2zm-1.876.211c-.673.225-1.096.746-1.333 1.338l1.857.742a.546.546 0 01.098-.173l.01-.01c-.001.001-.002.001 0 0l-.632-1.897zm-1.333 1.338c-.234.587-.311 1.389-.311 2.291h2c0-.857.083-1.336.168-1.549l-1.857-.742zm-.311 2.291v7.6h2v-7.6h-2zm.978 8.6l1.8.04.044-2-1.8-.04-.044 2zm1.822.04c2.101 0 3.855-.533 5.046-1.793l-1.453-1.374c-.675.713-1.8 1.167-3.593 1.167v2zm5.055-1.803c1.137-1.233 1.665-2.826 1.665-4.677h-2c0 1.455-.405 2.53-1.136 3.322l1.471 1.356zm1.665-4.677c0-1.686-.472-3.145-1.501-4.274l-1.478 1.348c.624.684.979 1.625.979 2.926h2zm-1.481-4.25c-1.055-1.232-2.639-1.75-4.519-1.75v2c1.533 0 2.456.415 3.001 1.05l1.518-1.3zm-3.079 24.21c2.101 0 3.855-.533 5.046-1.793l-1.453-1.374c-.675.713-1.8 1.167-3.593 1.167v2zm5.046-1.792c1.188-1.255 1.714-2.974 1.714-5.008h-2c0 1.7-.435 2.86-1.166 3.632l1.452 1.376zm1.714-5.008c0-2.238-.67-4.141-2.078-5.612l-1.444 1.384c.992 1.036 1.522 2.413 1.522 4.228h2zm-2.07-5.603c-1.398-1.493-3.307-2.208-5.597-2.237l-.026 2c1.87.024 3.214.59 4.163 1.603l1.46-1.366zm-5.579-2.236a32.31 32.31 0 00-3.139.081l.136 1.996a30.251 30.251 0 012.941-.079l.062-1.998zm-4.071 1.079v9.88h2v-9.88h-2zm0 9.88c0 .758.098 1.472.385 2.047l1.789-.894c-.086-.172-.174-.525-.174-1.153h-2zm.412 2.096c.374.655 1.006 1.057 1.712 1.293l.632-1.898c-.414-.138-.556-.296-.608-.387l-1.736.992zm1.765 1.309c.715.195 1.659.275 2.783.275v-2c-1.063 0-1.799-.08-2.257-.205l-.526 1.93zM149.802 15.4l.582-.813-.582.813zm1.08 9.08l-.861-.509-.005.008-.004.007.87.494zm-2.84 2.72l.462.887-.462-.887zm-6.68.84l.083-.997h-.012l-.071.997zm-1.44-.08l-.048.999h.002l.046-.999zm-1.88-.04v-1h-.016l.016 1zm-2.64.04l-.016-1h-.018l-.019.001.053.999zm-2.08-.44v1h.025l-.025-1zm2.24-.24l-.268-.963-.007.002-.008.002.283.959zm1-.76l-.895-.447.895.447zm0-22.04l-.92.394.012.027.013.026.895-.447zm-.96-.76l-.283.96.008.001.007.003.268-.964zm-2.2-.24l.026-1h-.026v1zm0-.48l.02-1h-.02v1zm1.92.04l.05-.999h-.03l-.02.999zm5.64 0l-.021-1h-.012l-.013.001.046.999zm1.96-.04V2h-.021l.021 1zm0 .48v-1h-.026l.026 1zm-3.28 1.04l-.907-.423-.006.014-.007.015.92.394zm-.24 9.8h-1v1.211l1.189-.23-.189-.981zm22.4 13.64l.055-.998-.021-.002h-.02l-.014 1zm-2.84-.04l.014-1h-.029l.015 1zm-2.76.04l-.015-1h-.02l-.021.002.056.998zm.24-.64l-.268-.963-.007.002-.008.002.283.959zm.96-.76l-.907-.423-.006.014-.007.015.92.394zm0-22.08l-.92.394.012.027.013.026.895-.447zm-.96-.76l-.333.943.032.011.033.01.268-.964zm-2.2-.72l.02-1h-.02v1zm1.96.04l.047-.999h-.027l-.02.999zm5.64 0l-.022-1h-.013l-.013.001.048.999zm1.88-.04V2h-.022l.022 1zm-2.2.72l-.317-.949-.008.003-.008.003.333.943zm-.96.84l-.907-.423-.006.014-.007.015.92.394zm0 22l-.929.371.005.012.004.01.92-.393zm.92.76l-.283.96.008.002.007.002.268-.964zm-13.8-1.32l-.717-.697.717.697zm-.16-9.76l-.699.716.699-.716zm-8.12-1.16l-.204-.979-.796.166v.813h1zm.72 11.72l.664-.747-.664.747zm3.76-11.92c2.415 0 4.155.485 5.337 1.333l1.165-1.626c-1.645-1.179-3.851-1.707-6.502-1.707v2zm5.337 1.333c1.065.764 1.703 2.08 1.703 4.227h2c0-2.546-.777-4.59-2.538-5.853l-1.165 1.626zm1.703 4.227c0 1.362-.309 2.53-.901 3.531l1.721 1.018c.795-1.345 1.18-2.871 1.18-4.549h-2zm-.91 3.546c-.569 1.002-1.372 1.774-2.433 2.327l.925 1.774c1.393-.727 2.483-1.768 3.247-3.113l-1.739-.988zm-2.433 2.327c-1.065.556-2.303.847-3.737.847v2c1.712 0 3.274-.35 4.662-1.073l-.925-1.774zm-3.737.847a29.48 29.48 0 01-2.397-.116l-.166 1.992c.977.082 1.833.124 2.563.124v-2zm-2.409-.117a59.34 59.34 0 00-1.466-.082l-.091 1.998c.582.026 1.053.053 1.414.079l.143-1.995zm-1.464-.082a40.94 40.94 0 00-1.927-.041v2c.681 0 1.291.013 1.832.039l.095-1.998zm-1.943-.04l-2.64.04.031 1.999 2.64-.04-.031-2zm-2.677.04c-.481.026-1.154.039-2.027.039v2c.886 0 1.6-.013 2.132-.041l-.105-1.998zm-2.027.039c.269 0 .507.113.672.278.14.14.196.285.216.346.039.116.032.187.032.136h-2c0 .11.005.3.071.496.057.17.318.744 1.009.744v-2zm.92.76c0-.05.007.02-.032.136a.886.886 0 01-.216.346.953.953 0 01-.672.278v-2c-.691 0-.952.573-1.009.744a1.558 1.558 0 00-.071.496h2zm-.895.76c1.049-.027 1.909-.108 2.497-.28l-.565-1.92c-.318.094-.952.174-1.983.2l.051 2zm2.482-.276c.695-.194 1.289-.602 1.627-1.277l-1.789-.894c-.036.071-.108.17-.373.244l.535 1.927zm1.627-1.277c.294-.588.386-1.369.386-2.207h-2c0 .762-.096 1.155-.175 1.313l1.789.894zm.386-2.207V6.24h-2v18.52h2zm0-18.52c0-.838-.092-1.619-.386-2.207l-1.789.894c.079.158.175.551.175 1.313h2zm-.361-2.154c-.307-.715-.912-1.135-1.612-1.33l-.535 1.928c.261.072.295.158.308.19l1.839-.788zm-1.597-1.325c-.587-.173-1.432-.254-2.456-.28l-.053 1.999c1.002.026 1.624.105 1.944.2l.565-1.92zm-2.482-.281a.907.907 0 01.804.493.716.716 0 01.069.208c.004.02.005.035.006.044l.001.015h-2c0 .131.011.378.135.627a1.095 1.095 0 00.985.613v-2zm.88.76l-.001.015c-.001.01-.002.024-.006.044a.716.716 0 01-.069.208.907.907 0 01-.804.493V2a1.095 1.095 0 00-.985.613 1.403 1.403 0 00-.135.627h2zm-.901.76l1.92.04.041-2-1.92-.04-.041 2zm1.891.039c1.077.054 2.001.081 2.77.081v-2a54.6 54.6 0 01-2.67-.079l-.1 1.998zm2.77.081c.794 0 1.783-.027 2.965-.081l-.091-1.998a65.475 65.475 0 01-2.874.079v2zm2.94-.08l1.96-.04-.041-2-1.96.04.041 2zm1.94-.04a.953.953 0 01-.673-.278.887.887 0 01-.216-.346c-.039-.116-.031-.187-.031-.136h2c0-.11-.006-.3-.072-.496-.057-.17-.318-.744-1.008-.744v2zm-.92-.76c0 .05-.008-.02.031-.136a.887.887 0 01.216-.346.953.953 0 01.673-.278v2c.69 0 .951-.573 1.008-.744.066-.196.072-.387.072-.496h-2zm.894-.76c-1.053.027-1.917.108-2.522.276l.535 1.928c.355-.1 1.011-.178 2.038-.204l-.051-2zm-2.522.276c-.721.2-1.312.64-1.639 1.341l1.813.846c.046-.1.122-.193.361-.26l-.535-1.927zm-1.652 1.37c-.244.57-.32 1.343-.32 2.194h2c0-.802.083-1.23.159-1.406l-1.839-.788zm-.32 2.194v8h2v-8h-2zm1.189 8.982a22.607 22.607 0 014.291-.422v-2c-1.534 0-3.091.153-4.67.458l.379 1.964zm24.131 13.218a.91.91 0 01-.805-.493.749.749 0 01-.069-.208c-.004-.02-.005-.035-.006-.044v-.015h2c0-.131-.012-.378-.136-.627a1.092 1.092 0 00-.984-.613v2zm-.88-.76v-.015c.001-.01.002-.024.006-.044a.749.749 0 01.069-.208.91.91 0 01.805-.493v2a1.092 1.092 0 00.984-.613c.124-.249.136-.496.136-.627h-2zm.88-.76a35.72 35.72 0 01-1.865-.038l-.111 1.997c.507.028 1.167.041 1.976.041v-2zm-1.906-.04l-2.84-.04-.029 2 2.84.04.029-2zm-2.869-.04l-2.76.04.029 2 2.76-.04-.029-2zm-2.801.041c-.453.026-1.085.039-1.904.039v2c.834 0 1.508-.013 2.015-.041l-.111-1.997zm-1.904.039a.907.907 0 01.804.493.715.715 0 01.069.208c.004.02.005.035.006.044l.001.015h-2c0 .131.011.378.135.627a1.095 1.095 0 00.985.613v-2zm.88.76l-.001.015c-.001.01-.002.024-.006.044a.715.715 0 01-.069.208.907.907 0 01-.804.493v-2a1.095 1.095 0 00-.985.613 1.403 1.403 0 00-.135.627h2zm-.88.76c1.025 0 1.881-.064 2.482-.24l-.565-1.92c-.306.09-.916.16-1.917.16v2zm2.467-.236c.7-.195 1.305-.615 1.612-1.33l-1.839-.788c-.013.032-.047.118-.308.19l.535 1.927zm1.599-1.301c.28-.6.374-1.377.374-2.223h-2c0 .754-.093 1.177-.187 1.377l1.813.846zm.374-2.223V6.24h-2v18.52h2zm0-18.52c0-.838-.092-1.619-.386-2.207l-1.789.894c.079.158.175.551.175 1.313h2zm-.361-2.154c-.307-.715-.912-1.135-1.612-1.33l-.535 1.928c.261.072.295.158.308.19l1.839-.788zm-1.547-1.309c-.624-.22-1.503-.297-2.532-.297v2c.997 0 1.584.083 1.867.183l.665-1.886zm-2.532-.297a.907.907 0 01.804.493.716.716 0 01.069.208c.004.02.005.035.006.044l.001.015h-2c0 .131.011.378.135.627a1.095 1.095 0 00.985.613v-2zm.88.76l-.001.015c-.001.01-.002.024-.006.044a.716.716 0 01-.069.208.907.907 0 01-.804.493V2a1.095 1.095 0 00-.985.613 1.403 1.403 0 00-.135.627h2zm-.901.76l1.96.04.041-2-1.96-.04-.041 2zm1.933.039c1.128.054 2.066.081 2.808.081v-2c-.698 0-1.601-.026-2.713-.079l-.095 1.998zm2.808.081c.82 0 1.797-.027 2.927-.081l-.095-1.998a60.69 60.69 0 01-2.832.079v2zm2.901-.08l1.88-.04-.043-2-1.88.04.043 2zm1.859-.04a.91.91 0 01-.805-.493.75.75 0 01-.069-.208c-.004-.02-.005-.035-.006-.044V3.24h2c0-.131-.012-.378-.136-.627a1.092 1.092 0 00-.984-.613v2zm-.88-.76v-.015c.001-.01.002-.024.006-.044a.75.75 0 01.069-.208.91.91 0 01.805-.493v2a1.092 1.092 0 00.984-.613c.124-.249.136-.496.136-.627h-2zm.88-.76c-1.013 0-1.879.079-2.517.291l.633 1.898c.322-.108.923-.189 1.884-.189v-2zm-2.533.297c-.682.24-1.223.694-1.534 1.36l1.813.846c.062-.134.161-.24.386-.32l-.665-1.886zm-1.547 1.39c-.243.567-.32 1.323-.32 2.153h2c0-.77.082-1.187.159-1.366l-1.839-.788zm-.32 2.153v18.44h2V6.32h-2zm0 18.44c0 .837.079 1.591.311 2.171l1.857-.742c-.088-.22-.168-.666-.168-1.429h-2zm.32 2.194c.298.694.87 1.123 1.557 1.325l.565-1.918c-.22-.065-.261-.142-.283-.195l-1.839.788zm1.572 1.33c.617.17 1.477.236 2.508.236v-2c-.996 0-1.63-.068-1.973-.163l-.535 1.927zm-18.172.156c2.27 0 4.147-.499 5.357-1.743l-1.434-1.394c-.658.676-1.874 1.137-3.923 1.137v2zm5.356-1.743c1.216-1.25 1.724-3.087 1.724-5.297h-2c0 1.95-.453 3.179-1.157 3.903l1.433 1.394zm1.724-5.297c0-2.51-.553-4.56-1.902-5.876l-1.397 1.432c.784.764 1.299 2.155 1.299 4.444h2zm-1.902-5.876c-1.313-1.28-3.147-1.844-5.338-1.844v2c1.861 0 3.121.476 3.941 1.276l1.397-1.432zm-5.338-1.844c-1.124 0-2.354.144-3.684.421l.408 1.958c1.229-.256 2.319-.379 3.276-.379v-2zm-4.48 1.4v9.68h2v-9.68h-2zm0 9.68c0 1.087.28 2.098 1.055 2.787l1.329-1.494c-.185-.164-.384-.513-.384-1.293h-2zm1.055 2.787c.42.373.971.585 1.54.71.582.127 1.27.183 2.045.183v-2c-.692 0-1.224-.05-1.616-.137-.404-.088-.58-.197-.64-.25l-1.329 1.494z" fill="#A82209"/></svg>