<svg width="142" height="142" fill="none" xmlns="http://www.w3.org/2000/svg"><path d="M71 16c-30.377 0-55 24.623-55 55s24.623 55 55 55c30.374 0 55-24.626 55-55 0-30.377-24.626-55-55-55zm0 103.125c-26.579 0-48.125-21.546-48.125-48.125S44.421 22.875 71 22.875 119.125 44.421 119.125 71 97.579 119.125 71 119.125z" fill="#A4C700"/><path d="M96.094 51.726L60.729 86.775 46.013 72.35a3.492 3.492 0 00-4.909 0 3.41 3.41 0 000 4.86l17.184 16.84c1.41 1.242 3.517 1.38 4.909 0l37.809-37.464a3.416 3.416 0 000-4.861 3.502 3.502 0 00-4.912 0z" fill="#A4C700"/></svg>