<svg width="142" height="142" fill="none" xmlns="http://www.w3.org/2000/svg"><path d="M102.062 79.875a13.314 13.314 0 0113.313 13.313v4.437c0 17.493-16.507 35.5-44.375 35.5-27.867 0-44.375-18.007-44.375-35.5v-4.438a13.313 13.313 0 0113.313-13.312h62.124zm0 8.875H39.938a4.437 4.437 0 00-4.438 4.438v4.437c0 12.762 12.709 26.625 35.5 26.625s35.5-13.863 35.5-26.625v-4.438a4.439 4.439 0 00-4.438-4.437zM71 22.187A24.406 24.406 0 1171 71a24.406 24.406 0 010-48.813zm0 8.875a15.531 15.531 0 100 31.063 15.531 15.531 0 000-31.063z" fill="#A4C700"/></svg>