<svg width="142" height="142" fill="none" xmlns="http://www.w3.org/2000/svg"><path d="M46.372 41.033a4.062 4.062 0 00-5.747 0c-5.89 5.89-8.785 14.096-7.944 22.514a4.064 4.064 0 108.088-.81c-.599-5.982 1.444-11.799 5.603-15.957a4.062 4.062 0 000-5.747z" fill="#A4C700"/><path d="M62.465 16C36.846 16 16 36.844 16 62.465c0 25.622 20.844 46.466 46.465 46.466 25.622 0 46.466-20.844 46.466-46.465C108.931 36.843 88.087 16 62.466 16zm0 84.803c-21.14 0-38.337-17.198-38.337-38.337 0-21.14 17.198-38.338 38.337-38.338 21.139 0 38.338 17.198 38.338 38.337 0 21.14-17.198 38.338-38.337 38.338z" fill="#A4C700"/><path d="M124.809 119.063L95.277 89.531a4.062 4.062 0 00-5.746 0 4.062 4.062 0 000 5.746l29.532 29.532a4.05 4.05 0 002.873 1.191c1.041 0 2.08-.397 2.873-1.191a4.06 4.06 0 000-5.746z" fill="#A4C700"/></svg>